<svg xmlns="http://www.w3.org/2000/svg" width="40" height="30" viewBox="0 0 40 30">
  <metadata><?xpacket begin="﻿" id="W5M0MpCehiHzreSzNTczkc9d"?>
<x:xmpmeta xmlns:x="adobe:ns:meta/" x:xmptk="Adobe XMP Core 5.6-c140 79.160451, 2017/05/06-01:08:21        ">
   <rdf:RDF xmlns:rdf="http://www.w3.org/1999/02/22-rdf-syntax-ns#">
      <rdf:Description rdf:about=""/>
   </rdf:RDF>
</x:xmpmeta>
                                                                                                    
                                                                                                    
                                                                                                    
                                                                                                    
                                                                                                    
                                                                                                    
                                                                                                    
                                                                                                    
                                                                                                    
                                                                                                    
                                                                                                    
                                                                                                    
                                                                                                    
                                                                                                    
                                                                                                    
                                                                                                    
                                                                                                    
                                                                                                    
                                                                                                    
                                                                                                    
                           
<?xpacket end="w"?></metadata>
<defs>
    <style>
      .cls-1 {
        fill: #999;
        fill-rule: evenodd;
      }
    </style>
  </defs>
  <path id="fish05" class="cls-1" d="M1017,352h2v2h-2v-2Zm0-2h2v2h-2v-2Zm14,6h2v2h-2v-2Zm4-2h2v2h-2v-2Zm0-2h2v2h-2v-2Zm-2,0h2v2h-2v-2Zm0,2h2v2h-2v-2Zm-2,0h2v2h-2v-2Zm2-4h2v2h-2v-2Zm-2,0h2v2h-2v-2Zm0-2h2v2h-2v-2Zm-2,8h2v2h-2v-2Zm0-2h2v2h-2v-2Zm0-2h2v2h-2v-2Zm0-2h2v2h-2v-2Zm0-2h2v2h-2v-2Zm-2,8h2v2h-2v-2Zm0-2h2v2h-2v-2Zm0-2h2v2h-2v-2Zm-2,2h2v2h-2v-2Zm0-2h2v2h-2v-2Zm0-2h2v2h-2v-2Zm0-2h2v2h-2v-2Zm2,2h2v2h-2v-2Zm0-2h2v2h-2v-2Zm-10,0h2v2h-2v-2Zm-2,0h2v2h-2v-2Zm-4,0h2v2h-2v-2Zm2,0h2v2h-2v-2Zm4,6h2v2h-2v-2Zm-6,2h2v2h-2v-2Zm0-4h2v2h-2v-2Zm0-2h2v2h-2v-2Zm2,6h2v2h-2v-2Zm2,0h2v2h-2v-2Zm0-2h2v2h-2v-2Zm0-2h2v2h-2v-2Zm-2,2h2v2h-2v-2Zm0-2h2v2h-2v-2Zm0-2h2v2h-2v-2Zm2,0h2v2h-2v-2Zm-4,4h2v2h-2v-2Zm-4-2h2v2h-2v-2Zm-2-2h2v2h-2v-2Zm4,4h2v2h-2v-2Zm0-2h2v2h-2v-2Zm0-2h2v2h-2v-2Zm-4,6h2v2h-2v-2Zm2-2h2v2h-2v-2Zm-2-2h2v2h-2v-2Zm0,2h2v2h-2v-2Zm-2,4h2v2h-2v-2Zm0-8h2v2h-2v-2Zm0,6h2v2h-2v-2Zm0-4h2v2h-2v-2Zm0,2h2v2h-2v-2Zm0-6h2v2h-2v-2Zm22,8h2v2h-2v-2Zm-8,0h2v2h-2v-2Zm6-4h2v2h-2v-2Zm0-2h2v2h-2v-2Zm0-2h2v2h-2v-2Zm-2,0h2v2h-2v-2Zm-2,0h2v2h-2v-2Zm4,6h2v2h-2v-2Zm-4,2h2v2h-2v-2Zm2,0h2v2h-2v-2Zm0-2h2v2h-2v-2Zm0-2h2v2h-2v-2Zm-2,2h2v2h-2v-2Zm0-2h2v2h-2v-2Zm0-2h2v2h-2v-2Zm2,0h2v2h-2v-2Zm2,6h2v2h-2v-2Zm2-10h2v2h-2v-2Zm2,0h2v2h-2v-2Zm-10,0h2v2h-2v-2Zm-2,0h2v2h-2v-2Zm-2,0h2v2h-2v-2Zm10,0h2v2h-2v-2Zm-2,0h2v2h-2v-2Zm-2,0h2v2h-2v-2Zm8,12h2v2h-2v-2Zm-14,0h2v2h-2v-2Zm2,0h2v2h-2v-2Zm10,0h2v2h-2v-2Zm-8,0h2v2h-2v-2Zm2,0h2v2h-2v-2Zm2,0h2v2h-2v-2Zm2,0h2v2h-2v-2Zm-6-14h2v2h-2v-2Zm-2,0h2v2h-2v-2Zm6,0h2v2h-2v-2Zm-2,0h2v2h-2v-2Zm-2-2h2v2h-2v-2Zm-2,0h2v2h-2v-2Zm4,0h2v2h-2v-2Zm-2-2h2v2h-2v-2Zm-2,0h2v2h-2v-2Zm-2,2h2v2h-2v-2Zm0-2h2v2h-2v-2Zm-2,0h2v2h-2v-2Zm-2,0h2v2h-2v-2Zm6,20h2v2h-2v-2Zm2,0h2v2h-2v-2Zm2,0h2v2h-2v-2Zm0,2h2v2h-2v-2Zm-4,0h2v2h-2v-2Zm2,0h2v2h-2v-2Zm2,2h2v2h-2v-2Zm-2,0h2v2h-2v-2Zm2,2h2v2h-2v-2Zm-2,0h2v2h-2v-2Zm2,2h2v2h-2v-2Zm-6-8h2v2h-2v-2Zm0,2h2v2h-2v-2Zm0,2h2v2h-2v-2Zm0,2h2v2h-2v-2Zm0,2h2v2h-2v-2Zm16-10h2v2h-2v-2Zm2,0h2v2h-2v-2Zm0,2h2v2h-2v-2Zm-2,0h2v2h-2v-2Zm2,2h2v2h-2v-2Zm-2,0h2v2h-2v-2Zm2,2h2v2h-2v-2Zm-2,0h2v2h-2v-2Zm2,2h2v2h-2v-2Zm-32-12h2v2h-2v-2Zm2,0h2v2h-2v-2Zm2,6h2v2h-2v-2Zm0,2h2v2h-2v-2Zm-4-6h2v2h-2v-2Zm2,0h2v2h-2v-2Zm2,8h2v2h-2v-2Zm-2-6h2v2h-2v-2Zm0,2h2v2h-2v-2Zm-4-6h2v2h-2v-2Zm0,2h2v2h-2v-2Zm0,2h2v2h-2v-2Zm0,2h2v2h-2v-2Zm0,2h2v2h-2v-2Zm4-12h2v2h-2v-2Zm0,2h2v2h-2v-2Zm0-4h2v2h-2v-2Zm-2,2h2v2h-2v-2Zm0,2h2v2h-2v-2Zm-2,0h2v2h-2v-2Zm10-2h2v2h-2v-2Zm26,6h2v2h-2v-2Z" transform="translate(-997 -340)"/>
</svg>
