<svg xmlns="http://www.w3.org/2000/svg" width="38" height="20" viewBox="0 0 38 20">
  <metadata><?xpacket begin="﻿" id="W5M0MpCehiHzreSzNTczkc9d"?>
<x:xmpmeta xmlns:x="adobe:ns:meta/" x:xmptk="Adobe XMP Core 5.6-c140 79.160451, 2017/05/06-01:08:21        ">
   <rdf:RDF xmlns:rdf="http://www.w3.org/1999/02/22-rdf-syntax-ns#">
      <rdf:Description rdf:about=""/>
   </rdf:RDF>
</x:xmpmeta>
                                                                                                    
                                                                                                    
                                                                                                    
                                                                                                    
                                                                                                    
                                                                                                    
                                                                                                    
                                                                                                    
                                                                                                    
                                                                                                    
                                                                                                    
                                                                                                    
                                                                                                    
                                                                                                    
                                                                                                    
                                                                                                    
                                                                                                    
                                                                                                    
                                                                                                    
                                                                                                    
                           
<?xpacket end="w"?></metadata>
<defs>
    <style>
      .cls-1 {
        fill: #999;
        fill-rule: evenodd;
      }
    </style>
  </defs>
  <path id="fish03" class="cls-1" d="M1101,123h2v2h-2v-2Zm2,0h2v2h-2v-2Zm0-8h2v2h-2v-2Zm0-2h2v2h-2v-2Zm14,8h2v2h-2v-2Zm4-4h2v2h-2v-2Zm-2,2h2v2h-2v-2Zm2-4h2v2h-2v-2Zm-2,0h2v2h-2v-2Zm0,2h2v2h-2v-2Zm-2,2h2v2h-2v-2Zm0-2h2v2h-2v-2Zm2-4h2v2h-2v-2Zm-2,0h2v2h-2v-2Zm0-2h2v2h-2v-2Zm-2,10h2v2h-2v-2Zm0-2h2v2h-2v-2Zm0-2h2v2h-2v-2Zm0-2h2v2h-2v-2Zm0-2h2v2h-2v-2Zm0-2h2v2h-2v-2Zm-2,12h2v2h-2v-2Zm-8,0h2v2h-2v-2Zm8-2h2v2h-2v-2Zm0-4h2v2h-2v-2Zm0-2h2v2h-2v-2Zm0-2h2v2h-2v-2Zm0-2h2v2h-2v-2Zm0-2h2v2h-2v-2Zm-10,0h2v2h-2v-2Zm2,0h2v2h-2v-2Zm-4,0h2v2h-2v-2Zm2,2h2v2h-2v-2Zm-2,0h2v2h-2v-2Zm-4,0h2v2h-2v-2Zm2,0h2v2h-2v-2Zm4,8h2v2h-2v-2Zm0-2h2v2h-2v-2Zm-6,4h2v2h-2v-2Zm0-6h2v2h-2v-2Zm0-2h2v2h-2v-2Zm2,8h2v2h-2v-2Zm2,0h2v2h-2v-2Zm0-4h2v2h-2v-2Zm0-2h2v2h-2v-2Zm0-2h2v2h-2v-2Zm-4,6h2v2h-2v-2Zm0-2h2v2h-2v-2Zm-4-2h2v2h-2v-2Zm-2-2h2v2h-2v-2Zm4,6h2v2h-2v-2Zm0-2h2v2h-2v-2Zm0-2h2v2h-2v-2Zm0-2h2v2h-2v-2Zm-4,6h2v2h-2v-2Zm2-2h2v2h-2v-2Zm-2-2h2v2h-2v-2Zm0,2h2v2h-2v-2Zm-2,4h2v2h-2v-2Zm0-8h2v2h-2v-2Zm0,6h2v2h-2v-2Zm0-4h2v2h-2v-2Zm0,2h2v2h-2v-2Zm0-6h2v2h-2v-2Zm24,8h2v2h-2v-2Zm-12,0h2v2h-2v-2Zm2,2h2v2h-2v-2Zm4,2h2v2h-2v-2Zm2,0h2v2h-2v-2Zm0-8h2v2h-2v-2Zm0-2h2v2h-2v-2Zm2,10h2v2h-2v-2Zm-2-14h2v2h-2v-2Zm2,0h2v2h-2v-2Zm-4,0h2v2h-2v-2Zm2,2h2v2h-2v-2Zm-2,0h2v2h-2v-2Zm2,8h2v2h-2v-2Zm0-2h2v2h-2v-2Zm-2,4h2v2h-2v-2Zm0-4h2v2h-2v-2Zm0-2h2v2h-2v-2Zm0-2h2v2h-2v-2Zm0,6h2v2h-2v-2Zm2,2h2v2h-2v-2Zm-22,0h2v2h-2v-2Zm0-8h2v2h-2v-2Zm0,6h2v2h-2v-2Zm0-4h2v2h-2v-2Zm0,2h2v2h-2v-2Zm0-6h2v2h-2v-2Zm-2,2h2v2h-2v-2Zm0,6h2v2h-2v-2Zm0-4h2v2h-2v-2Zm0,2h2v2h-2v-2Zm26-10h2v2h-2v-2Zm-2,0h2v2h-2v-2Zm-2,0h2v2h-2v-2Zm-2,0h2v2h-2v-2Zm8,18h2v2h-2v-2Zm0,2h-2m0-2h2v2h-2v-2Zm-2,0h2v2h-2v-2Zm6-2h2v2h-2v-2Zm-8,2h2v2h-2v-2Z" transform="translate(-1085 -107)"/>
</svg>
