<svg xmlns="http://www.w3.org/2000/svg" width="32.968" height="31.87" viewBox="0 0 32.968 31.87">
  <metadata><?xpacket begin="﻿" id="W5M0MpCehiHzreSzNTczkc9d"?>
<x:xmpmeta xmlns:x="adobe:ns:meta/" x:xmptk="Adobe XMP Core 5.6-c140 79.160451, 2017/05/06-01:08:21        ">
   <rdf:RDF xmlns:rdf="http://www.w3.org/1999/02/22-rdf-syntax-ns#">
      <rdf:Description rdf:about=""/>
   </rdf:RDF>
</x:xmpmeta>
                                                                                                    
                                                                                                    
                                                                                                    
                                                                                                    
                                                                                                    
                                                                                                    
                                                                                                    
                                                                                                    
                                                                                                    
                                                                                                    
                                                                                                    
                                                                                                    
                                                                                                    
                                                                                                    
                                                                                                    
                                                                                                    
                                                                                                    
                                                                                                    
                                                                                                    
                                                                                                    
                           
<?xpacket end="w"?></metadata>
<defs>
    <style>
      .cls-1 {
        fill: #fff;
        fill-rule: evenodd;
      }
    </style>
  </defs>
  <path id="ftr_github" class="cls-1" d="M640.422,3937.97a16.32,16.32,0,0,0-5.211,31.84,0.83,0.83,0,0,0,1.126-.79c0-.39-0.015-1.41-0.023-2.78-4.586.99-5.554-2.19-5.554-2.19a4.321,4.321,0,0,0-1.83-2.39c-1.5-1.01.113-.99,0.113-0.99a3.442,3.442,0,0,1,2.525,1.68,3.526,3.526,0,0,0,4.8,1.36,3.434,3.434,0,0,1,1.047-2.18c-3.662-.42-7.511-1.82-7.511-8.08a6.275,6.275,0,0,1,1.7-4.38,5.81,5.81,0,0,1,.161-4.32s1.385-.44,4.534,1.67a15.766,15.766,0,0,1,8.256,0c3.147-2.11,4.529-1.67,4.529-1.67a5.8,5.8,0,0,1,.164,4.32,6.264,6.264,0,0,1,1.7,4.38c0,6.28-3.855,7.66-7.528,8.06a3.891,3.891,0,0,1,1.119,3.03c0,2.18-.02,3.94-0.02,4.48a0.825,0.825,0,0,0,1.134.79A16.322,16.322,0,0,0,640.422,3937.97Z" transform="translate(-623.938 -3937.97)"/>
</svg>
