<svg xmlns="http://www.w3.org/2000/svg" width="32.969" height="33" viewBox="0 0 32.969 33">
  <metadata><?xpacket begin="﻿" id="W5M0MpCehiHzreSzNTczkc9d"?>
<x:xmpmeta xmlns:x="adobe:ns:meta/" x:xmptk="Adobe XMP Core 5.6-c140 79.160451, 2017/05/06-01:08:21        ">
   <rdf:RDF xmlns:rdf="http://www.w3.org/1999/02/22-rdf-syntax-ns#">
      <rdf:Description rdf:about=""/>
   </rdf:RDF>
</x:xmpmeta>
                                                                                                    
                                                                                                    
                                                                                                    
                                                                                                    
                                                                                                    
                                                                                                    
                                                                                                    
                                                                                                    
                                                                                                    
                                                                                                    
                                                                                                    
                                                                                                    
                                                                                                    
                                                                                                    
                                                                                                    
                                                                                                    
                                                                                                    
                                                                                                    
                                                                                                    
                                                                                                    
                           
<?xpacket end="w"?></metadata>
<defs>
    <style>
      .cls-1 {
        fill: #fff;
        fill-rule: evenodd;
      }
    </style>
  </defs>
  <path id="ftr_medium" class="cls-1" d="M885.387,3938.42a16.49,16.49,0,1,0,16.487,16.49A16.487,16.487,0,0,0,885.387,3938.42Zm10.639,8.4-1.7,1.63a0.5,0.5,0,0,0-.189.48v11.96a0.5,0.5,0,0,0,.189.48l1.659,1.63v0.36h-8.344V3963l1.718-1.67a0.491,0.491,0,0,0,.169-0.48v-9.67l-4.778,12.14h-0.646l-5.563-12.14v8.13a1.13,1.13,0,0,0,.308.94l2.235,2.71v0.36h-6.338v-0.36l2.235-2.71a1.1,1.1,0,0,0,.288-0.94v-9.4a0.838,0.838,0,0,0-.268-0.7l-1.987-2.39v-0.36h6.169l4.769,10.46,4.192-10.46h5.881v0.36Z" transform="translate(-868.906 -3938.41)"/>
</svg>
