<svg id="ftr_logo" xmlns="http://www.w3.org/2000/svg" width="138.874" height="81.66" viewBox="0 0 138.874 81.66">
  <metadata><?xpacket begin="﻿" id="W5M0MpCehiHzreSzNTczkc9d"?>
<x:xmpmeta xmlns:x="adobe:ns:meta/" x:xmptk="Adobe XMP Core 5.6-c140 79.160451, 2017/05/06-01:08:21        ">
   <rdf:RDF xmlns:rdf="http://www.w3.org/1999/02/22-rdf-syntax-ns#">
      <rdf:Description rdf:about=""/>
   </rdf:RDF>
</x:xmpmeta>
                                                                                                    
                                                                                                    
                                                                                                    
                                                                                                    
                                                                                                    
                                                                                                    
                                                                                                    
                                                                                                    
                                                                                                    
                                                                                                    
                                                                                                    
                                                                                                    
                                                                                                    
                                                                                                    
                                                                                                    
                                                                                                    
                                                                                                    
                                                                                                    
                                                                                                    
                                                                                                    
                           
<?xpacket end="w"?></metadata>
<defs>
    <style>
      .cls-1 {
        fill: #fff;
        fill-rule: evenodd;
      }
    </style>
  </defs>
  <g id="name">
    <path id="合同会社_ピクセルグラム" data-name="合同会社 ピクセルグラム" class="cls-1" d="M583.876,4142.59c0.11,0,.12-0.01.12-0.11v-0.38h4.01v0.33c0,0.1.01,0.11,0.11,0.11h0.85c0.11,0,.12-0.01.12-0.11,0-.05-0.02-0.32-0.02-1.76v-0.98c0-.71.02-1,0.02-1.06,0-.1-0.01-0.11-0.12-0.11-0.06,0-.41.02-1.37,0.02h-3.2c-0.96,0-1.31-.02-1.37-0.02-0.1,0-.11.01-0.11,0.11,0,0.06.02,0.35,0.02,1.21v0.86c0,1.45-.02,1.72-0.02,1.78,0,0.1.01,0.11,0.11,0.11h0.85Zm0.12-3.14h4.01v1.74H584v-1.74Zm-0.02-1.97c0,0.1.01,0.11,0.11,0.11,0.07,0,.33-0.02,1.13-0.02h1.55c0.8,0,1.07.02,1.13,0.02,0.1,0,.11-0.01.11-0.11v-0.7a10.891,10.891,0,0,0,1.95,1.12,0.6,0.6,0,0,0,.24.09c0.08,0,.12-0.07.18-0.26a2.659,2.659,0,0,1,.42-0.76,9.024,9.024,0,0,1-4.27-3.05,0.27,0.27,0,0,1,.08-0.07,0.17,0.17,0,0,0,.1-0.15c0-.09-0.06-0.12-0.18-0.16-0.29-.07-0.66-0.13-1.05-0.19a3.129,3.129,0,0,1-.39.71,8.9,8.9,0,0,1-3.85,3.06,2.424,2.424,0,0,1,.47.67,0.308,0.308,0,0,0,.19.25,0.725,0.725,0,0,0,.23-0.1,12.334,12.334,0,0,0,1.85-1.18v0.72Zm1.24-.84c-0.68,0-.96-0.01-1.08-0.02a9.885,9.885,0,0,0,1.82-1.89,8.943,8.943,0,0,0,1.84,1.9c-0.14,0-.44.01-1.03,0.01h-1.55Zm15.53-.52c0-1.36.02-2.07,0.02-2.14,0-.1-0.01-0.11-0.11-0.11-0.07,0-.4.02-1.33,0.02H593.9c-0.93,0-1.26-.02-1.33-0.02-0.1,0-.11.01-0.11,0.11,0,0.07.02,0.75,0.02,2.11v4.3c0,1.36-.02,2.02-0.02,2.09,0,0.1.01,0.11,0.11,0.11h0.87c0.11,0,.12-0.01.12-0.11,0-.06-0.02-0.65-0.02-1.81v-5.81h6.15v6.27c0,0.24-.1.34-0.39,0.34a9.287,9.287,0,0,1-1.02-.06,2.966,2.966,0,0,1,.28.79c0.07,0.33.07,0.32,0.38,0.32a2.474,2.474,0,0,0,1.51-.27,1.067,1.067,0,0,0,.32-0.82c0-.34-0.02-0.86-0.02-1.73v-3.58Zm-5.23,5.11c0.1,0,.11-0.01.11-0.11v-0.53h1.9v0.32c0,0.11.01,0.12,0.11,0.12h0.76c0.1,0,.11-0.01.11-0.12,0-.06-0.02-0.3-0.02-1.63v-0.84c0-.62.02-0.88,0.02-0.94,0-.1-0.01-0.11-0.11-0.11-0.07,0-.32.02-1.11,0.02h-1.43c-0.77,0-1.03-.02-1.1-0.02-0.1,0-.11.01-0.11,0.11,0,0.07.02,0.33,0.02,1.12v0.82c0,1.36-.02,1.61-0.02,1.68,0,0.1.01,0.11,0.11,0.11h0.76Zm0.11-2.94h1.9v1.42h-1.9v-1.42Zm2.01-1.71c0.88,0,1.19.02,1.25,0.02,0.1,0,.11-0.01.11-0.12v-0.74c0-.1-0.01-0.11-0.11-0.11-0.06,0-.37.02-1.25,0.02h-2.1c-0.88,0-1.18-.02-1.25-0.02-0.1,0-.11.01-0.11,0.11v0.74c0,0.11.01,0.12,0.11,0.12,0.07,0,.37-0.02,1.25-0.02h2.1Zm7.95,2.77a16.154,16.154,0,0,1-.88,1.94c-0.11,0-.22.01-0.32,0.01a7.929,7.929,0,0,1-1.09,0c0.06,0.35.12,0.7,0.21,1.03a0.149,0.149,0,0,0,.14.14,0.252,0.252,0,0,0,.17-0.06,0.888,0.888,0,0,1,.36-0.09c1.7-.13,3.74-0.3,5.4-0.51,0.16,0.24.33,0.5,0.5,0.78a0.1,0.1,0,0,0,.08.07,0.256,0.256,0,0,0,.12-0.06l0.69-.45c0.1-.07.1-0.11,0.05-0.19a17.648,17.648,0,0,0-1.86-2.32c-0.07-.07-0.1-0.08-0.21-0.02l-0.64.33c-0.12.06-.13,0.1-0.06,0.18,0.27,0.29.5,0.57,0.73,0.85-0.95.1-2.04,0.19-3.08,0.25a18.722,18.722,0,0,0,.89-1.88h3.09c0.94,0,1.26.02,1.32,0.02,0.11,0,.12-0.01.12-0.11v-0.75c0-.1-0.01-0.11-0.12-0.11-0.06,0-.38.02-1.32,0.02h-5.33c-0.94,0-1.26-.02-1.32-0.02-0.11,0-.12.01-0.12,0.11v0.75c0,0.1.01,0.11,0.12,0.11,0.06,0,.38-0.02,1.32-0.02h1.04Zm-0.4-1.95c0,0.1.01,0.11,0.11,0.11,0.06,0,.33-0.02,1.13-0.02h1.54c0.8,0,1.07.02,1.13,0.02,0.1,0,.11-0.01.11-0.11v-0.74a11.017,11.017,0,0,0,1.91,1.06,0.688,0.688,0,0,0,.23.08c0.07,0,.1-0.07.17-0.25a2.97,2.97,0,0,1,.43-0.75,9.005,9.005,0,0,1-4.23-2.86,0.851,0.851,0,0,1,.14-0.09,0.165,0.165,0,0,0,.1-0.16c0-.07-0.06-0.11-0.18-0.14a7.664,7.664,0,0,0-1.08-.21,2.982,2.982,0,0,1-.35.65,8.347,8.347,0,0,1-3.84,2.91,2.338,2.338,0,0,1,.45.66c0.08,0.18.11,0.25,0.18,0.25a0.655,0.655,0,0,0,.24-0.09,11.7,11.7,0,0,0,1.81-1.08v0.76Zm1.24-.84c-0.73,0-1.01-.01-1.1-0.02a9.331,9.331,0,0,0,1.83-1.83,9.112,9.112,0,0,0,1.89,1.83c-0.11.01-.41,0.02-1.08,0.02h-1.54Zm14.47,5.7c0.95,0,1.27.02,1.33,0.02,0.11,0,.12-0.01.12-0.11v-0.79c0-.1-0.01-0.11-0.12-0.11-0.06,0-.38.02-1.33,0.02h-0.91v-3.74h0.63c0.89,0,1.2.01,1.26,0.01,0.1,0,.11,0,0.11-0.1v-0.79c0-.1-0.01-0.1-0.11-0.1-0.06,0-.37.01-1.26,0.01h-0.63v-1.62a3.266,3.266,0,0,1,.08-1.1,0.406,0.406,0,0,0,.05-0.21,0.155,0.155,0,0,0-.16-0.1c-0.35-.04-0.73-0.06-1.11-0.07a9.048,9.048,0,0,1,.08,1.51v1.59h-0.45c-0.89,0-1.2-.01-1.26-0.01-0.09,0-.1,0-0.1.1v0.79c0,0.1.01,0.1,0.1,0.1,0.06,0,.37-0.01,1.26-0.01h0.45v3.74h-0.84c-0.95,0-1.28-.02-1.34-0.02-0.1,0-.11.01-0.11,0.11v0.79c0,0.1.01,0.11,0.11,0.11,0.06,0,.39-0.02,1.34-0.02h2.81Zm-6.15-.91c0,0.74-.02,1.12-0.02,1.18,0,0.1.01,0.11,0.12,0.11h0.8c0.11,0,.12-0.01.12-0.11,0-.05-0.02-0.44-0.02-1.18v-2.81a7.465,7.465,0,0,0,.86.93,0.365,0.365,0,0,0,.2.12,0.284,0.284,0,0,0,.19-0.22,2.4,2.4,0,0,1,.4-0.65,5.7,5.7,0,0,1-1.47-1.17,10.107,10.107,0,0,0,.85-1.46,1.014,1.014,0,0,1,.23-0.29,0.2,0.2,0,0,0,.1-0.16,1.439,1.439,0,0,0-.64-0.62,0.3,0.3,0,0,0-.11.04,0.336,0.336,0,0,1-.19.04h-0.42v-0.45a2.121,2.121,0,0,1,.06-0.8,0.469,0.469,0,0,0,.06-0.21,0.157,0.157,0,0,0-.16-0.1c-0.36-.04-0.66-0.06-1.04-0.07a6.163,6.163,0,0,1,.08,1.22v0.41h-0.19c-0.76,0-1-.02-1.06-0.02-0.1,0-.11.01-0.11,0.11v0.74c0,0.1.01,0.11,0.11,0.11,0.06,0,.3-0.02,1.06-0.02h1.13a6.906,6.906,0,0,1-2.61,2.96,2.761,2.761,0,0,1,.35.71,0.292,0.292,0,0,0,.16.23,0.464,0.464,0,0,0,.21-0.13,10.448,10.448,0,0,0,.95-0.83v2.39Zm14.06-5.4a2.28,2.28,0,0,1,.1-0.9c0.09-.15.13-0.32-0.09-0.37a8.561,8.561,0,0,0-1.26-.2,10.386,10.386,0,0,1,.1,1.83V4140a1.4,1.4,0,0,0,.71,1.5,4.924,4.924,0,0,0,1.9.27,20,20,0,0,0,2.97-.18c0.15-.01.21-0.05,0.21-0.18,0-.21-0.03-0.59-0.06-0.87-0.01-.12-0.03-0.16-0.18-0.14a17.645,17.645,0,0,1-2.82.23,5.124,5.124,0,0,1-1.26-.11c-0.26-.08-0.33-0.24-0.33-0.71v-1.33a26.235,26.235,0,0,0,3.43-1.24,5.311,5.311,0,0,1,.83-0.33c0.2-.05.21-0.22,0.09-0.36a5.737,5.737,0,0,0-.83-0.9,3.1,3.1,0,0,1-1.07.72,18.784,18.784,0,0,1-2.44.97v-1.39Zm5.29-1.91a1.055,1.055,0,0,0-1.08,1.07A1.08,1.08,0,1,0,634.1,4134.04Zm0,0.48a0.59,0.59,0,1,1-.59.59A0.573,0.573,0,0,1,634.1,4134.52Zm7.15,0.93c0.12-.18.22-0.33,0.33-0.5a1.085,1.085,0,0,1,.25-0.27,0.2,0.2,0,0,0,.11-0.17,0.209,0.209,0,0,0-.1-0.17,4.919,4.919,0,0,0-1.17-.53,4.271,4.271,0,0,1-.59,1.35,11.861,11.861,0,0,1-2.69,2.97,2.713,2.713,0,0,1,.96.43,0.24,0.24,0,0,0,.15.06,0.311,0.311,0,0,0,.21-0.11,13.927,13.927,0,0,0,1.89-2.05l2.42-.07a10.188,10.188,0,0,1-1.85,2.84,11.52,11.52,0,0,1-3.33,2.55,2.632,2.632,0,0,1,.95.46,0.352,0.352,0,0,0,.23.11,0.27,0.27,0,0,0,.16-0.05,12.7,12.7,0,0,0,3.04-2.49,13.783,13.783,0,0,0,1.98-3.09,1.2,1.2,0,0,1,.33-0.43,0.288,0.288,0,0,0,.12-0.21,0.324,0.324,0,0,0-.13-0.23,4.613,4.613,0,0,0-.68-0.54,0.29,0.29,0,0,0-.16-0.06,0.2,0.2,0,0,0-.13.04,0.928,0.928,0,0,1-.5.12Zm8.87,1.47-0.85.21a15.371,15.371,0,0,1-1.88.35,7.481,7.481,0,0,0,.4,1.02,0.2,0.2,0,0,0,.16.16,0.415,0.415,0,0,0,.12-0.04,10.674,10.674,0,0,1,1.41-.43l0.64-.17v2.02c0,1.35.59,1.76,2.5,1.76a19.629,19.629,0,0,0,2.39-.12c0.15-.01.21-0.05,0.21-0.15a4.794,4.794,0,0,0-.09-0.84c-0.02-.15-0.03-0.22-0.17-0.2a15,15,0,0,1-2.42.22c-1.08,0-1.26-.17-1.26-0.7v-2.27l2.75-.7a8.323,8.323,0,0,1-1.63,2,3.407,3.407,0,0,1,.83.38,0.32,0.32,0,0,0,.19.07,0.4,0.4,0,0,0,.26-0.15,10.516,10.516,0,0,0,1.59-2.16,1.3,1.3,0,0,1,.31-0.39,0.272,0.272,0,0,0,.13-0.2,0.259,0.259,0,0,0-.09-0.18,3.916,3.916,0,0,0-.74-0.65,0.216,0.216,0,0,0-.14-0.06,0.238,0.238,0,0,0-.14.06,1.406,1.406,0,0,1-.71.29l-2.61.61v-1.03a1.8,1.8,0,0,1,.13-0.89,0.319,0.319,0,0,0,.06-0.16,0.194,0.194,0,0,0-.19-0.18,7.172,7.172,0,0,0-1.29-.2,8.149,8.149,0,0,1,.13,1.76v0.96Zm13.33-.53a2.767,2.767,0,0,1,.09-1.11,0.64,0.64,0,0,0,.08-0.25,0.182,0.182,0,0,0-.18-0.17,9.543,9.543,0,0,0-1.25-.21,7.985,7.985,0,0,1,.1,1.74v3.13a1.706,1.706,0,0,1-.06.76,0.307,0.307,0,0,0-.04.15,0.4,0.4,0,0,0,.09.21,2.888,2.888,0,0,0,.6.61,0.426,0.426,0,0,0,.21.08,0.318,0.318,0,0,0,.2-0.08,3.321,3.321,0,0,1,.29-0.21,16.607,16.607,0,0,0,1.78-1.2,12.64,12.64,0,0,0,1.48-1.31,0.379,0.379,0,0,0,.15-0.25,0.5,0.5,0,0,0-.06-0.17,2.883,2.883,0,0,1-.31-1.01,9.6,9.6,0,0,1-1.75,1.7,10.166,10.166,0,0,1-1.42.93v-3.34Zm-3.49-1.11a2.69,2.69,0,0,1,.1.84,6.515,6.515,0,0,1-.42,2.83,4.964,4.964,0,0,1-1.66,1.99,3.544,3.544,0,0,1,.85.42,0.34,0.34,0,0,0,.19.08,0.453,0.453,0,0,0,.26-0.13,5.151,5.151,0,0,0,1.42-1.88,7.484,7.484,0,0,0,.54-2.94,1.443,1.443,0,0,1,.12-0.68,0.2,0.2,0,0,0-.13-0.31A8.085,8.085,0,0,0,659.956,4135.28Zm12.88,0.26c0.12-.18.22-0.33,0.33-0.5a1.085,1.085,0,0,1,.25-0.27,0.2,0.2,0,0,0,.11-0.17,0.209,0.209,0,0,0-.1-0.17,4.919,4.919,0,0,0-1.17-.53,4.271,4.271,0,0,1-.59,1.35,11.861,11.861,0,0,1-2.69,2.97,2.713,2.713,0,0,1,.96.43,0.24,0.24,0,0,0,.15.06,0.311,0.311,0,0,0,.21-0.11,13.927,13.927,0,0,0,1.89-2.05l2.42-.07a10.188,10.188,0,0,1-1.85,2.84,11.52,11.52,0,0,1-3.33,2.55,2.632,2.632,0,0,1,.95.46,0.352,0.352,0,0,0,.23.11,0.27,0.27,0,0,0,.16-0.05,12.7,12.7,0,0,0,3.04-2.49,13.783,13.783,0,0,0,1.98-3.09,1.2,1.2,0,0,1,.33-0.43,0.288,0.288,0,0,0,.12-0.21,0.324,0.324,0,0,0-.13-0.23,4.613,4.613,0,0,0-.68-0.54,0.29,0.29,0,0,0-.16-0.06,0.2,0.2,0,0,0-.13.04,0.928,0.928,0,0,1-.5.12Zm2.51-1.02a4.962,4.962,0,0,1,1.01,1.16,0.1,0.1,0,0,0,.17.03l0.42-.31a0.1,0.1,0,0,0,.03-0.16,4.6,4.6,0,0,0-.95-1.07,0.1,0.1,0,0,0-.15-0.02Zm0.92-.66a4.731,4.731,0,0,1,1,1.15,0.1,0.1,0,0,0,.17.03l0.4-.31a0.116,0.116,0,0,0,.03-0.18,4.176,4.176,0,0,0-.95-1.03,0.1,0.1,0,0,0-.15-0.02Zm8.37,1.44c0.61,0,1.08.02,1.41,0.02,0.15,0.01.18-.03,0.18-0.2a5.077,5.077,0,0,0,0-.78c0-.11-0.03-0.16-0.12-0.16-0.39.02-.92,0.05-1.57,0.05h-1.8a13.777,13.777,0,0,1-1.64-.07,8.716,8.716,0,0,0,.05.96c0.01,0.16.04,0.22,0.14,0.22,0.42-.03.92-0.04,1.37-0.04h1.98Zm0.76,2.14a7.8,7.8,0,0,1-4.2,4.17,2.931,2.931,0,0,1,.93.52,0.326,0.326,0,0,0,.22.12,0.48,0.48,0,0,0,.2-0.07,8.741,8.741,0,0,0,4.08-4.42,1.145,1.145,0,0,1,.34-0.47,0.241,0.241,0,0,0,.11-0.19,0.3,0.3,0,0,0-.1-0.21,5.9,5.9,0,0,0-.67-0.62,0.257,0.257,0,0,0-.15-0.07,0.215,0.215,0,0,0-.13.06,1.1,1.1,0,0,1-.53.11h-3.43a17.7,17.7,0,0,1-1.84-.08,7.581,7.581,0,0,0,.11,1.01c0.02,0.13.06,0.19,0.15,0.19,0.5-.03,1-0.04,1.5-0.04Zm8.04-3.46a5.332,5.332,0,0,1-.29,1.37c-0.52,1.68-1.04,3.16-1.75,4.95-0.4.01-.82,0.02-1.22-0.01a9.317,9.317,0,0,0,.35,1.29,0.186,0.186,0,0,0,.29.1,3.367,3.367,0,0,1,1.17-.24c1.63-.17,3.15-0.34,4.75-0.58,0.12,0.26.23,0.52,0.35,0.8a0.167,0.167,0,0,0,.14.14,0.266,0.266,0,0,0,.12-0.03,5.036,5.036,0,0,0,.76-0.41,0.207,0.207,0,0,0,.13-0.17,0.242,0.242,0,0,0-.04-0.13,14.062,14.062,0,0,0-2.02-3.27,0.167,0.167,0,0,0-.24-0.06c-0.28.15-.57,0.32-0.87,0.48a9.968,9.968,0,0,1,1.11,1.6c-1.12.17-1.96,0.25-3.5,0.38,0.63-1.5,1.16-2.97,1.72-4.5a3.213,3.213,0,0,1,.41-0.83,0.336,0.336,0,0,0,.1-0.2,0.224,0.224,0,0,0-.12-0.16A5.429,5.429,0,0,0,693.436,4133.98Z" transform="translate(-570.438 -4061)"/>
    <path id="Pixelgram_LLC." data-name="Pixelgram LLC." class="cls-1" d="M572.314,4120.93h2.618a4.278,4.278,0,0,0,3-.97,3.469,3.469,0,0,0,1.062-2.72,3.351,3.351,0,0,0-1.054-2.68,4.454,4.454,0,0,0-3.009-.91h-4.488v11.34h1.87v-4.06Zm0-1.6v-4.1h2.38a2.434,2.434,0,0,1,1.845.56,2.2,2.2,0,0,1,.5,1.51,2.077,2.077,0,0,1-.5,1.47,2.434,2.434,0,0,1-1.845.56h-2.38Zm10.54-4.24h1.9v-1.61h-1.9v1.61Zm0.051,9.9h1.8l-0.017-8.48h-1.785v8.48Zm14.467-8.54h-1.955l-2.125,2.96-2.159-2.96h-2.159l3.111,4.29-3.2,4.25h1.938L593,4122l2.159,2.99h2.176l-3.128-4.3Zm7.667-.2a3.729,3.729,0,0,0-2.924,1.16,4.909,4.909,0,0,0-1.037,3.36,4.651,4.651,0,0,0,1.1,3.31,3.927,3.927,0,0,0,3.017,1.16,7.643,7.643,0,0,0,3.043-.57V4123a5.729,5.729,0,0,1-1.258.5,5.657,5.657,0,0,1-1.5.2,2.5,2.5,0,0,1-1.861-.66,2.857,2.857,0,0,1-.74-1.91h5.984a6.013,6.013,0,0,0-.909-3.6,3.365,3.365,0,0,0-2.916-1.28h0Zm-0.051,1.46a1.955,1.955,0,0,1,1.445.5,2.652,2.652,0,0,1,.612,1.59h-4.131a2.634,2.634,0,0,1,.663-1.61,1.976,1.976,0,0,1,1.411-.48h0Zm9.4,7.28v-11.77h-1.768v11.77h1.768Zm8.262-8.72a4.935,4.935,0,0,0-3.264,1.02c-0.816.68-1.224,1.9-1.224,3.67a4.568,4.568,0,0,0,.978,3.14,3.674,3.674,0,0,0,2.847,1.14,3.883,3.883,0,0,0,1.148-.17,5.145,5.145,0,0,0,1.079-.44v0.58a1.709,1.709,0,0,1-.493,1.28,2.626,2.626,0,0,1-1.853.49,7.56,7.56,0,0,1-2.618-.53v1.63a7.794,7.794,0,0,0,2.754.46,4.2,4.2,0,0,0,3.026-.92,3.146,3.146,0,0,0,.952-2.38v-6.76a1.8,1.8,0,0,0-.943-1.65,4.559,4.559,0,0,0-2.389-.56h0Zm-2.669,4.64a4.083,4.083,0,0,1,.561-2.3,2.255,2.255,0,0,1,2.006-.83,2.757,2.757,0,0,1,1.216.22,0.83,0.83,0,0,1,.45.82v4.47a3.718,3.718,0,0,1-1.938.49,2.02,2.02,0,0,1-1.717-.77,3.453,3.453,0,0,1-.578-2.1h0Zm10.166,4.08h1.785v-6.97a12.758,12.758,0,0,1,2.108-.17,7.5,7.5,0,0,1,1.139.07v-1.43a2.692,2.692,0,0,0-1.156-.22,7.758,7.758,0,0,0-2.261.34,6.851,6.851,0,0,0-1.615.63v7.75Zm12.172-8.72a8.93,8.93,0,0,0-1.878.2,4.6,4.6,0,0,0-1.386.51v1.67a3.546,3.546,0,0,1,1.241-.64,5.178,5.178,0,0,1,1.5-.23c1.394,0,2.091.58,2.091,1.73v0.82a4.864,4.864,0,0,0-2.55-.61,3.365,3.365,0,0,0-2.286.7,2.6,2.6,0,0,0-.808,2.09,2.29,2.29,0,0,0,.986,2.1,4.56,4.56,0,0,0,2.5.63,7.434,7.434,0,0,0,2.907-.45,1.608,1.608,0,0,0,1.02-1.6v-4.08a2.411,2.411,0,0,0-.96-2.17,4.072,4.072,0,0,0-2.372-.67h0Zm-0.391,7.58a2.474,2.474,0,0,1-1.351-.36,1.177,1.177,0,0,1-.57-1.07,1.157,1.157,0,0,1,.5-1.02,2.594,2.594,0,0,1,1.47-.34,4.749,4.749,0,0,1,1.9.38v1.64a0.609,0.609,0,0,1-.442.62,5.279,5.279,0,0,1-1.513.15h0Zm17.255-7.58a6.653,6.653,0,0,0-2.856.64,3.968,3.968,0,0,0-2.482-.64,9.814,9.814,0,0,0-2.1.24,8.224,8.224,0,0,0-1.862.64v7.84h1.785v-6.87a5.336,5.336,0,0,1,1.8-.32c1.349,0,2.023.59,2.023,1.78v5.41h1.785v-5.65a4.341,4.341,0,0,0-.119-1.08,3.058,3.058,0,0,1,1.649-.46c1.349,0,2.023.59,2.023,1.78v5.41h1.785v-5.65a2.97,2.97,0,0,0-.824-2.32,3.8,3.8,0,0,0-2.61-.75h0Zm14.263,8.72h7.31v-1.6h-5.423v-9.74h-1.887v11.34Zm10.829,0h7.31v-1.6h-5.423v-9.74h-1.887v11.34Zm15.691,0.17a8.186,8.186,0,0,0,1.811-.21,8.091,8.091,0,0,0,1.708-.61v-1.68a6.322,6.322,0,0,1-3.23.92,3.63,3.63,0,0,1-2.839-1,4.777,4.777,0,0,1-.9-3.25,4.919,4.919,0,0,1,.893-3.28,3.526,3.526,0,0,1,2.8-1.02,6.4,6.4,0,0,1,3.281.95v-1.68a8.146,8.146,0,0,0-3.519-.84q-5.389,0-5.389,5.85t5.389,5.85h0Zm7.327-.17h2.023V4123h-2.023v1.99Z" transform="translate(-570.438 -4061)"/>
  </g>
  <path id="logo" class="cls-1" d="M659,4061H634.933v24.07H659V4061Zm0,25H635l-0.067,13H659v-13Zm-25-25H621v9h13v-9Zm0,10H621v28h13v-28Z" transform="translate(-570.438 -4061)"/>
</svg>
