<svg id="logo_hdr" xmlns="http://www.w3.org/2000/svg" width="103.125" height="20" viewBox="0 0 103.125 20">
  <metadata><?xpacket begin="﻿" id="W5M0MpCehiHzreSzNTczkc9d"?>
<x:xmpmeta xmlns:x="adobe:ns:meta/" x:xmptk="Adobe XMP Core 5.6-c140 79.160451, 2017/05/06-01:08:21        ">
   <rdf:RDF xmlns:rdf="http://www.w3.org/1999/02/22-rdf-syntax-ns#">
      <rdf:Description rdf:about=""/>
   </rdf:RDF>
</x:xmpmeta>
                                                                                                    
                                                                                                    
                                                                                                    
                                                                                                    
                                                                                                    
                                                                                                    
                                                                                                    
                                                                                                    
                                                                                                    
                                                                                                    
                                                                                                    
                                                                                                    
                                                                                                    
                                                                                                    
                                                                                                    
                                                                                                    
                                                                                                    
                                                                                                    
                                                                                                    
                                                                                                    
                           
<?xpacket end="w"?></metadata>
<defs>
    <style>
      .cls-1 {
        fill: #4f4f4f;
      }

      .cls-1, .cls-2 {
        fill-rule: evenodd;
      }

      .cls-2 {
        fill: #7f7f7f;
      }
    </style>
  </defs>
  <path id="Pixelgram" class="cls-1" d="M188.747,41.642H190.9a3.556,3.556,0,0,0,2.471-.791,2.871,2.871,0,0,0,.875-2.247,2.753,2.753,0,0,0-.868-2.2,3.681,3.681,0,0,0-2.478-.749h-3.7v9.338h1.54V41.642Zm0-1.316V36.952h1.96a1.987,1.987,0,0,1,1.519.462,1.8,1.8,0,0,1,.413,1.246,1.729,1.729,0,0,1-.413,1.211,2.007,2.007,0,0,1-1.519.455h-1.96Zm8.68-3.486H199V35.51h-1.568v1.33Zm0.042,8.148h1.484L198.939,38h-1.47v6.986Zm11.914-7.028h-1.61l-1.75,2.436-1.778-2.436h-1.778l2.562,3.528-2.632,3.5h1.6l1.792-2.464,1.778,2.464h1.792l-2.576-3.542Zm6.314-.168a3.056,3.056,0,0,0-2.408.959,4.029,4.029,0,0,0-.854,2.765,3.82,3.82,0,0,0,.9,2.723,3.247,3.247,0,0,0,2.485.959,6.22,6.22,0,0,0,2.506-.476V43.35a4.569,4.569,0,0,1-1.036.413,4.644,4.644,0,0,1-1.232.161,2.072,2.072,0,0,1-1.533-.539,2.375,2.375,0,0,1-.609-1.575h4.928a4.925,4.925,0,0,0-.749-2.961,2.761,2.761,0,0,0-2.4-1.057h0ZM215.655,39a1.6,1.6,0,0,1,1.19.413,2.158,2.158,0,0,1,.5,1.309h-3.4a2.178,2.178,0,0,1,.546-1.33A1.637,1.637,0,0,1,215.655,39h0Zm7.742,5.992V35.3h-1.456v9.688H223.4Zm6.8-7.182a4.064,4.064,0,0,0-2.688.84,3.775,3.775,0,0,0-1.008,3.024,3.782,3.782,0,0,0,.805,2.59,3.044,3.044,0,0,0,2.345.938,3.39,3.39,0,0,0,.945-0.14,4.324,4.324,0,0,0,.889-0.364V45.17a1.414,1.414,0,0,1-.406,1.057,2.194,2.194,0,0,1-1.526.4,6.2,6.2,0,0,1-2.156-.434v1.344a6.493,6.493,0,0,0,2.268.378,3.491,3.491,0,0,0,2.492-.756,2.6,2.6,0,0,0,.784-1.96V39.626a1.487,1.487,0,0,0-.777-1.358,3.8,3.8,0,0,0-1.967-.462h0ZM228,41.628a3.35,3.35,0,0,1,.462-1.89,1.847,1.847,0,0,1,1.652-.686,2.3,2.3,0,0,1,1,.182,0.68,0.68,0,0,1,.371.672v3.682a3.072,3.072,0,0,1-1.6.406,1.653,1.653,0,0,1-1.414-.637A2.828,2.828,0,0,1,228,41.628h0Zm8.372,3.36h1.47v-5.74a10.231,10.231,0,0,1,1.736-.14,6.766,6.766,0,0,1,.938.056V37.988a2.252,2.252,0,0,0-.952-0.182,6.484,6.484,0,0,0-1.862.28,6.222,6.222,0,0,0-1.33.518v6.384ZM246.4,37.806a7.045,7.045,0,0,0-1.547.168,3.625,3.625,0,0,0-1.141.42v1.372a2.932,2.932,0,0,1,1.022-.525,4.181,4.181,0,0,1,1.232-.189q1.722,0,1.722,1.428v0.672a4.022,4.022,0,0,0-2.1-.5,2.8,2.8,0,0,0-1.883.574,2.153,2.153,0,0,0-.665,1.722,1.9,1.9,0,0,0,.812,1.736,3.761,3.761,0,0,0,2.058.518,6.119,6.119,0,0,0,2.394-.371,1.33,1.33,0,0,0,.84-1.323v-3.36a1.981,1.981,0,0,0-.791-1.785,3.367,3.367,0,0,0-1.953-.553h0Zm-0.322,6.244a2.054,2.054,0,0,1-1.113-.294,0.972,0.972,0,0,1-.469-0.882,0.948,0.948,0,0,1,.413-0.84,2.161,2.161,0,0,1,1.211-.28,3.921,3.921,0,0,1,1.568.308V43.42a0.492,0.492,0,0,1-.364.5,4.266,4.266,0,0,1-1.246.126h0Zm14.21-6.244a5.478,5.478,0,0,0-2.352.532,3.263,3.263,0,0,0-2.044-.532,7.89,7.89,0,0,0-1.729.2,6.532,6.532,0,0,0-1.533.525v6.454h1.47V39.332a4.3,4.3,0,0,1,1.484-.266,1.392,1.392,0,0,1,1.666,1.47v4.452h1.47V40.34a3.619,3.619,0,0,0-.1-0.9,2.546,2.546,0,0,1,1.358-.378,1.392,1.392,0,0,1,1.666,1.47v4.452h1.47V40.34a2.466,2.466,0,0,0-.679-1.918,3.136,3.136,0,0,0-2.149-.616h0Z" transform="translate(-160 -31)"/>
  <path id="logo" class="cls-2" d="M180,31H167V44h13V31Zm0,14H167v6h13V45ZM166,31h-6v4h6V31Zm0,5h-6V51h6V36Z" transform="translate(-160 -31)"/>
</svg>
