<svg id="about_name" xmlns="http://www.w3.org/2000/svg" width="164.594" height="36" viewBox="0 0 164.594 36">
  <metadata><?xpacket begin="﻿" id="W5M0MpCehiHzreSzNTczkc9d"?>
<x:xmpmeta xmlns:x="adobe:ns:meta/" x:xmptk="Adobe XMP Core 5.6-c140 79.160451, 2017/05/06-01:08:21        ">
   <rdf:RDF xmlns:rdf="http://www.w3.org/1999/02/22-rdf-syntax-ns#">
      <rdf:Description rdf:about=""/>
   </rdf:RDF>
</x:xmpmeta>
                                                                                                    
                                                                                                    
                                                                                                    
                                                                                                    
                                                                                                    
                                                                                                    
                                                                                                    
                                                                                                    
                                                                                                    
                                                                                                    
                                                                                                    
                                                                                                    
                                                                                                    
                                                                                                    
                                                                                                    
                                                                                                    
                                                                                                    
                                                                                                    
                                                                                                    
                                                                                                    
                           
<?xpacket end="w"?></metadata>
<defs>
    <style>
      .cls-1 {
        fill: #222;
        fill-rule: evenodd;
      }
    </style>
  </defs>
  <path id="合同会社_ピクセルグラム" data-name="合同会社 ピクセルグラム" class="cls-1" d="M326.753,3613.42c0.154,0,.168-0.02.168-0.16v-0.53h5.617v0.46c0,0.14.014,0.16,0.154,0.16h1.191c0.154,0,.168-0.02.168-0.16,0-.07-0.028-0.44-0.028-2.46v-1.37c0-1,.028-1.4.028-1.49,0-.14-0.014-0.15-0.168-0.15-0.084,0-.574.03-1.919,0.03h-4.483c-1.344,0-1.835-.03-1.919-0.03-0.14,0-.154.01-0.154,0.15,0,0.09.028,0.49,0.028,1.7v1.2c0,2.03-.028,2.41-0.028,2.49,0,0.14.014,0.16,0.154,0.16h1.191Zm0.168-4.4h5.617v2.44h-5.617v-2.44Zm-0.028-2.76c0,0.14.014,0.16,0.154,0.16,0.1,0,.462-0.03,1.583-0.03H330.8c1.121,0,1.5.03,1.583,0.03,0.14,0,.154-0.02.154-0.16v-0.98a15.518,15.518,0,0,0,2.732,1.57,0.937,0.937,0,0,0,.336.13c0.112,0,.168-0.1.252-0.37a3.672,3.672,0,0,1,.588-1.06,12.649,12.649,0,0,1-5.981-4.28,0.287,0.287,0,0,1,.112-0.09,0.239,0.239,0,0,0,.14-0.21c0-.13-0.084-0.17-0.252-0.23-0.406-.1-0.925-0.18-1.471-0.26a4.357,4.357,0,0,1-.546.99,12.513,12.513,0,0,1-5.393,4.29,3.346,3.346,0,0,1,.658.94,0.435,0.435,0,0,0,.266.35,1.115,1.115,0,0,0,.323-0.14,17.65,17.65,0,0,0,2.591-1.66v1.01Zm1.737-1.18c-0.953,0-1.345-.01-1.513-0.02a13.814,13.814,0,0,0,2.55-2.65,12.6,12.6,0,0,0,2.577,2.66c-0.2,0-.616.01-1.443,0.01H328.63Zm21.746-.72c0-1.91.028-2.9,0.028-3,0-.14-0.014-0.16-0.154-0.16-0.1,0-.561.03-1.863,0.03h-7.606c-1.3,0-1.765-.03-1.863-0.03-0.141,0-.155.02-0.155,0.16,0,0.1.028,1.05,0.028,2.95v6.03c0,1.9-.028,2.83-0.028,2.92,0,0.14.014,0.16,0.155,0.16h1.218c0.154,0,.168-0.02.168-0.16,0-.08-0.028-0.91-0.028-2.53v-8.14h8.615v8.78c0,0.34-.14.48-0.546,0.48a12.775,12.775,0,0,1-1.429-.08,4.062,4.062,0,0,1,.392,1.1c0.1,0.46.1,0.45,0.532,0.45a3.414,3.414,0,0,0,2.115-.38,1.483,1.483,0,0,0,.449-1.15c0-.47-0.028-1.2-0.028-2.42v-5.01Zm-7.326,7.15c0.14,0,.154-0.01.154-0.15v-0.74h2.661v0.45c0,0.15.014,0.16,0.154,0.16h1.065c0.14,0,.154-0.01.154-0.16,0-.09-0.028-0.42-0.028-2.29v-1.17c0-.87.028-1.24,0.028-1.32,0-.14-0.014-0.15-0.154-0.15-0.1,0-.448.02-1.555,0.02h-2c-1.079,0-1.443-.02-1.541-0.02-0.14,0-.154.01-0.154,0.15,0,0.1.028,0.46,0.028,1.57v1.15c0,1.9-.028,2.25-0.028,2.35,0,0.14.014,0.15,0.154,0.15h1.065Zm0.154-4.11h2.661v1.98H343.2v-1.98Zm2.815-2.4c1.233,0,1.667.03,1.751,0.03,0.14,0,.154-0.02.154-0.17v-1.04c0-.14-0.014-0.15-0.154-0.15-0.084,0-.518.03-1.751,0.03h-2.941c-1.233,0-1.653-.03-1.751-0.03-0.14,0-.154.01-0.154,0.15v1.04c0,0.15.014,0.17,0.154,0.17,0.1,0,.518-0.03,1.751-0.03h2.941Zm11.128,3.88a22.378,22.378,0,0,1-1.232,2.72c-0.154,0-.308.01-0.449,0.01a11.1,11.1,0,0,1-1.526,0c0.084,0.49.168,0.98,0.294,1.44a0.21,0.21,0,0,0,.2.2,0.383,0.383,0,0,0,.238-0.08,1.118,1.118,0,0,1,.5-0.13c2.382-.18,5.239-0.42,7.564-0.71,0.224,0.33.463,0.7,0.7,1.09a0.147,0.147,0,0,0,.112.1,0.349,0.349,0,0,0,.168-0.09l0.966-.63c0.14-.1.14-0.15,0.07-0.26a24.139,24.139,0,0,0-2.6-3.25,0.185,0.185,0,0,0-.294-0.03l-0.9.46c-0.168.09-.182,0.14-0.084,0.25,0.379,0.41.7,0.8,1.023,1.19-1.331.14-2.858,0.27-4.314,0.35a25.776,25.776,0,0,0,1.246-2.63h4.329c1.316,0,1.765.03,1.849,0.03,0.154,0,.168-0.02.168-0.16v-1.05c0-.14-0.014-0.15-0.168-0.15-0.084,0-.533.03-1.849,0.03h-7.466c-1.317,0-1.765-.03-1.849-0.03-0.155,0-.169.01-0.169,0.15v1.05c0,0.14.014,0.16,0.169,0.16,0.084,0,.532-0.03,1.849-0.03h1.456Zm-0.56-2.73c0,0.14.014,0.15,0.154,0.15,0.084,0,.462-0.02,1.583-0.02h2.157c1.121,0,1.5.02,1.583,0.02,0.14,0,.154-0.01.154-0.15v-1.04a15.078,15.078,0,0,0,2.676,1.49,0.945,0.945,0,0,0,.322.11c0.1,0,.14-0.1.238-0.35a4.024,4.024,0,0,1,.6-1.05,12.613,12.613,0,0,1-5.925-4.01,1.2,1.2,0,0,1,.2-0.12,0.237,0.237,0,0,0,.14-0.23c0-.1-0.084-0.15-0.252-0.19a10.176,10.176,0,0,0-1.513-.3,4.221,4.221,0,0,1-.49.91,11.691,11.691,0,0,1-5.379,4.08,3.171,3.171,0,0,1,.63.92c0.112,0.26.154,0.35,0.252,0.35a0.944,0.944,0,0,0,.337-0.12,16.424,16.424,0,0,0,2.535-1.52v1.07Zm1.737-1.18c-1.023,0-1.415-.01-1.541-0.03a12.849,12.849,0,0,0,2.564-2.56,12.528,12.528,0,0,0,2.647,2.56c-0.154.02-.574,0.03-1.513,0.03h-2.157Zm20.261,7.99c1.331,0,1.779.02,1.863,0.02,0.154,0,.168-0.01.168-0.15v-1.11c0-.14-0.014-0.15-0.168-0.15-0.084,0-.532.03-1.863,0.03H377.31v-5.24h0.883c1.246,0,1.681.01,1.765,0.01,0.14,0,.154,0,0.154-0.14v-1.1c0-.14-0.014-0.14-0.154-0.14-0.084,0-.519.01-1.765,0.01H377.31v-2.27a4.589,4.589,0,0,1,.112-1.54,0.555,0.555,0,0,0,.07-0.29,0.213,0.213,0,0,0-.224-0.14,15.374,15.374,0,0,0-1.555-.1,12.615,12.615,0,0,1,.112,2.11V3605H375.2c-1.247,0-1.681-.01-1.765-0.01-0.126,0-.14,0-0.14.14v1.1c0,0.14.014,0.14,0.14,0.14,0.084,0,.518-0.01,1.765-0.01h0.63v5.24h-1.176c-1.331,0-1.793-.03-1.877-0.03-0.14,0-.154.01-0.154,0.15v1.11c0,0.14.014,0.15,0.154,0.15,0.084,0,.546-0.02,1.877-0.02h3.936Zm-8.615-1.28c0,1.04-.028,1.57-0.028,1.65,0,0.15.014,0.16,0.168,0.16h1.121c0.154,0,.168-0.01.168-0.16,0-.07-0.028-0.61-0.028-1.65v-3.93a11.275,11.275,0,0,0,1.205,1.3,0.532,0.532,0,0,0,.28.17,0.4,0.4,0,0,0,.266-0.31,3.3,3.3,0,0,1,.56-0.91,8.118,8.118,0,0,1-2.059-1.64,14.218,14.218,0,0,0,1.191-2.05,1.308,1.308,0,0,1,.322-0.4,0.288,0.288,0,0,0,.14-0.23,1.122,1.122,0,0,0-.378-0.5,1.045,1.045,0,0,0-.518-0.36,0.365,0.365,0,0,0-.155.05,0.485,0.485,0,0,1-.266.06h-0.588v-0.63a2.923,2.923,0,0,1,.084-1.12,0.675,0.675,0,0,0,.084-0.3,0.235,0.235,0,0,0-.224-0.14c-0.5-.05-0.925-0.08-1.457-0.1a8.672,8.672,0,0,1,.112,1.71v0.58H369.7c-1.064,0-1.4-.03-1.485-0.03-0.14,0-.154.01-0.154,0.15v1.04c0,0.14.014,0.15,0.154,0.15,0.084,0,.421-0.02,1.485-0.02h1.583a9.658,9.658,0,0,1-3.656,4.14,3.817,3.817,0,0,1,.49,1,0.4,0.4,0,0,0,.224.32,0.666,0.666,0,0,0,.295-0.18,14.732,14.732,0,0,0,1.33-1.17v3.35Zm19.685-7.56a3.173,3.173,0,0,1,.14-1.26c0.126-.21.182-0.45-0.126-0.52a11.468,11.468,0,0,0-1.765-.28,14.515,14.515,0,0,1,.14,2.56v5.17c0,1.15.294,1.81,1,2.1a6.932,6.932,0,0,0,2.661.38,28.865,28.865,0,0,0,4.16-.25c0.211-.02.295-0.07,0.295-0.25,0-.3-0.042-0.83-0.084-1.22-0.014-.17-0.042-0.23-0.253-0.2a24.031,24.031,0,0,1-3.95.32,7.139,7.139,0,0,1-1.765-.15c-0.364-.11-0.462-0.34-0.462-1v-1.86a34.565,34.565,0,0,0,4.805-1.74,8.554,8.554,0,0,1,1.162-.46,0.278,0.278,0,0,0,.126-0.5,7.775,7.775,0,0,0-1.162-1.26,4.437,4.437,0,0,1-1.5,1.01,27.837,27.837,0,0,1-3.418,1.36v-1.95Zm7.41-2.68a1.478,1.478,0,0,0-1.513,1.5A1.513,1.513,0,1,0,397.065,3601.44Zm0,0.67a0.83,0.83,0,1,1-.826.83A0.81,0.81,0,0,1,397.065,3602.11Zm10.008,1.31c0.168-.25.308-0.46,0.462-0.7a1.462,1.462,0,0,1,.35-0.38,0.286,0.286,0,0,0,.154-0.24,0.3,0.3,0,0,0-.14-0.24,7.082,7.082,0,0,0-1.639-.74,5.96,5.96,0,0,1-.826,1.89,16.589,16.589,0,0,1-3.768,4.16,3.867,3.867,0,0,1,1.344.6,0.324,0.324,0,0,0,.21.09,0.439,0.439,0,0,0,.295-0.16,18.838,18.838,0,0,0,2.647-2.87l3.39-.1a14.145,14.145,0,0,1-2.592,3.98,15.953,15.953,0,0,1-4.664,3.57,3.8,3.8,0,0,1,1.331.65,0.478,0.478,0,0,0,.322.15,0.352,0.352,0,0,0,.224-0.07,17.744,17.744,0,0,0,4.258-3.49,19.238,19.238,0,0,0,2.774-4.32,1.7,1.7,0,0,1,.462-0.61,0.393,0.393,0,0,0,.168-0.29,0.443,0.443,0,0,0-.182-0.32,6.568,6.568,0,0,0-.953-0.76,0.449,0.449,0,0,0-.224-0.08,0.289,0.289,0,0,0-.182.05,1.244,1.244,0,0,1-.7.17Zm12.416,2.06-1.19.29a20.813,20.813,0,0,1-2.634.49,10.4,10.4,0,0,0,.56,1.43,0.274,0.274,0,0,0,.225.22,0.486,0.486,0,0,0,.168-0.05,13.577,13.577,0,0,1,1.975-.6l0.9-.24v2.83c0,1.89.827,2.46,3.5,2.46a27.032,27.032,0,0,0,3.348-.17c0.21-.01.294-0.07,0.294-0.21a6.748,6.748,0,0,0-.126-1.17c-0.028-.21-0.042-0.31-0.238-0.28a20.789,20.789,0,0,1-3.39.31c-1.513,0-1.765-.24-1.765-0.98v-3.18l3.852-.99a11.55,11.55,0,0,1-2.283,2.81,4.636,4.636,0,0,1,1.163.53,0.451,0.451,0,0,0,.266.1,0.58,0.58,0,0,0,.364-0.21,14.666,14.666,0,0,0,2.227-3.03,1.793,1.793,0,0,1,.434-0.55,0.371,0.371,0,0,0,.182-0.28,0.378,0.378,0,0,0-.126-0.25,5.629,5.629,0,0,0-1.036-.91,0.33,0.33,0,0,0-.2-0.08,0.368,0.368,0,0,0-.2.08,1.937,1.937,0,0,1-1,.41l-3.656.85v-1.44a2.543,2.543,0,0,1,.182-1.25,0.442,0.442,0,0,0,.084-0.22,0.266,0.266,0,0,0-.266-0.25,9.229,9.229,0,0,0-1.807-.28,11.38,11.38,0,0,1,.182,2.46v1.35Zm18.664-.75a3.885,3.885,0,0,1,.126-1.55,0.916,0.916,0,0,0,.112-0.35,0.257,0.257,0,0,0-.252-0.24,14.479,14.479,0,0,0-1.751-.29,11.137,11.137,0,0,1,.14,2.43v4.39a2.371,2.371,0,0,1-.084,1.06,0.446,0.446,0,0,0-.056.21,0.567,0.567,0,0,0,.126.3,4.03,4.03,0,0,0,.841.85,0.591,0.591,0,0,0,.294.11,0.442,0.442,0,0,0,.28-0.11,4.866,4.866,0,0,1,.406-0.29,24.219,24.219,0,0,0,2.494-1.68,17.67,17.67,0,0,0,2.073-1.84,0.518,0.518,0,0,0,.21-0.35,0.719,0.719,0,0,0-.084-0.24,4,4,0,0,1-.434-1.41,13.442,13.442,0,0,1-2.452,2.38,14.166,14.166,0,0,1-1.989,1.3v-4.68Zm-4.888-1.55a3.761,3.761,0,0,1,.14,1.18,9.085,9.085,0,0,1-.589,3.96,6.955,6.955,0,0,1-2.325,2.79,4.826,4.826,0,0,1,1.191.59,0.472,0.472,0,0,0,.266.11,0.643,0.643,0,0,0,.364-0.18,7.192,7.192,0,0,0,1.989-2.64,10.438,10.438,0,0,0,.757-4.12,2.029,2.029,0,0,1,.168-0.95,0.276,0.276,0,0,0-.182-0.43A11.8,11.8,0,0,0,433.265,3603.18Zm18.033,0.36c0.168-.25.308-0.46,0.463-0.7a1.414,1.414,0,0,1,.35-0.37,0.27,0.27,0,0,0,.014-0.48,6.677,6.677,0,0,0-1.639-.74,6.038,6.038,0,0,1-.827,1.89,16.742,16.742,0,0,1-3.768,4.16,3.863,3.863,0,0,1,1.345.6,0.309,0.309,0,0,0,.21.08,0.42,0.42,0,0,0,.294-0.15,19.808,19.808,0,0,0,2.648-2.87l3.39-.1a14.29,14.29,0,0,1-2.592,3.98,16.125,16.125,0,0,1-4.664,3.57,3.617,3.617,0,0,1,1.33.64,0.5,0.5,0,0,0,.323.16,0.426,0.426,0,0,0,.224-0.07,17.782,17.782,0,0,0,4.258-3.49,19.1,19.1,0,0,0,2.774-4.33,1.661,1.661,0,0,1,.462-0.6,0.393,0.393,0,0,0,.168-0.29,0.479,0.479,0,0,0-.182-0.33,6.572,6.572,0,0,0-.953-0.75,0.39,0.39,0,0,0-.224-0.09,0.3,0.3,0,0,0-.182.06,1.334,1.334,0,0,1-.7.17Zm3.516-1.43a7.107,7.107,0,0,1,1.415,1.63,0.145,0.145,0,0,0,.238.04l0.588-.43a0.147,0.147,0,0,0,.042-0.23,6.582,6.582,0,0,0-1.33-1.5,0.139,0.139,0,0,0-.21-0.02Zm1.289-.92a6.763,6.763,0,0,1,1.4,1.61,0.139,0.139,0,0,0,.238.04l0.56-.43a0.16,0.16,0,0,0,.042-0.25,6.006,6.006,0,0,0-1.331-1.45,0.139,0.139,0,0,0-.21-0.02Zm11.716,2.02c0.855,0,1.513.03,1.975,0.03,0.21,0.01.252-.05,0.252-0.28a7.213,7.213,0,0,0,0-1.1c0-.15-0.042-0.22-0.168-0.22-0.546.03-1.288,0.07-2.2,0.07h-2.521a20.148,20.148,0,0,1-2.3-.1,12.461,12.461,0,0,0,.07,1.35c0.014,0.22.056,0.3,0.2,0.3,0.588-.04,1.288-0.05,1.919-0.05h2.773Zm1.065,3a10.953,10.953,0,0,1-5.883,5.84,4.163,4.163,0,0,1,1.3.72,0.43,0.43,0,0,0,.308.17,0.626,0.626,0,0,0,.281-0.1,12.192,12.192,0,0,0,5.715-6.19,1.681,1.681,0,0,1,.476-0.66,0.328,0.328,0,0,0,.154-0.26,0.425,0.425,0,0,0-.14-0.3,7.83,7.83,0,0,0-.939-0.86,0.341,0.341,0,0,0-.21-0.1,0.331,0.331,0,0,0-.182.08,1.5,1.5,0,0,1-.742.16h-4.805a23.155,23.155,0,0,1-2.577-.12,10.64,10.64,0,0,0,.154,1.42c0.028,0.18.084,0.27,0.21,0.27,0.7-.05,1.4-0.06,2.1-0.06Zm11.254-4.85a7.5,7.5,0,0,1-.406,1.92c-0.729,2.35-1.457,4.42-2.452,6.93a16.24,16.24,0,0,1-1.709-.01,12.42,12.42,0,0,0,.491,1.8,0.256,0.256,0,0,0,.406.14,5.017,5.017,0,0,1,1.639-.33c2.283-.24,4.412-0.48,6.653-0.81,0.168,0.36.322,0.72,0.491,1.12a0.233,0.233,0,0,0,.2.19,0.346,0.346,0,0,0,.168-0.04,7.611,7.611,0,0,0,1.064-.57,0.3,0.3,0,0,0,.182-0.24,0.324,0.324,0,0,0-.056-0.18,19.5,19.5,0,0,0-2.829-4.58,0.233,0.233,0,0,0-.336-0.09c-0.393.21-.8,0.45-1.219,0.67a13.962,13.962,0,0,1,1.555,2.24c-1.569.24-2.746,0.36-4.9,0.54,0.883-2.1,1.625-4.16,2.41-6.31a4.55,4.55,0,0,1,.574-1.16,0.465,0.465,0,0,0,.14-0.28,0.315,0.315,0,0,0-.168-0.22A7.524,7.524,0,0,0,480.138,3601.36Z" transform="translate(-323.062 -3577.53)"/>
  <path id="Pixelgram_LLC." data-name="Pixelgram LLC." class="cls-1" d="M326.471,3586.59h3.08a5.1,5.1,0,0,0,3.53-1.13,4.1,4.1,0,0,0,1.25-3.21,3.926,3.926,0,0,0-1.24-3.15,5.279,5.279,0,0,0-3.54-1.07h-5.28v13.34h2.2v-4.78Zm0-1.88v-4.82h2.8a2.843,2.843,0,0,1,2.17.66,2.568,2.568,0,0,1,.59,1.78,2.471,2.471,0,0,1-.59,1.73,2.884,2.884,0,0,1-2.17.65h-2.8Zm12.4-4.98h2.24v-1.9h-2.24v1.9Zm0.06,11.64h2.12l-0.02-9.98h-2.1v9.98Zm17.02-10.04h-2.3l-2.5,3.48-2.54-3.48h-2.54l3.66,5.04-3.76,5h2.28l2.56-3.52,2.54,3.52h2.56l-3.68-5.06Zm9.02-.24a4.377,4.377,0,0,0-3.44,1.37,5.745,5.745,0,0,0-1.22,3.95,5.452,5.452,0,0,0,1.29,3.89,4.652,4.652,0,0,0,3.55,1.37,8.943,8.943,0,0,0,3.58-.68v-1.96a6.383,6.383,0,0,1-1.48.59,6.777,6.777,0,0,1-1.76.23,2.975,2.975,0,0,1-2.19-.77,3.369,3.369,0,0,1-.87-2.25h7.04a7.056,7.056,0,0,0-1.07-4.23,3.935,3.935,0,0,0-3.43-1.51h0Zm-0.06,1.72a2.3,2.3,0,0,1,1.7.59,3.1,3.1,0,0,1,.72,1.87h-4.86a3.111,3.111,0,0,1,.78-1.9,2.353,2.353,0,0,1,1.66-.56h0Zm11.06,8.56v-13.84h-2.08v13.84h2.08Zm9.72-10.26a5.806,5.806,0,0,0-3.84,1.2q-1.44,1.2-1.44,4.32a5.41,5.41,0,0,0,1.15,3.7,4.348,4.348,0,0,0,3.35,1.34,4.962,4.962,0,0,0,1.35-.2,6.19,6.19,0,0,0,1.27-.52v0.68a2.019,2.019,0,0,1-.58,1.51,3.136,3.136,0,0,1-2.18.57,8.921,8.921,0,0,1-3.08-.62v1.92a9.277,9.277,0,0,0,3.24.54,4.989,4.989,0,0,0,3.56-1.08,3.713,3.713,0,0,0,1.12-2.8v-7.96a2.127,2.127,0,0,0-1.11-1.94,5.429,5.429,0,0,0-2.81-.66h0Zm-3.14,5.46a4.77,4.77,0,0,1,.66-2.7,2.646,2.646,0,0,1,2.36-.98,3.334,3.334,0,0,1,1.43.26,0.965,0.965,0,0,1,.53.96v5.26a4.364,4.364,0,0,1-2.28.58,2.352,2.352,0,0,1-2.02-.91,4.04,4.04,0,0,1-.68-2.47h0Zm11.96,4.8h2.1v-8.2a14.947,14.947,0,0,1,2.48-.2,10.194,10.194,0,0,1,1.34.08v-1.68a3.269,3.269,0,0,0-1.36-.26,9.147,9.147,0,0,0-2.66.4,8.851,8.851,0,0,0-1.9.74v9.12Zm14.32-10.26a10.065,10.065,0,0,0-2.21.24,5.168,5.168,0,0,0-1.63.6v1.96a4.18,4.18,0,0,1,1.46-.75,5.968,5.968,0,0,1,1.76-.27q2.46,0,2.46,2.04v0.96a5.745,5.745,0,0,0-3-.72,3.975,3.975,0,0,0-2.69.82,3.08,3.08,0,0,0-.95,2.46,2.709,2.709,0,0,0,1.16,2.48,5.4,5.4,0,0,0,2.94.74,8.8,8.8,0,0,0,3.42-.53,1.9,1.9,0,0,0,1.2-1.89v-4.8a2.839,2.839,0,0,0-1.13-2.55,4.785,4.785,0,0,0-2.79-.79h0Zm-0.46,8.92a2.929,2.929,0,0,1-1.59-.42,1.388,1.388,0,0,1-.67-1.26,1.359,1.359,0,0,1,.59-1.2,3.059,3.059,0,0,1,1.73-.4,5.655,5.655,0,0,1,2.24.44v1.94a0.7,0.7,0,0,1-.52.72,6.094,6.094,0,0,1-1.78.18h0Zm20.3-8.92a7.776,7.776,0,0,0-3.36.76,4.641,4.641,0,0,0-2.92-.76,11.466,11.466,0,0,0-2.47.29,9.029,9.029,0,0,0-2.19.75v9.22h2.1v-8.08a6.211,6.211,0,0,1,2.12-.38q2.379,0,2.38,2.1v6.36h2.1v-6.64a5.181,5.181,0,0,0-.14-1.28,3.635,3.635,0,0,1,1.94-.54q2.379,0,2.38,2.1v6.36h2.1v-6.64a3.532,3.532,0,0,0-.97-2.74,4.463,4.463,0,0,0-3.07-.88h0Zm16.78,10.26h8.6v-1.88h-6.38v-11.46h-2.22v13.34Zm12.74,0h8.6v-1.88h-6.38v-11.46h-2.22v13.34Zm18.46,0.2a9.326,9.326,0,0,0,2.13-.25,8.974,8.974,0,0,0,2.01-.71v-1.98a7.414,7.414,0,0,1-3.8,1.08,4.3,4.3,0,0,1-3.34-1.17,5.636,5.636,0,0,1-1.06-3.83,5.8,5.8,0,0,1,1.05-3.86,4.149,4.149,0,0,1,3.29-1.2,7.564,7.564,0,0,1,3.86,1.12v-1.98a9.7,9.7,0,0,0-4.14-.98q-6.341,0-6.34,6.88t6.34,6.88h0Zm8.62-.2h2.38v-2.34h-2.38v2.34Z" transform="translate(-323.062 -3577.53)"/>
</svg>
