<!-- Generator: Adobe Illustrator 21.1.0, SVG Export Plug-In  -->
<svg version="1.1"
	 xmlns="http://www.w3.org/2000/svg" xmlns:xlink="http://www.w3.org/1999/xlink" xmlns:a="http://ns.adobe.com/AdobeSVGViewerExtensions/3.0/"
	 x="0px" y="0px" width="205.6px" height="39.4px" viewBox="0 0 205.6 39.4" style="enable-background:new 0 0 205.6 39.4;"
	 xml:space="preserve">
<style type="text/css">
	.st0{fill:none;}
</style>
<defs>
</defs>
<g>
	<path class="st0" d="M166.8,23.8c-0.2,0.2-0.3,0.4-0.3,0.6v2.9c0,0.2,0.1,0.4,0.3,0.6c0.2,0.2,0.4,0.3,0.6,0.3h9.4v-4.6h-9.4
		C167.2,23.5,167,23.6,166.8,23.8z"/>
	<path class="st0" d="M110.2,16.1h-8.4c-0.2,0-0.4,0.1-0.6,0.3c-0.2,0.2-0.3,0.4-0.3,0.6v3.7h10.1V17c0-0.2-0.1-0.4-0.3-0.6
		C110.7,16.2,110.5,16.1,110.2,16.1z"/>
	<path class="st0" d="M62.8,10.2H52.5v7.7h10.3c0.2,0,0.4-0.1,0.6-0.3c0.2-0.2,0.3-0.4,0.3-0.6v-6c0-0.2-0.1-0.4-0.3-0.6
		C63.3,10.3,63.1,10.2,62.8,10.2z"/>
	<path class="st0" d="M128.1,17.1v10.3c0,0.2,0.1,0.4,0.3,0.6c0.2,0.2,0.4,0.3,0.6,0.3h9.3V16.2H129c-0.2,0-0.4,0.1-0.6,0.3
		C128.2,16.6,128.1,16.8,128.1,17.1z"/>
	<polygon points="70.3,10.6 73,10.6 73,7.8 70.3,7.8 	"/>
	<polygon points="94.5,13.9 91.1,13.9 85.8,20.3 80.6,14 80.5,13.9 77.3,13.9 84.1,22.3 77.3,30.6 80.6,30.6 85.8,24.2 91.1,30.5
		91.1,30.6 94.5,30.6 87.5,22.3 	"/>
	<path d="M63.4,7.8H49.9v22.8h2.6V20.4h10.4c0.8,0,1.6-0.3,2.2-0.8c0.7-0.5,1-1.2,1-2v-7c0-0.8-0.3-1.4-0.8-2
		C64.9,8,64.2,7.8,63.4,7.8z M63.7,17.1c0,0.2-0.1,0.4-0.3,0.6c-0.2,0.2-0.4,0.3-0.6,0.3H52.5v-7.7h10.3c0.2,0,0.4,0.1,0.6,0.3
		c0.2,0.2,0.3,0.4,0.3,0.6V17.1z"/>
	<rect width="12.6" height="9.4"/>
	<rect x="70.3" y="13.5" width="2.7" height="17.1"/>
	<rect y="11" width="12.6" height="28.3"/>
	<rect x="14.2" y="26.8" width="25.2" height="12.6"/>
	<path d="M202.9,13.5c-10.6,0-16.9,0-18.4,0l-0.2,0v17l2.7,0.1V15.9h6.1c0.3,0,0.6,0.1,0.8,0.4v14.2h2.7V15.9h5.7
		c0.2,0,0.4,0.1,0.6,0.3s0.3,0.4,0.3,0.6v13.8h2.6V16.3c0-0.8-0.3-1.4-0.8-2C204.3,13.8,203.6,13.5,202.9,13.5z"/>
	<path d="M176.7,13.6H167c-1.9,0-2.8,1.3-2.8,4v1.1h2.4v-0.9c0-1.7,0.7-1.7,0.9-1.7h8.4c0.2,0,0.4,0.1,0.6,0.3
		c0.2,0.2,0.3,0.4,0.3,0.6v3.9h-9.9c-0.8,0-1.4,0.3-2,0.8c-0.5,0.5-0.8,1.2-0.8,2v4.1c0,0.8,0.3,1.4,0.8,2c0.5,0.5,1.2,0.8,2,0.8
		h12.5V16.4c0-0.8-0.3-1.4-0.8-2C178.1,13.9,177.5,13.6,176.7,13.6z M176.8,28.1h-9.4c-0.2,0-0.4-0.1-0.6-0.3
		c-0.2-0.2-0.3-0.4-0.3-0.6v-2.9c0-0.2,0.1-0.4,0.3-0.6c0.2-0.2,0.4-0.3,0.6-0.3h9.4V28.1z"/>
	<rect x="14.2" width="25.2" height="25.2"/>
	<path d="M158.1,13.6h-12.6v16.9h2.7V17c0-0.2,0.1-0.4,0.3-0.6c0.2-0.2,0.4-0.3,0.6-0.3h11.5v-0.2C160.6,14.9,160.1,13.6,158.1,13.6
		z"/>
	<polygon points="118.2,30.6 120.9,30.6 120.9,7.8 118.2,7.8 	"/>
	<path d="M126.4,14.5c-0.5,0.5-0.8,1.2-0.8,2v11.4c0,0.8,0.3,1.4,0.8,2c0.5,0.5,1.2,0.8,2,0.8h9.8V34c0,0.2-0.1,0.4-0.3,0.6
		c-0.2,0.2-0.5,0.3-0.7,0.3h-11.6v2.5h12.5c0.8,0,1.4-0.3,2-0.8s0.8-1.2,0.8-2V13.7h-12.5C127.6,13.7,126.9,14,126.4,14.5z
		 M138.2,16.2v12.1H129c-0.2,0-0.4-0.1-0.6-0.3c-0.2-0.2-0.3-0.4-0.3-0.6V17.1c0-0.2,0.1-0.4,0.3-0.6c0.2-0.2,0.4-0.3,0.6-0.3H138.2
		z"/>
	<path d="M110.8,13.6H101c-0.8,0-1.4,0.3-2,0.8c-0.5,0.5-0.8,1.2-0.8,2v11.4c0,0.8,0.3,1.4,0.8,2c0.5,0.5,1.2,0.8,2,0.8h9.7
		c1.9,0,2.8-1.3,2.8-4v-1.1h-2.5v0.9c0,1.7-0.7,1.7-0.9,1.7h-8.3c-0.2,0-0.4-0.1-0.6-0.3c-0.2-0.2-0.3-0.4-0.3-0.6v-3.9h12.6v-6.9
		c0-0.8-0.3-1.4-0.8-2C112.2,13.9,111.6,13.6,110.8,13.6z M111.1,20.7H101V17c0-0.2,0.1-0.4,0.3-0.6c0.2-0.2,0.4-0.3,0.6-0.3h8.4
		c0.2,0,0.4,0.1,0.6,0.3c0.2,0.2,0.3,0.4,0.3,0.6V20.7z"/>
</g>
</svg>