<svg id="scroll" xmlns="http://www.w3.org/2000/svg" width="34.843" height="30.938" viewBox="0 0 34.843 30.938">
  <metadata><?xpacket begin="﻿" id="W5M0MpCehiHzreSzNTczkc9d"?>
<x:xmpmeta xmlns:x="adobe:ns:meta/" x:xmptk="Adobe XMP Core 5.6-c140 79.160451, 2017/05/06-01:08:21        ">
   <rdf:RDF xmlns:rdf="http://www.w3.org/1999/02/22-rdf-syntax-ns#">
      <rdf:Description rdf:about=""/>
   </rdf:RDF>
</x:xmpmeta>
                                                                                                    
                                                                                                    
                                                                                                    
                                                                                                    
                                                                                                    
                                                                                                    
                                                                                                    
                                                                                                    
                                                                                                    
                                                                                                    
                                                                                                    
                                                                                                    
                                                                                                    
                                                                                                    
                                                                                                    
                                                                                                    
                                                                                                    
                                                                                                    
                                                                                                    
                                                                                                    
                           
<?xpacket end="w"?></metadata>
<defs>
    <style>
      .cls-1, .cls-2 {
        fill-rule: evenodd;
      }

      .cls-2 {
        fill: #222;
      }
    </style>
  </defs>
  <path id="arrow" class="cls-1" d="M639,652h2v2h-2v-2Zm2-2h2v2h-2v-2Zm2-2h2v2h-2v-2Zm-4-5h2v2h-2v-2Zm0,6h2v2h-2v-2Zm0-3h2v2h-2v-2Zm0-6h2v2h-2v-2Z" transform="translate(-622.438 -623.062)"/>
  <path id="Scroll-2" data-name="Scroll" class="cls-2" d="M625.087,631.512a3.247,3.247,0,0,0,1.542-.33,2.137,2.137,0,0,0,.912-0.876,2.5,2.5,0,0,0,.294-1.206,1.969,1.969,0,0,0-.312-1.146,2.238,2.238,0,0,0-.8-0.708,8.048,8.048,0,0,0-1.218-.5,9.315,9.315,0,0,1-.954-0.354,1.448,1.448,0,0,1-.534-0.4,0.971,0.971,0,0,1-.2-0.642,0.911,0.911,0,0,1,.372-0.756,1.737,1.737,0,0,1,1.08-.288,2.742,2.742,0,0,1,1.056.186,7.776,7.776,0,0,1,1.056.57v-1.3a6.885,6.885,0,0,0-1.074-.426,4.233,4.233,0,0,0-1.122-.126,3.222,3.222,0,0,0-1.536.33,2.188,2.188,0,0,0-.9.846,2.21,2.21,0,0,0-.288,1.092,2.055,2.055,0,0,0,.288,1.14,2.025,2.025,0,0,0,.714.684,6.535,6.535,0,0,0,1.086.468l0.264,0.1c0.392,0.144.7,0.269,0.912,0.372a1.75,1.75,0,0,1,.54.4,0.884,0.884,0,0,1,.216.612,1.029,1.029,0,0,1-.372.852,1.724,1.724,0,0,1-1.1.3,4.328,4.328,0,0,1-1.422-.234,3.66,3.66,0,0,1-1.146-.618v1.32a5.052,5.052,0,0,0,2.652.636h0Zm8.112-.024a4.482,4.482,0,0,0,1.848-.384v-1.128a3.785,3.785,0,0,1-1.644.4,1.9,1.9,0,0,1-1.464-.5,2.286,2.286,0,0,1-.456-1.578,2.081,2.081,0,0,1,.468-1.506,1.914,1.914,0,0,1,1.416-.474,4.359,4.359,0,0,1,1.668.384v-1.128a4.814,4.814,0,0,0-1.848-.36,3.052,3.052,0,0,0-2.118.75,3.126,3.126,0,0,0-.834,2.43,2.968,2.968,0,0,0,.846,2.364,3.117,3.117,0,0,0,2.118.732h0Zm4.5-.12h1.26v-4.92a8.864,8.864,0,0,1,1.488-.12,5.944,5.944,0,0,1,.8.048v-1.008a1.944,1.944,0,0,0-.816-0.156,5.592,5.592,0,0,0-1.6.24,5.434,5.434,0,0,0-1.14.444v5.472Zm8.568,0.18a2.761,2.761,0,0,0,2.148-.828,4.1,4.1,0,0,0,.024-4.71,2.8,2.8,0,0,0-2.184-.81q-2.88,0-2.88,3.156a3.464,3.464,0,0,0,.726,2.376,2.746,2.746,0,0,0,2.166.816h0Zm-0.012-1.068a1.419,1.419,0,0,1-1.242-.546A3.41,3.41,0,0,1,645,626.79a1.432,1.432,0,0,1,1.254-.534,1.48,1.48,0,0,1,1.26.522,2.6,2.6,0,0,1,.4,1.578q0,2.124-1.656,2.124h0Zm6.816,0.888v-8.3h-1.248v8.3h1.248Zm4.224,0v-8.3h-1.248v8.3H657.3Z" transform="translate(-622.438 -623.062)"/>
</svg>
