<!-- Generator: Adobe Illustrator 21.1.0, SVG Export Plug-In  -->
<svg version="1.1"
	 xmlns="http://www.w3.org/2000/svg" xmlns:xlink="http://www.w3.org/1999/xlink" xmlns:a="http://ns.adobe.com/AdobeSVGViewerExtensions/3.0/"
	 x="0px" y="0px" width="1393.5px" height="269px" viewBox="0 0 1393.5 269" style="enable-background:new 0 0 1393.5 269;"
	 xml:space="preserve">
<style type="text/css">
	.st0{fill:#BBBBBB;}
</style>
<defs>
</defs>
<g>
	<g>
		<path class="st0" d="M282.3,165.1H280V156h-4.2v9.1h-7.6v7.5h-7.3v4.5h2.3v2.5h-2.3v4.5h2.3v2.5h-2.3v4.5h2.3v2.5h-2.3v4.5h2.3
			v2.5h-2.3v4.5h2.3v2.5h-2.3v4.5h2.3v0.2h-4.3c-1.2-3.5-4.6-6-8.6-6c-4,0-7.3,2.5-8.6,6h-5.2v4h1.3v28.2l-10.6-7.3l-13.8,9.6v2.2
			c-1.3-7.2-2.4-14.1-3.2-20.4c-0.7-5.6-1.2-10.6-1.5-14.8c-0.1-1.1-0.2-2.2-0.2-3.2h14.3l-14.5-12.3v-9.6h14.5l-14.5-12.3v-9
			l6.7-9.1h-30l6.7,9.1v9L177,189.1h14.5v9.6L177,210.9h14.3c-0.1,2.4-0.4,5.2-0.7,8.3c-1,10-2.7,23-5.5,36.3l-2-1.6v-6.1l1.6,1.3
			v-2.6l-10.9-8.9l-10.9,8.9v2.6l1.6-1.3v6.1l-1.9,1.5v-33.2h-3.8v-6.9h-11.7v6.9h-13.8V186h-3.6v-5.4h3.6V177h-22.6v3.6h3.6v5.4
			h-3.6v47.8H98v-58.6H74.5v3.6h5.4v6.3h-5.4v49.3l-9.7-4.9l-9.5,4.8v-17.4h-4.2v-7.7H38v7.7H21.1v11.5h-5.4v5.4h5.4v6.1h-4.1
			l-2.9-2.3L3,246v2H0l0,21h190.9v-6.3l1.6,1.3v-2.6l-0.8-0.7l8-6.1h0.3l9.3,7v7.3h77.5v-4.5h-2.3v-2.5h2.3v-4.5h-2.3v-2.5h2.3v-4.5
			h-2.3v-2.5h2.3v-4.5h-2.3v-2.5h2.3v-4.5h-2.3v-2.5h2.3v-4.5h-2.3v-2.5h2.3v-4.5h-2.3v-2.5h2.3V215h-2.3v-2.5h2.3v-4.5h-2.3v-2.5
			h2.3v-4.5h-2.3v-2.5h2.3v-4.5h-2.3v-2.5h2.3v-4.5h-2.3v-2.5h2.3v-4.5h-2.3v-2.5h2.3v-4.5h-4.5V165.1z M15.7,263.6h-3.6v-3.9h3.6
			V263.6z M15.7,252.2h-3.6v-3.9h3.6V252.2z M34.4,262.9h-3.6V259h3.6V262.9z M34.4,250.7h-3.6v-3.8h3.6V250.7z M34.4,238.5h-3.6
			v-3.8h3.6V238.5z M34.4,226.2h-3.6v-3.8h3.6V226.2z M44,262.9h-3.6V259H44V262.9z M44,250.7h-3.6v-3.8H44V250.7z M44,238.5h-3.6
			v-3.8H44V238.5z M44,226.2h-3.6v-3.8H44V226.2z M62.2,251.8h-3.6v-5.1h3.6V251.8z M66.6,264.8H63v-5.1h3.6V264.8z M70.9,251.8
			h-3.6v-5.1h3.6V251.8z M91.3,191.2h2.2v5.2h-2.2V191.2z M91.3,204.4h2.2v5.2h-2.2V204.4z M91.3,217.6h2.2v5.2h-2.2V217.6z
			 M85.3,191.2h2.2v5.2h-2.2V191.2z M85.3,204.4h2.2v5.2h-2.2V204.4z M85.3,217.6h2.2v5.2h-2.2V217.6z M79.9,191.2h2.2v5.2h-2.2
			V191.2z M79.9,204.4h2.2v5.2h-2.2V204.4z M79.9,217.6h2.2v5.2h-2.2V217.6z M79.9,230.9h2.2v5.2h-2.2V230.9z M84.9,261.7H81v-3.1
			h3.9V261.7z M84.9,254.7H81v-3.1h3.9V254.7z M84.9,247.8H81v-3.1h3.9V247.8z M85.3,230.9h2.2v5.2h-2.2V230.9z M90.9,261.7H87v-3.1
			h3.9V261.7z M90.9,254.7H87v-3.1h3.9V254.7z M90.9,247.8H87v-3.1h3.9V247.8z M91.3,230.9h2.2v5.2h-2.2V230.9z M97,261.7H93v-3.1
			H97V261.7z M97,254.7H93v-3.1H97V254.7z M97,247.8H93v-3.1H97V247.8z M103,261.7h-3.9v-3.1h3.9V261.7z M103,254.7h-3.9v-3.1h3.9
			V254.7z M103,247.8h-3.9v-3.1h3.9V247.8z M109.1,261.7h-3.9v-3.1h3.9V261.7z M109.1,254.7h-3.9v-3.1h3.9V254.7z M109.1,247.8h-3.9
			v-3.1h3.9V247.8z M122.7,191.2h2.2v5.2h-2.2V191.2z M122.7,204.4h2.2v5.2h-2.2V204.4z M122.7,217.6h2.2v5.2h-2.2V217.6z
			 M117.2,191.2h2.2v5.2h-2.2V191.2z M117.2,204.4h2.2v5.2h-2.2V204.4z M117.2,217.6h2.2v5.2h-2.2V217.6z M117.2,230.9h2.2v5.2h-2.2
			V230.9z M115.1,261.7h-3.9v-3.1h3.9V261.7z M115.1,254.7h-3.9v-3.1h3.9V254.7z M115.1,247.8h-3.9v-3.1h3.9V247.8z M121.2,261.7
			h-3.9v-3.1h3.9V261.7z M121.2,254.7h-3.9v-3.1h3.9V254.7z M121.2,247.8h-3.9v-3.1h3.9V247.8z M122.7,230.9h2.2v5.2h-2.2V230.9z
			 M127.2,261.7h-3.9v-3.1h3.9V261.7z M127.2,253.1h-0.1v1.6h-3.8v-3.1h3.9V253.1z M127.2,247.8h-3.9v-3.1h3.8v3h0.1V247.8z
			 M143.8,263.5h-3.2V260h3.2V263.5z M143.8,252.5h-3.2v-3.5h3.2V252.5z M143.8,241.5h-3.2v-3.5h3.2V241.5z M143.8,230.6h-3.2v-3.4
			h3.2V230.6z M152.5,263.5h-3.2V260h3.2V263.5z M152.5,252.5h-3.2v-3.5h3.2V252.5z M152.5,241.5h-3.2v-3.5h3.2V241.5z M152.5,230.6
			h-3.2v-3.4h3.2V230.6z M170.8,265.5h-3.6V262h3.6V265.5z M175.6,251H172v-3.5h3.6V251z M180.3,265.5h-3.6V262h3.6V265.5z
			 M209.1,235.4c0.4,2.7,0.8,5.5,1.3,8.4l-9.4-7.9h8.1V235.4z M204.3,168.5l-4.5,3.2l-4.5-3.2H204.3z M196.3,166.3l3.6-2.3l3.6,2.3
			H196.3z M201.1,217.4l5.4-5.6c0.1,1.7,0.3,3.6,0.4,5.6H201.1z M207.1,218.7c0,0.2,0,0.5,0.1,0.7c0.2,1.9,0.4,3.9,0.6,6l-6.5-6.7
			H207.1z M204.7,178.5l-4.8,3.4l-4.8-3.4H204.7z M195.2,176.3l4.7-3.3l4.7,3.3H195.2z M206.3,178.8v7.6l-5.4-3.8L206.3,178.8z
			 M204.9,186.9h-10.1l5-3.5L204.9,186.9z M205.1,189.1l-5.3,3.7l-5.3-3.7H205.1z M206.3,189.7v7.6l-5.4-3.8L206.3,189.7z
			 M205.4,198.2h-11.2l5.6-3.9L205.4,198.2z M204.9,200.4l-5,3.5l-5-3.5H204.9z M204.7,208.7H195l4.8-3.4L204.7,208.7z M205.8,210.9
			l-6,6.2l-6-6.2H205.8z M200.8,204.6l5.4-3.8v3.5c0,1.1,0,2.5,0.1,4.2L200.8,204.6z M206.3,176.2l-5.4-3.8l5.4-3.8V176.2z
			 M198.8,172.4l-5.3,3.7v-7.4L198.8,172.4z M198.8,182.6l-5.3,3.7v-7.4L198.8,182.6z M198.8,193.5l-5.3,3.7v-7.4L198.8,193.5z
			 M198.8,204.6l-5.4,3.8c0.1-1.6,0.1-2.9,0.1-4.1v-3.4L198.8,204.6z M198.5,217.4h-5.7c0.1-1.1,0.2-2.1,0.3-3.1
			c0.1-0.8,0.1-1.6,0.2-2.3L198.5,217.4z M198.3,218.7l-6.3,6.6c0.3-2.3,0.5-4.5,0.7-6.6H198.3z M199.8,218.8l8.2,8.5
			c0,0.2,0,0.4,0.1,0.5l-8,6.7h-0.6l-7.8-6.6c0-0.3,0.1-0.6,0.1-0.9L199.8,218.8z M209,234.6h-7.1l6.4-5.4
			C208.5,231,208.7,232.8,209,234.6z M217,208.7h-8.5c0-0.1,0-0.2,0-0.3c-0.1-1.6-0.1-3-0.1-4.1v-2.9L217,208.7z M217,186.9h-8.7
			v-7.3L217,186.9z M210.8,160.8l-4,5.5h-1.2l-4.6-3l4-2.5H210.8z M202.7,160.8l-2.9,1.8l-2.9-1.8H202.7z M189,160.8h5.8l3.9,2.5
			l-4.7,3h-1L189,160.8z M182.9,186.9l8.7-7.3v7.3H182.9z M182.9,208.7l8.7-7.3v2.9c0,1.1,0,2.5-0.1,4.1c0,0.1,0,0.2,0,0.3H182.9z
			 M191.5,229.3l6.2,5.2h-6.9C191.1,232.8,191.3,231,191.5,229.3z M190.6,235.8h8l-9.2,7.7C189.9,241,190.3,238.4,190.6,235.8z
			 M190.8,260l-3.9-3.1c0.2-0.7,0.3-1.5,0.5-2.2h10.4L190.8,260z M187.6,253.4c0.5-2.4,0.9-4.8,1.3-7.1l9.4,7.1H187.6z M199.9,253.1
			l-10.5-7.9l10.5-8.8l10.5,8.8L199.9,253.1z M209.3,256.2v4l-7.3-5.5h10.2L209.3,256.2z M201.4,253.4l9.5-7.2
			c0.4,2.4,0.9,4.8,1.4,7.2H201.4z M220.8,263.5H218v-3.7h2.8V263.5z M224.7,252.4h-2.8v-3.7h2.8V252.4z M228.7,263.5h-2.8v-3.7h2.8
			V263.5z M232.8,252.4H230v-3.7h2.8V252.4z M236.6,263.5h-2.8v-3.7h2.8V263.5z M244.2,255.6l-2.5-1.4v-1h2.5V255.6z M244.2,248.3
			h-2.5v-3.8h2.5V248.3z M244.2,239.5h-2.5v-3.8h2.5V239.5z M244.2,230.8h-2.5V227h2.5V230.8z M244.2,222.1h-2.5v-3.8h2.5V222.1z
			 M251.6,265.7h-2.5v-3.8h2.5V265.7z M251.6,257h-2.5v-3.8h2.5V257z M251.6,248.3h-2.5v-3.8h2.5V248.3z M251.6,239.5h-2.5v-3.8h2.5
			V239.5z M251.6,230.8h-2.5V227h2.5V230.8z M251.6,222.1h-2.5v-3.8h2.5V222.1z M251.6,212.1h-2.5v-2.4h2.5V212.1z M259,265.7h-2.5
			v-3.8h2.5V265.7z M259,257h-2.5v-3.8h2.5V257z M259,248.3h-2.5v-3.8h2.5V248.3z M259,239.5h-2.5v-3.8h2.5V239.5z M259,230.8h-2.5
			V227h2.5V230.8z M259,222.1h-2.5v-3.8h2.5V222.1z M263.2,264.4h-0.4v-2.5h0.4V264.4z M263.2,257.4h-0.4v-2.5h0.4V257.4z
			 M263.2,250.3h-0.4v-2.5h0.4V250.3z M263.2,243.3h-0.4v-2.5h0.4V243.3z M263.2,236.2h-0.4v-2.5h0.4V236.2z M263.2,229.1h-0.4v-2.5
			h0.4V229.1z M263.2,222.1h-0.4v-2.5h0.4V222.1z M275.8,260.5h-5.3v-4.2h5.3V260.5z M275.8,247.9h-5.3v-4.2h5.3V247.9z
			 M275.8,235.3h-5.3v-4.2h5.3V235.3z M275.8,222.6h-5.3v-4.2h5.3V222.6z M275.8,210h-5.3v-4.2h5.3V210z M275.8,197.4h-5.3v-4.2h5.3
			V197.4z M275.8,184.8h-5.3v-4.2h5.3V184.8z M664.5,225.3v-4.9l-13.4-15.5l-13,15.1l-13-15.1l-13.4,15.5v29.1h-4.9v-55.3h-36.3
			v-73.6h-8.3v-4.4h8.3v-3.5h-38.7v3.5h8.3v4.4h-8.3v135l-2.2-1.8v-6.1l1.6,1.3v-2.6l-10.9-8.9l-10.9,8.9v2.6l1.6-1.3v6.1l-8.2,6.7
			v-74.2l-20.3-6.9l-13.9,5.9V216h-6l-6.2-7.1l-6.2,7.1h-4.3v-63l-12.9-4.5l-12.9,4.5v11.2h-18v-11.2l-12.9-4.5l-12.9,4.5v85.9h-6.1
			V203l-24.7-12.9v14h-2.9v-71.2h-5.2v-9.2h-4.5v-6.8h-5.6V94.2h-2.8v22.7h-5.6v6.8h-4.5v9.2H309v58.6c-0.5-1.1-1-2.2-1.6-3.2h-12.8
			c-6.9,11.7-6.9,32.9-6.9,39.3c0,6.4,0,41.4,0,41.4h215v-5.9l0.4-0.4v6.3h180v-43.7H664.5z M295.1,265.6h-2.4v-4.7h2.4V265.6z
			 M295.1,254.9h-2.4v-4.7h2.4V254.9z M295.1,244.1h-2.4v-4.7h2.4V244.1z M295.1,233.4h-2.4v-4.7h2.4V233.4z M295.1,222.7h-2.4V218
			h2.4V222.7z M295.1,212h-2.4v-4.6h2.4V212z M302.2,265.6h-2.4v-4.7h2.4V265.6z M302.2,254.9h-2.4v-4.7h2.4V254.9z M302.2,244.1
			h-2.4v-4.7h2.4V244.1z M302.2,233.4h-2.4v-4.7h2.4V233.4z M302.2,222.7h-2.4V218h2.4V222.7z M302.2,212h-2.4v-4.6h2.4V212z
			 M302.2,201.2h-2.4v-4.7h2.4V201.2z M309,265.6h-2.1v-4.7h2.1V265.6z M309,254.9h-2.1v-4.7h2.1V254.9z M309,244.1h-2.1v-4.7h2.1
			V244.1z M309,233.4h-2.1v-4.7h2.1V233.4z M309,222.7h-2.1V218h2.1V222.7z M309,212h-2.1v-4.6h2.1V212z M318.6,261.7h-2.9v-8h2.9
			V261.7z M318.6,243.3h-2.9v-8h2.9V243.3z M318.6,225h-2.9v-8h2.9V225z M318.6,206.7h-2.9v-8h2.9V206.7z M318.6,188.3h-2.9v-8h2.9
			V188.3z M318.6,170h-2.9v-8h2.9V170z M318.6,151.7h-2.9v-8h2.9V151.7z M327.2,261.7h-2.9v-8h2.9V261.7z M327.2,243.3h-2.9v-8h2.9
			V243.3z M327.2,225h-2.9v-8h2.9V225z M327.2,206.7h-2.9v-8h2.9V206.7z M327.2,188.3h-2.9v-8h2.9V188.3z M327.2,170h-2.9v-8h2.9
			V170z M327.2,151.7h-2.9v-8h2.9V151.7z M335.9,261.7H333v-8h2.9V261.7z M335.9,243.3H333v-8h2.9V243.3z M335.9,225H333v-8h2.9V225
			z M335.9,206.7H333v-8h2.9V206.7z M335.9,188.3H333v-8h2.9V188.3z M335.9,170H333v-8h2.9V170z M335.9,151.7H333v-8h2.9V151.7z
			 M348,263.6h-3v-6h3V263.6z M348,249.8h-3v-6h3V249.8z M348,236h-3v-6h3V236z M348,222.2h-3v-6h3V222.2z M356.9,263.6h-3v-6h3
			V263.6z M356.9,249.8h-3v-6h3V249.8z M356.9,236h-3v-6h3V236z M356.9,222.2h-3v-6h3V222.2z M365.8,263.6h-3v-6h3V263.6z
			 M365.8,249.8h-3v-6h3V249.8z M365.8,236h-3v-6h3V236z M365.8,222.2h-3v-6h3V222.2z M391.9,259.6h-4.1v-8.1h4.1V259.6z M391.9,241
			h-4.1v-8.1h4.1V241z M391.9,222.4h-4.1v-8.1h4.1V222.4z M391.9,203.8h-4.1v-8.1h4.1V203.8z M391.9,185.2h-4.1v-8.1h4.1V185.2z
			 M393.4,162.9h-8.7v-5.8l4.4-1.5l4.4,1.5V162.9z M405.5,259.6h-4.1v-8.1h4.1V259.6z M405.5,241h-4.1v-8.1h4.1V241z M405.5,222.4
			h-4.1v-8.1h4.1V222.4z M405.5,203.8h-4.1v-8.1h4.1V203.8z M405.5,185.2h-4.1v-8.1h4.1V185.2z M420.6,259.6h-4.1v-8.1h4.1V259.6z
			 M420.6,241h-4.1v-8.1h4.1V241z M420.6,222.4h-4.1v-8.1h4.1V222.4z M420.6,203.8h-4.1v-8.1h4.1V203.8z M420.6,185.2h-4.1v-8.1h4.1
			V185.2z M434.2,259.6h-4.1v-8.1h4.1V259.6z M434.2,241h-4.1v-8.1h4.1V241z M434.2,222.4h-4.1v-8.1h4.1V222.4z M434.2,203.8h-4.1
			v-8.1h4.1V203.8z M434.2,185.2h-4.1v-8.1h4.1V185.2z M437.3,162.9h-8.7v-5.8l4.4-1.5l4.4,1.5V162.9z M448.5,259.8h-2.4v-4.7h2.4
			V259.8z M448.5,249.2h-2.4v-4.7h2.4V249.2z M448.5,238.5h-2.4v-4.7h2.4V238.5z M448.5,227.9h-2.4v-4.7h2.4V227.9z M457.6,259.8
			h-2.4v-4.7h2.4V259.8z M457.6,249.2h-2.4v-4.7h2.4V249.2z M457.6,238.5h-2.4v-4.7h2.4V238.5z M457.6,227.9h-2.4v-4.7h2.4V227.9z
			 M466.7,259.8h-2.4v-4.7h2.4V259.8z M466.7,249.2h-2.4v-4.7h2.4V249.2z M466.7,238.5h-2.4v-4.7h2.4V238.5z M466.7,227.9h-2.4v-4.7
			h2.4V227.9z M487.9,260.2h-2.1v-5.5l2.1,0.1V260.2z M487.9,248.2l-2.1-0.2v-5.5l2.1,0.2V248.2z M487.9,236.2l-2.1-0.3v-5.5
			l2.1,0.4V236.2z M487.9,224.2l-2.1-0.5v-5.5l2.1,0.5V224.2z M487.9,212.2l-2.1-0.6v-5.5l2.1,0.7V212.2z M487.9,200.2l-2.1-0.8V194
			l2.1,0.8V200.2z M493.8,260.2h-2v-5.3l2,0.1V260.2z M493.8,248.6l-2-0.1v-5.3l2,0.2V248.6z M493.8,237l-2-0.3v-5.3l2,0.3V237z
			 M493.8,225.5l-2-0.4v-5.3l2,0.5V225.5z M493.8,213.9l-2-0.6v-5.3l2,0.6V213.9z M493.8,202.3l-2-0.7v-5.3l2,0.8V202.3z
			 M499.4,260.2h-1.8v-5.1l1.8,0.1V260.2z M499.4,249l-1.8-0.1v-5.1l1.8,0.2V249z M499.4,237.8l-1.8-0.3v-5.1l1.8,0.3V237.8z
			 M499.4,226.7l-1.8-0.4v-5.1l1.8,0.5V226.7z M499.4,215.5l-1.8-0.5v-5.1l1.8,0.6V215.5z M499.4,204.3l-1.8-0.7v-5.1l1.8,0.7V204.3
			z M517.3,265.5h-3.6V262h3.6V265.5z M522.1,251h-3.6v-3.5h3.6V251z M526.8,265.5h-3.6V262h3.6V265.5z M543.4,257.7h-3.2v-8.6h3.2
			V257.7z M543.4,237.9h-3.2v-8.6h3.2V237.9z M543.4,218.2h-3.2v-8.6h3.2V218.2z M543.4,198.4h-3.2v-8.6h3.2V198.4z M543.4,178.7
			h-3.2v-8.6h3.2V178.7z M543.4,158.9h-3.2v-8.6h3.2V158.9z M543.4,139.2h-3.2v-8.6h3.2V139.2z M552.7,257.7h-3.2v-8.6h3.2V257.7z
			 M552.7,237.9h-3.2v-8.6h3.2V237.9z M552.7,218.2h-3.2v-8.6h3.2V218.2z M552.7,198.4h-3.2v-8.6h3.2V198.4z M552.7,178.7h-3.2v-8.6
			h3.2V178.7z M552.7,158.9h-3.2v-8.6h3.2V158.9z M552.7,139.2h-3.2v-8.6h3.2V139.2z M562,257.7h-3.2v-8.6h3.2V257.7z M562,237.9
			h-3.2v-8.6h3.2V237.9z M562,218.2h-3.2v-8.6h3.2V218.2z M562,198.4h-3.2v-8.6h3.2V198.4z M562,178.7h-3.2v-8.6h3.2V178.7z
			 M562,158.9h-3.2v-8.6h3.2V158.9z M562,139.2h-3.2v-8.6h3.2V139.2z M584.6,262.6h-5.3v-5.1h5.3V262.6z M584.6,244.7h-5.3v-5.1h5.3
			V244.7z M584.6,226.8h-5.3v-5.1h5.3V226.8z M584.6,208.8h-5.3v-5.1h5.3V208.8z M594.7,262.6h-5.3v-5.1h5.3V262.6z M594.7,244.7
			h-5.3v-5.1h5.3V244.7z M594.7,226.8h-5.3v-5.1h5.3V226.8z M594.7,208.8h-5.3v-5.1h5.3V208.8z M627.2,254.1h-4.6v-4.9h4.6V254.1z
			 M627.2,239.2h-4.6v-4.9h4.6V239.2z M640.4,254.1h-4.6v-4.9h4.6V254.1z M640.4,239.2h-4.6v-4.9h4.6V239.2z M653.7,254.1H649v-4.9
			h4.6V254.1z M653.7,239.2H649v-4.9h4.6V239.2z"/>
	</g>
</g>
<g>
	<g>
		<path class="st0" d="M1380.8,150.7l-12.7,4.4v11h-17.7v-11l-12.7-4.4l-12.7,4.4V217h-4.2l-6.1-7l-6.1,7h-5.9v-30.1l-13.6-5.7
			l-19.9,6.8v72.8l-8.1-6.6v-6l1.5,1.3v-2.5l-10.7-8.7l-10.7,8.7v2.5l1.5-1.3v6l-2.1,1.7V123.4h-8.2v-4.3h8.2v-3.4h-37.9v3.4h8.2
			v4.3h-8.2v72.2h-35.7v54.2h-4.9v-28.6l-13.1-15.3l-12.8,14.9l-12.8-14.9l-13.1,15.3v4.8h-18.3V269h176.6v-6.1l0.4,0.4v5.8h124.2
			V155.1L1380.8,150.7z M1125.7,254.4h-4.5v-4.8h4.5V254.4z M1125.7,239.7h-4.5v-4.8h4.5V239.7z M1138.7,254.4h-4.5v-4.8h4.5V254.4z
			 M1138.7,239.7h-4.5v-4.8h4.5V239.7z M1151.7,254.4h-4.5v-4.8h4.5V254.4z M1151.7,239.7h-4.5v-4.8h4.5V239.7z M1184.2,262.7h-5.2
			v-5h5.2V262.7z M1184.2,245.1h-5.2v-5h5.2V245.1z M1184.2,227.5h-5.2v-5h5.2V227.5z M1184.2,210h-5.2v-5h5.2V210z M1194.1,262.7
			h-5.2v-5h5.2V262.7z M1194.1,245.1h-5.2v-5h5.2V245.1z M1194.1,227.5h-5.2v-5h5.2V227.5z M1194.1,210h-5.2v-5h5.2V210z
			 M1214.2,257.9h-3.1v-8.4h3.1V257.9z M1214.2,238.5h-3.1v-8.4h3.1V238.5z M1214.2,219.1h-3.1v-8.4h3.1V219.1z M1214.2,199.8h-3.1
			v-8.4h3.1V199.8z M1214.2,180.4h-3.1V172h3.1V180.4z M1214.2,161h-3.1v-8.4h3.1V161z M1214.2,141.6h-3.1v-8.4h3.1V141.6z
			 M1223.4,257.9h-3.1v-8.4h3.1V257.9z M1223.4,238.5h-3.1v-8.4h3.1V238.5z M1223.4,219.1h-3.1v-8.4h3.1V219.1z M1223.4,199.8h-3.1
			v-8.4h3.1V199.8z M1223.4,180.4h-3.1V172h3.1V180.4z M1223.4,161h-3.1v-8.4h3.1V161z M1223.4,141.6h-3.1v-8.4h3.1V141.6z
			 M1232.5,257.9h-3.1v-8.4h3.1V257.9z M1232.5,238.5h-3.1v-8.4h3.1V238.5z M1232.5,219.1h-3.1v-8.4h3.1V219.1z M1232.5,199.8h-3.1
			v-8.4h3.1V199.8z M1232.5,180.4h-3.1V172h3.1V180.4z M1232.5,161h-3.1v-8.4h3.1V161z M1232.5,141.6h-3.1v-8.4h3.1V141.6z
			 M1249.2,265.6h-3.5v-3.5h3.5V265.6z M1253.8,251.3h-3.5v-3.5h3.5V251.3z M1258.5,265.6h-3.5v-3.5h3.5V265.6z M1274.4,260.3h-1.8
			v-4.9l1.8-0.1V260.3z M1274.4,249.2l-1.8,0.1v-4.9l1.8-0.2V249.2z M1274.4,238.1l-1.8,0.3v-4.9l1.8-0.3V238.1z M1274.4,227.1
			l-1.8,0.4v-4.9l1.8-0.4V227.1z M1274.4,216l-1.8,0.5v-4.9l1.8-0.6V216z M1274.4,204.9l-1.8,0.6v-4.9l1.8-0.7V204.9z M1280,260.3
			h-1.9v-5.1l1.9-0.1V260.3z M1280,248.8l-1.9,0.1v-5.1l1.9-0.2V248.8z M1280,237.4l-1.9,0.3v-5.1l1.9-0.3V237.4z M1280,225.9
			l-1.9,0.4v-5.1l1.9-0.5V225.9z M1280,214.4l-1.9,0.6v-5.1l1.9-0.6V214.4z M1280,202.9l-1.9,0.7v-5.1l1.9-0.8V202.9z M1285.9,260.3
			h-2.1V255l2.1-0.1V260.3z M1285.9,248.4l-2.1,0.1v-5.3l2.1-0.2V248.4z M1285.9,236.5l-2.1,0.3v-5.3l2.1-0.4V236.5z M1285.9,224.6
			l-2.1,0.4v-5.3l2.1-0.5V224.6z M1285.9,212.7l-2.1,0.6V208l2.1-0.7V212.7z M1285.9,200.8l-2.1,0.7v-5.3l2.1-0.8V200.8z M1307,260
			h-2.3v-4.6h2.3V260z M1307,249.5h-2.3v-4.6h2.3V249.5z M1307,239.1h-2.3v-4.6h2.3V239.1z M1307,228.7h-2.3V224h2.3V228.7z
			 M1315.9,260h-2.3v-4.6h2.3V260z M1315.9,249.5h-2.3v-4.6h2.3V249.5z M1315.9,239.1h-2.3v-4.6h2.3V239.1z M1315.9,228.7h-2.3V224
			h2.3V228.7z M1324.8,260h-2.3v-4.6h2.3V260z M1324.8,249.5h-2.3v-4.6h2.3V249.5z M1324.8,239.1h-2.3v-4.6h2.3V239.1z
			 M1324.8,228.7h-2.3V224h2.3V228.7z M1340.5,259.8h-4v-8h4V259.8z M1340.5,241.5h-4v-8h4V241.5z M1340.5,223.3h-4v-8h4V223.3z
			 M1340.5,205h-4v-8h4V205z M1340.5,186.8h-4v-8h4V186.8z M1342,164.9h-8.6v-5.6l4.3-1.5l4.3,1.5V164.9z M1353.9,259.8h-4v-8h4
			V259.8z M1353.9,241.5h-4v-8h4V241.5z M1353.9,223.3h-4v-8h4V223.3z M1353.9,205h-4v-8h4V205z M1353.9,186.8h-4v-8h4V186.8z
			 M1368.7,259.8h-4v-8h4V259.8z M1368.7,241.5h-4v-8h4V241.5z M1368.7,223.3h-4v-8h4V223.3z M1368.7,205h-4v-8h4V205z
			 M1368.7,186.8h-4v-8h4V186.8z M1382.1,259.8h-4v-8h4V259.8z M1382.1,241.5h-4v-8h4V241.5z M1382.1,223.3h-4v-8h4V223.3z
			 M1382.1,205h-4v-8h4V205z M1382.1,186.8h-4v-8h4V186.8z M1385.1,164.9h-8.6v-5.6l4.3-1.5l4.3,1.5V164.9z"/>
	</g>
</g>
<g>
	<g>
		<path class="st0" d="M953.3,246.6v-9l2.3,1.9v-3.8l-16.1-13.1l-16.1,13.1v3.8l2.3-1.9v9l-2.7,2.2v-48.9h-5.5v-10.2h-17.3v10.2
			h-20.4v-53.3h-5.3v-8h5.3v-5.3h-33.4v5.3h5.3v8h-5.3v70.5h-18.7v-86.5h-34.7v5.3h8v9.3h-8v72.7l-14.4-7.3l-14,7.1v-25.6h-6.2
			v-11.3h-19.3v11.3h-24.9v16.9h-8v7.9h8v9h-6l-4.2-3.4l-16.5,12.4v3h-4.4l0,31h273.1V249L953.3,246.6z M706.4,261h-5.2v-5.8h5.2
			V261z M706.4,244.2h-5.2v-5.8h5.2V244.2z M733.9,260h-5.2v-5.7h5.2V260z M733.9,242h-5.2v-5.7h5.2V242z M733.9,224h-5.2v-5.7h5.2
			V224z M733.9,205.9h-5.2v-5.7h5.2V205.9z M748.1,260h-5.2v-5.7h5.2V260z M748.1,242h-5.2v-5.7h5.2V242z M748.1,224h-5.2v-5.7h5.2
			V224z M748.1,205.9h-5.2v-5.7h5.2V205.9z M774.9,243.6h-5.2V236h5.2V243.6z M781.4,262.8h-5.2v-7.6h5.2V262.8z M787.8,243.6h-5.2
			V236h5.2V243.6z M817.8,154.2h3.2v7.7h-3.2V154.2z M817.8,173.7h3.2v7.7h-3.2V173.7z M817.8,193.2h3.2v7.7h-3.2V193.2z
			 M809.1,154.2h3.2v7.7h-3.2V154.2z M809.1,173.7h3.2v7.7h-3.2V173.7z M809.1,193.2h3.2v7.7h-3.2V193.2z M801,154.2h3.2v7.7H801
			V154.2z M801,173.7h3.2v7.7H801V173.7z M801,193.2h3.2v7.7H801V193.2z M801,212.8h3.2v7.7H801V212.8z M808.4,258.2h-5.8v-4.6h5.8
			V258.2z M808.4,247.9h-5.8v-4.6h5.8V247.9z M808.4,237.7h-5.8V233h5.8V237.7z M809.1,212.8h3.2v7.7h-3.2V212.8z M817.3,258.2h-5.8
			v-4.6h5.8V258.2z M817.3,247.9h-5.8v-4.6h5.8V247.9z M817.3,237.7h-5.8V233h5.8V237.7z M817.8,212.8h3.2v7.7h-3.2V212.8z
			 M826.3,258.2h-5.8v-4.6h5.8V258.2z M826.3,247.9h-5.8v-4.6h5.8V247.9z M826.3,237.7h-5.8V233h5.8V237.7z M835.2,258.2h-5.8v-4.6
			h5.8V258.2z M835.2,247.9h-5.8v-4.6h5.8V247.9z M835.2,237.7h-5.8V233h5.8V237.7z M844.1,258.2h-5.8v-4.6h5.8V258.2z M844.1,247.9
			h-5.8v-4.6h5.8V247.9z M844.1,237.7h-5.8V233h5.8V237.7z M864.2,154.2h3.2v7.7h-3.2V154.2z M864.2,173.7h3.2v7.7h-3.2V173.7z
			 M864.2,193.2h3.2v7.7h-3.2V193.2z M856.1,154.2h3.2v7.7h-3.2V154.2z M856.1,173.7h3.2v7.7h-3.2V173.7z M856.1,193.2h3.2v7.7h-3.2
			V193.2z M856.1,212.8h3.2v7.7h-3.2V212.8z M853,258.2h-5.8v-4.6h5.8V258.2z M853,247.9h-5.8v-4.6h5.8V247.9z M853,237.7h-5.8V233
			h5.8V237.7z M861.9,258.2h-5.8v-4.6h5.8V258.2z M861.9,247.9h-5.8v-4.6h5.8V247.9z M861.9,237.7h-5.8V233h5.8V237.7z M864.2,212.8
			h3.2v7.7h-3.2V212.8z M870.8,258.2H865v-4.6h5.8V258.2z M870.8,245.6h-0.2v2.3H865v-4.6h5.8V245.6z M870.8,237.7H865V233h5.6v4.5
			h0.2V237.7z M895.3,260.9h-4.7v-5.1h4.7V260.9z M895.3,244.7h-4.7v-5.1h4.7V244.7z M895.3,228.5h-4.7v-5.1h4.7V228.5z
			 M895.3,212.3h-4.7v-5.1h4.7V212.3z M908.2,260.9h-4.7v-5.1h4.7V260.9z M908.2,244.7h-4.7v-5.1h4.7V244.7z M908.2,228.5h-4.7v-5.1
			h4.7V228.5z M908.2,212.3h-4.7v-5.1h4.7V212.3z M935.2,263.9H930v-5.2h5.2V263.9z M942.2,242.4h-5.2v-5.2h5.2V242.4z"/>
	</g>
</g>
<path class="st0" d="M1081.6,144.9h-19.7c-0.9,1.5-1.7,3.2-2.5,4.9V59.6h-8.1V45.5h-7V35h-8.6V0h-4.3v35h-8.6v10.5h-7v14.1h-8.1
	v109.6h-4.5v-21.5l-38,19.8v55.1h-9.3V269h51.7h2.5h40.9h8.2h32.8c0,0,0-53.9,0-63.7C1092.2,195.5,1092.2,162.9,1081.6,144.9z
	 M976.8,260.7h-4.6v-9.2h4.6V260.7z M976.8,239.5h-4.6v-9.2h4.6V239.5z M976.8,218.2h-4.6V209h4.6V218.2z M976.8,197h-4.6v-9.2h4.6
	V197z M990.5,260.7h-4.6v-9.2h4.6V260.7z M990.5,239.5h-4.6v-9.2h4.6V239.5z M990.5,218.2h-4.6V209h4.6V218.2z M990.5,197h-4.6v-9.2
	h4.6V197z M1004.2,260.7h-4.6v-9.2h4.6V260.7z M1004.2,239.5h-4.6v-9.2h4.6V239.5z M1004.2,218.2h-4.6V209h4.6V218.2z M1004.2,197
	h-4.6v-9.2h4.6V197z M1022.6,257.7h-4.5v-12.2h4.5V257.7z M1022.6,229.5h-4.5v-12.2h4.5V229.5z M1022.6,201.3h-4.5v-12.2h4.5V201.3z
	 M1022.6,173.1h-4.5v-12.2h4.5V173.1z M1022.6,144.9h-4.5v-12.2h4.5V144.9z M1022.6,116.7h-4.5v-12.2h4.5V116.7z M1022.6,88.5h-4.5
	V76.2h4.5V88.5z M1035.9,257.7h-4.5v-12.2h4.5V257.7z M1035.9,229.5h-4.5v-12.2h4.5V229.5z M1035.9,201.3h-4.5v-12.2h4.5V201.3z
	 M1035.9,173.1h-4.5v-12.2h4.5V173.1z M1035.9,144.9h-4.5v-12.2h4.5V144.9z M1035.9,116.7h-4.5v-12.2h4.5V116.7z M1035.9,88.5h-4.5
	V76.2h4.5V88.5z M1049.2,257.7h-4.5v-12.2h4.5V257.7z M1049.2,229.5h-4.5v-12.2h4.5V229.5z M1049.2,201.3h-4.5v-12.2h4.5V201.3z
	 M1049.2,173.1h-4.5v-12.2h4.5V173.1z M1049.2,144.9h-4.5v-12.2h4.5V144.9z M1049.2,116.7h-4.5v-12.2h4.5V116.7z M1049.2,88.5h-4.5
	V76.2h4.5V88.5z M1062.7,263.7h-3.3v-7.2h3.3V263.7z M1062.7,247.2h-3.3v-7.2h3.3V247.2z M1062.7,230.7h-3.3v-7.2h3.3V230.7z
	 M1062.7,214.2h-3.3v-7.2h3.3V214.2z M1062.7,197.7h-3.3v-7.2h3.3V197.7z M1062.7,181.3h-3.3v-7.2h3.3V181.3z M1073.6,263.7h-3.7
	v-7.2h3.7V263.7z M1073.6,247.2h-3.7v-7.2h3.7V247.2z M1073.6,230.7h-3.7v-7.2h3.7V230.7z M1073.6,214.2h-3.7v-7.2h3.7V214.2z
	 M1073.6,197.7h-3.7v-7.2h3.7V197.7z M1073.6,181.3h-3.7v-7.2h3.7V181.3z M1073.6,164.8h-3.7v-7.2h3.7V164.8z M1084.5,263.7h-3.7
	v-7.2h3.7V263.7z M1084.5,247.2h-3.7v-7.2h3.7V247.2z M1084.5,230.7h-3.7v-7.2h3.7V230.7z M1084.5,214.2h-3.7v-7.2h3.7V214.2z
	 M1084.5,197.7h-3.7v-7.2h3.7V197.7z M1084.5,181.3h-3.7v-7.2h3.7V181.3z"/>
</svg>