<svg xmlns="http://www.w3.org/2000/svg" width="76.5" height="16.84" viewBox="0 0 76.5 16.84">
  <metadata><?xpacket begin="﻿" id="W5M0MpCehiHzreSzNTczkc9d"?>
<x:xmpmeta xmlns:x="adobe:ns:meta/" x:xmptk="Adobe XMP Core 5.6-c140 79.160451, 2017/05/06-01:08:21        ">
   <rdf:RDF xmlns:rdf="http://www.w3.org/1999/02/22-rdf-syntax-ns#">
      <rdf:Description rdf:about=""/>
   </rdf:RDF>
</x:xmpmeta>
                                                                                                    
                                                                                                    
                                                                                                    
                                                                                                    
                                                                                                    
                                                                                                    
                                                                                                    
                                                                                                    
                                                                                                    
                                                                                                    
                                                                                                    
                                                                                                    
                                                                                                    
                                                                                                    
                                                                                                    
                                                                                                    
                                                                                                    
                                                                                                    
                                                                                                    
                                                                                                    
                           
<?xpacket end="w"?></metadata>
<defs>
    <style>
      .cls-1 {
        fill: #222;
        fill-rule: evenodd;
      }
    </style>
  </defs>
  <path id="ttl_about" class="cls-1" d="M609.335,3375.18h-1.6c0,2.38.28,6-.9,8.1a5.948,5.948,0,0,1-2.881,2.24l0.8,1.3c4.161-2,4.582-4.78,4.582-9v-2.64Zm-8.123-3.5v1.3h14.164a16.837,16.837,0,0,1-3.841,6l1.1,1.04a17.5,17.5,0,0,0,4.662-8.34H601.212Zm36.825,14.1q-2.462-6.72-5.322-13.28l-1.54.56c1.921,4.34,3.661,8.78,5.261,13.26Zm-1.56-15.6h-1.221v3.24h1.221v-3.24Zm2.28,0h-1.2v3.24h1.2v-3.24Zm-13.044,2.3a34.351,34.351,0,0,1-5.241,13.08l1.38,0.84a36.344,36.344,0,0,0,5.482-13.6Zm33.164,1.18h-6.422v-3.28h-1.561v3.28h-6.542v5.78h1.641v-4.42h11.263c-0.08,5.54-2.621,8.86-7.842,10.6l0.6,1.43c5.9-2.01,8.863-5.97,8.863-12.21v-1.18Zm18.84,6.62c-3.441-1.44-6.9-2.74-10.443-3.96v-5.68h-1.6v16.12h1.6v-8.88c3.3,1.18,6.522,2.4,9.683,3.78Z" transform="translate(-601.219 -3370.19)"/>
</svg>
