<svg xmlns="http://www.w3.org/2000/svg" width="97.219" height="17.69" viewBox="0 0 97.219 17.69">
  <metadata><?xpacket begin="﻿" id="W5M0MpCehiHzreSzNTczkc9d"?>
<x:xmpmeta xmlns:x="adobe:ns:meta/" x:xmptk="Adobe XMP Core 5.6-c140 79.160451, 2017/05/06-01:08:21        ">
   <rdf:RDF xmlns:rdf="http://www.w3.org/1999/02/22-rdf-syntax-ns#">
      <rdf:Description rdf:about=""/>
   </rdf:RDF>
</x:xmpmeta>
                                                                                                    
                                                                                                    
                                                                                                    
                                                                                                    
                                                                                                    
                                                                                                    
                                                                                                    
                                                                                                    
                                                                                                    
                                                                                                    
                                                                                                    
                                                                                                    
                                                                                                    
                                                                                                    
                                                                                                    
                                                                                                    
                                                                                                    
                                                                                                    
                                                                                                    
                                                                                                    
                           
<?xpacket end="w"?></metadata>
<defs>
    <style>
      .cls-1 {
        fill: #222;
        fill-rule: evenodd;
      }
    </style>
  </defs>
  <path id="ttl_product" class="cls-1" d="M590.892,2092.9v1.4h12.984c-0.14,5.56-2.581,9.86-8.642,12.04l0.64,1.32c6.782-2.34,9.343-7,9.623-13.24a3.355,3.355,0,0,0,.58.06,2.212,2.212,0,0,0,2.2-2.16,2.257,2.257,0,0,0-2.2-2.18,2.225,2.225,0,0,0-2.181,2.18,1.933,1.933,0,0,0,.08.58H590.892Zm16.465-.58a1.272,1.272,0,0,1-1.28,1.26,1.26,1.26,0,1,1,0-2.52A1.312,1.312,0,0,1,607.357,2092.32Zm6.2,13.42v-11.48h11.3v11.48h-11.3Zm12.9-12.78H611.973v14.06h14.484v-14.06Zm20.44-2.22h-1.241l0.02,1.94h-9.082a12.384,12.384,0,0,1-5.3,6.62l0.961,1.26a13.758,13.758,0,0,0,5.561-6.46h7.122a20.233,20.233,0,0,1-2.581,6.32c-1.14-.86-2.32-1.7-3.561-2.46l-0.84,1.18c1.221,0.78,2.4,1.58,3.561,2.44-1.4,2.28-4.461,4-7,4.76l0.52,1.44a15.013,15.013,0,0,0,7.743-5.2l2,1.54,0.94-1.08c-0.68-.58-1.38-1.12-2.08-1.62a22.673,22.673,0,0,0,3.041-7.46l0.22-1.22v-2Zm2.2,0h-1.22v3.24h1.22v-3.24Zm19.04,1.94H656.594a11.734,11.734,0,0,1-5.1,6.44l0.96,1.28a13.172,13.172,0,0,0,5.242-6.32l8.523-.02c-1.4,5.76-4.6,10.52-10.524,12.3l0.561,1.44C663.436,2105.64,666.977,2099.72,668.137,2092.68Zm19.98,8.6c-3.441-1.44-6.9-2.74-10.443-3.96v-5.68h-1.6v16.12h1.6v-8.88c3.3,1.18,6.522,2.4,9.683,3.78Z" transform="translate(-590.906 -2090.12)"/>
</svg>
