<svg xmlns="http://www.w3.org/2000/svg" width="77.906" height="17.75" viewBox="0 0 77.906 17.75">
  <metadata><?xpacket begin="﻿" id="W5M0MpCehiHzreSzNTczkc9d"?>
<x:xmpmeta xmlns:x="adobe:ns:meta/" x:xmptk="Adobe XMP Core 5.6-c140 79.160451, 2017/05/06-01:08:21        ">
   <rdf:RDF xmlns:rdf="http://www.w3.org/1999/02/22-rdf-syntax-ns#">
      <rdf:Description rdf:about=""/>
   </rdf:RDF>
</x:xmpmeta>
                                                                                                    
                                                                                                    
                                                                                                    
                                                                                                    
                                                                                                    
                                                                                                    
                                                                                                    
                                                                                                    
                                                                                                    
                                                                                                    
                                                                                                    
                                                                                                    
                                                                                                    
                                                                                                    
                                                                                                    
                                                                                                    
                                                                                                    
                                                                                                    
                                                                                                    
                                                                                                    
                           
<?xpacket end="w"?></metadata>
<defs>
    <style>
      .cls-1 {
        fill: #fff;
        fill-rule: evenodd;
      }
    </style>
  </defs>
  <path id="ttl_policy" class="cls-1" d="M617.157,860.24a1.3,1.3,0,0,1-1.32,1.3,1.3,1.3,0,0,1,0-2.6A1.328,1.328,0,0,1,617.157,860.24Zm-13.084,6.422a23.925,23.925,0,0,1-3.641,6.6l1.2,0.86a25.85,25.85,0,0,0,3.862-6.962Zm12.6-3.7h-6.9v-3.3h-1.621v3.3h-6.982v1.3h6.982v11.4h1.621v-11.4h6.9v-1.3Zm0.76,9.763c-1.16-2.1-2.341-4.2-3.621-6.222l-1.3.76c1.22,2,2.4,4.082,3.561,6.162Zm0.62-12.484a2.229,2.229,0,0,0-2.22-2.16,2.2,2.2,0,0,0-2.141,2.16,2.164,2.164,0,0,0,2.141,2.181A2.194,2.194,0,0,0,618.057,860.24Zm6.756-.38h-1.68v9.383h1.68V859.86Zm10.563-.2h-1.6c-0.06,5.022.34,8.363-.96,11.244-0.921,2.02-2.561,2.92-4.662,3.481l0.52,1.46c6.062-1.68,6.7-5.922,6.7-11.443V859.66Zm13.7,5.862h-6.261v1.42h6.261v-1.42Zm7.5-.44c-2.221,6.9-6.082,9.083-13.144,9.063v1.54c7.762,0,12.183-2.621,14.684-10.123Zm-7.5-4.4h-6.261v1.44h6.261v-1.44Zm29.283,6.221H662.032v1.521h16.325V866.9Z" transform="translate(-600.438 -858.094)"/>
</svg>
