<svg id="tuki" xmlns="http://www.w3.org/2000/svg" width="74" height="72" viewBox="0 0 74 72">
  <metadata><?xpacket begin="﻿" id="W5M0MpCehiHzreSzNTczkc9d"?>
<x:xmpmeta xmlns:x="adobe:ns:meta/" x:xmptk="Adobe XMP Core 5.6-c140 79.160451, 2017/05/06-01:08:21        ">
   <rdf:RDF xmlns:rdf="http://www.w3.org/1999/02/22-rdf-syntax-ns#">
      <rdf:Description rdf:about=""/>
   </rdf:RDF>
</x:xmpmeta>
                                                                                                    
                                                                                                    
                                                                                                    
                                                                                                    
                                                                                                    
                                                                                                    
                                                                                                    
                                                                                                    
                                                                                                    
                                                                                                    
                                                                                                    
                                                                                                    
                                                                                                    
                                                                                                    
                                                                                                    
                                                                                                    
                                                                                                    
                                                                                                    
                                                                                                    
                                                                                                    
                           
<?xpacket end="w"?></metadata>
<defs>
    <style>
      .cls-1 {
        fill: #f0f0f0;
      }

      .cls-1, .cls-2, .cls-3, .cls-4 {
        fill-rule: evenodd;
      }

      .cls-2 {
        fill: #d7d7d7;
      }

      .cls-3 {
        fill: #727272;
      }

      .cls-4 {
        fill: #4e4e4e;
      }
    </style>
  </defs>
  <path id="tuki-2" data-name="tuki" class="cls-1" d="M104,97h2v2h-2V97Zm2,0h2v2h-2V97Zm2,0h2v2h-2V97Zm2,0h2v2h-2V97Zm2,0h2v2h-2V97Zm2,0h2v2h-2V97Zm2,0h2v2h-2V97Zm2,0h2v2h-2V97Zm2,0h2v2h-2V97Zm-16,2h2v2h-2V99Zm2,0h2v2h-2V99Zm2,0h2v2h-2V99Zm2,0h2v2h-2V99Zm2,0h2v2h-2V99Zm2,0h2v2h-2V99Zm2,0h2v2h-2V99Zm2,0h2v2h-2V99Zm2,0h2v2h-2V99Zm-16,2h2v2h-2v-2Zm2,0h2v2h-2v-2Zm2,0h2v2h-2v-2Zm2,0h2v2h-2v-2Zm2,0h2v2h-2v-2Zm2,0h2v2h-2v-2Zm2,0h2v2h-2v-2Zm2,0h2v2h-2v-2Zm2,0h2v2h-2v-2ZM98,99h2v2H98V99Zm2,0h2v2h-2V99Zm2,0h2v2h-2V99Zm-4,2h2v2H98v-2Zm2,0h2v2h-2v-2Zm2,0h2v2h-2v-2Zm20-2h2v2h-2V99Zm2,0h2v2h-2V99Zm2,0h2v2h-2V99Zm-4,2h2v2h-2v-2Zm2,0h2v2h-2v-2Zm2,0h2v2h-2v-2Zm-22,2h2v2h-2v-2Zm2,0h2v2h-2v-2Zm2,0h2v2h-2v-2Zm2,0h2v2h-2v-2Zm2,0h2v2h-2v-2Zm2,0h2v2h-2v-2Zm2,0h2v2h-2v-2Zm2,0h2v2h-2v-2Zm2,0h2v2h-2v-2Zm-16,2h2v2h-2v-2Zm2,0h2v2h-2v-2Zm2,0h2v2h-2v-2Zm2,0h2v2h-2v-2Zm2,0h2v2h-2v-2Zm2,0h2v2h-2v-2Zm2,0h2v2h-2v-2Zm2,0h2v2h-2v-2Zm2,0h2v2h-2v-2Zm-22-2h2v2H98v-2Zm2,0h2v2h-2v-2Zm2,0h2v2h-2v-2Zm-4,2h2v2H98v-2Zm2,0h2v2h-2v-2Zm2,0h2v2h-2v-2Zm20-2h2v2h-2v-2Zm2,0h2v2h-2v-2Zm2,0h2v2h-2v-2Zm-4,2h2v2h-2v-2Zm2,0h2v2h-2v-2Zm2,0h2v2h-2v-2Zm-30-2h2v2H96v-2Zm0,2h2v2H96v-2Zm-6-2h2v2H90v-2Zm2,0h2v2H92v-2Zm2,0h2v2H94v-2Zm-4,2h2v2H90v-2Zm2,0h2v2H92v-2Zm2,0h2v2H94v-2Zm40-2h2v2h-2v-2Zm0,2h2v2h-2v-2Zm-6-2h2v2h-2v-2Zm2,0h2v2h-2v-2Zm2,0h2v2h-2v-2Zm-4,2h2v2h-2v-2Zm2,0h2v2h-2v-2Zm2,0h2v2h-2v-2Zm-28,2h2v2h-2v-2Zm2,0h2v2h-2v-2Zm2,0h2v2h-2v-2Zm2,0h2v2h-2v-2Zm2,0h2v2h-2v-2Zm2,0h2v2h-2v-2Zm2,0h2v2h-2v-2Zm2,0h2v2h-2v-2Zm2,0h2v2h-2v-2Zm-16,2h2v2h-2v-2Zm2,0h2v2h-2v-2Zm2,0h2v2h-2v-2Zm2,0h2v2h-2v-2Zm2,0h2v2h-2v-2Zm2,0h2v2h-2v-2Zm2,0h2v2h-2v-2Zm2,0h2v2h-2v-2Zm2,0h2v2h-2v-2Zm-22-2h2v2H98v-2Zm2,0h2v2h-2v-2Zm2,0h2v2h-2v-2Zm-4,2h2v2H98v-2Zm2,0h2v2h-2v-2Zm2,0h2v2h-2v-2Zm20-2h2v2h-2v-2Zm2,0h2v2h-2v-2Zm2,0h2v2h-2v-2Zm-4,2h2v2h-2v-2Zm2,0h2v2h-2v-2Zm2,0h2v2h-2v-2Zm-30-2h2v2H96v-2Zm0,2h2v2H96v-2Zm-6-2h2v2H90v-2Zm2,0h2v2H92v-2Zm2,0h2v2H94v-2Zm-4,2h2v2H90v-2Zm2,0h2v2H92v-2Zm2,0h2v2H94v-2Zm40-2h2v2h-2v-2Zm0,2h2v2h-2v-2Zm-6-2h2v2h-2v-2Zm2,0h2v2h-2v-2Zm2,0h2v2h-2v-2Zm-4,2h2v2h-2v-2Zm2,0h2v2h-2v-2Zm2,0h2v2h-2v-2Zm6-2h2v2h-2v-2Zm0,2h2v2h-2v-2Zm-2-2h2v2h-2v-2Zm0,2h2v2h-2v-2Zm-50-2h2v2H86v-2Zm2,0h2v2H88v-2Zm-2,2h2v2H86v-2Zm2,0h2v2H88v-2Zm16,2h2v2h-2v-2Zm2,0h2v2h-2v-2Zm2,0h2v2h-2v-2Zm2,0h2v2h-2v-2Zm2,0h2v2h-2v-2Zm2,0h2v2h-2v-2Zm2,0h2v2h-2v-2Zm2,0h2v2h-2v-2Zm2,0h2v2h-2v-2Zm-16,2h2v2h-2v-2Zm2,0h2v2h-2v-2Zm2,0h2v2h-2v-2Zm2,0h2v2h-2v-2Zm2,0h2v2h-2v-2Zm2,0h2v2h-2v-2Zm2,0h2v2h-2v-2Zm2,0h2v2h-2v-2Zm2,0h2v2h-2v-2Zm-22-2h2v2H98v-2Zm2,0h2v2h-2v-2Zm2,0h2v2h-2v-2Zm-4,2h2v2H98v-2Zm2,0h2v2h-2v-2Zm2,0h2v2h-2v-2Zm20-2h2v2h-2v-2Zm2,0h2v2h-2v-2Zm2,0h2v2h-2v-2Zm-4,2h2v2h-2v-2Zm2,0h2v2h-2v-2Zm2,0h2v2h-2v-2Zm-30-2h2v2H96v-2Zm0,2h2v2H96v-2Zm-6-2h2v2H90v-2Zm2,0h2v2H92v-2Zm2,0h2v2H94v-2Zm-4,2h2v2H90v-2Zm2,0h2v2H92v-2Zm2,0h2v2H94v-2Zm40-2h2v2h-2v-2Zm0,2h2v2h-2v-2Zm-6-2h2v2h-2v-2Zm2,0h2v2h-2v-2Zm2,0h2v2h-2v-2Zm-4,2h2v2h-2v-2Zm2,0h2v2h-2v-2Zm2,0h2v2h-2v-2Zm6-2h2v2h-2v-2Zm0,2h2v2h-2v-2Zm-2-2h2v2h-2v-2Zm0,2h2v2h-2v-2Zm-50-2h2v2H86v-2Zm2,0h2v2H88v-2Zm-2,2h2v2H86v-2Zm2,0h2v2H88v-2Zm54-2h2v2h-2v-2Zm0,2h2v2h-2v-2Zm-2-2h2v2h-2v-2Zm0,2h2v2h-2v-2Zm-58-2h2v2H82v-2Zm2,0h2v2H84v-2Zm-2,2h2v2H82v-2Zm2,0h2v2H84v-2Zm20,2h2v2h-2v-2Zm2,0h2v2h-2v-2Zm2,0h2v2h-2v-2Zm2,0h2v2h-2v-2Zm2,0h2v2h-2v-2Zm2,0h2v2h-2v-2Zm2,0h2v2h-2v-2Zm2,0h2v2h-2v-2Zm2,0h2v2h-2v-2Zm-22,0h2v2H98v-2Zm2,0h2v2h-2v-2Zm2,0h2v2h-2v-2Zm20,0h2v2h-2v-2Zm2,0h2v2h-2v-2Zm2,0h2v2h-2v-2Zm-30,0h2v2H96v-2Zm-6,0h2v2H90v-2Zm2,0h2v2H92v-2Zm2,0h2v2H94v-2Zm40,0h2v2h-2v-2Zm-6,0h2v2h-2v-2Zm2,0h2v2h-2v-2Zm2,0h2v2h-2v-2Zm6,0h2v2h-2v-2Zm-2,0h2v2h-2v-2Zm-50,0h2v2H86v-2Zm2,0h2v2H88v-2Zm54,0h2v2h-2v-2Zm-2,0h2v2h-2v-2Zm-58,0h2v2H82v-2Zm2,0h2v2H84v-2Zm20,2h2v2h-2v-2Zm2,0h2v2h-2v-2Zm2,0h2v2h-2v-2Zm2,0h2v2h-2v-2Zm2,0h2v2h-2v-2Zm2,0h2v2h-2v-2Zm2,0h2v2h-2v-2Zm2,0h2v2h-2v-2Zm2,0h2v2h-2v-2Zm-16,2h2v2h-2v-2Zm2,0h2v2h-2v-2Zm2,0h2v2h-2v-2Zm2,0h2v2h-2v-2Zm2,0h2v2h-2v-2Zm2,0h2v2h-2v-2Zm2,0h2v2h-2v-2Zm2,0h2v2h-2v-2Zm2,0h2v2h-2v-2Zm-22-2h2v2H98v-2Zm2,0h2v2h-2v-2Zm2,0h2v2h-2v-2Zm-4,2h2v2H98v-2Zm2,0h2v2h-2v-2Zm2,0h2v2h-2v-2Zm20-2h2v2h-2v-2Zm2,0h2v2h-2v-2Zm2,0h2v2h-2v-2Zm-4,2h2v2h-2v-2Zm2,0h2v2h-2v-2Zm2,0h2v2h-2v-2Zm-30-2h2v2H96v-2Zm0,2h2v2H96v-2Zm-6-2h2v2H90v-2Zm2,0h2v2H92v-2Zm2,0h2v2H94v-2Zm-4,2h2v2H90v-2Zm2,0h2v2H92v-2Zm2,0h2v2H94v-2Zm40-2h2v2h-2v-2Zm0,2h2v2h-2v-2Zm-6-2h2v2h-2v-2Zm2,0h2v2h-2v-2Zm2,0h2v2h-2v-2Zm-4,2h2v2h-2v-2Zm2,0h2v2h-2v-2Zm2,0h2v2h-2v-2Zm6-2h2v2h-2v-2Zm0,2h2v2h-2v-2Zm-2-2h2v2h-2v-2Zm0,2h2v2h-2v-2Zm-50-2h2v2H86v-2Zm2,0h2v2H88v-2Zm-2,2h2v2H86v-2Zm2,0h2v2H88v-2Zm54-2h2v2h-2v-2Zm0,2h2v2h-2v-2Zm-2-2h2v2h-2v-2Zm0,2h2v2h-2v-2Zm-58-2h2v2H82v-2Zm2,0h2v2H84v-2Zm-2,2h2v2H82v-2Zm2,0h2v2H84v-2Zm20,2h2v2h-2v-2Zm2,0h2v2h-2v-2Zm2,0h2v2h-2v-2Zm2,0h2v2h-2v-2Zm2,0h2v2h-2v-2Zm2,0h2v2h-2v-2Zm2,0h2v2h-2v-2Zm2,0h2v2h-2v-2Zm2,0h2v2h-2v-2Zm-22,0h2v2H98v-2Zm2,0h2v2h-2v-2Zm2,0h2v2h-2v-2Zm20,0h2v2h-2v-2Zm2,0h2v2h-2v-2Zm2,0h2v2h-2v-2Zm-30,0h2v2H96v-2Zm-6,0h2v2H90v-2Zm2,0h2v2H92v-2Zm2,0h2v2H94v-2Zm40,0h2v2h-2v-2Zm-6,0h2v2h-2v-2Zm2,0h2v2h-2v-2Zm2,0h2v2h-2v-2Zm6,0h2v2h-2v-2Zm-2,0h2v2h-2v-2Zm-50,0h2v2H86v-2Zm2,0h2v2H88v-2Zm54,0h2v2h-2v-2Zm-2,0h2v2h-2v-2Zm-58,0h2v2H82v-2Zm2,0h2v2H84v-2Zm62-4h2v2h-2v-2Zm0,2h2v2h-2v-2Zm-2-2h2v2h-2v-2Zm0,2h2v2h-2v-2Zm2,2h2v2h-2v-2Zm-2,0h2v2h-2v-2Zm-64-4h2v2H80v-2Zm0,2h2v2H80v-2Zm-2-2h2v2H78v-2Zm0,2h2v2H78v-2Zm2,2h2v2H80v-2Zm-2,0h2v2H78v-2Zm26,2h2v2h-2v-2Zm2,0h2v2h-2v-2Zm2,0h2v2h-2v-2Zm2,0h2v2h-2v-2Zm2,0h2v2h-2v-2Zm2,0h2v2h-2v-2Zm2,0h2v2h-2v-2Zm2,0h2v2h-2v-2Zm2,0h2v2h-2v-2Zm-16,2h2v2h-2v-2Zm2,0h2v2h-2v-2Zm2,0h2v2h-2v-2Zm2,0h2v2h-2v-2Zm2,0h2v2h-2v-2Zm2,0h2v2h-2v-2Zm2,0h2v2h-2v-2Zm2,0h2v2h-2v-2Zm2,0h2v2h-2v-2Zm-22-2h2v2H98v-2Zm2,0h2v2h-2v-2Zm2,0h2v2h-2v-2Zm-4,2h2v2H98v-2Zm2,0h2v2h-2v-2Zm2,0h2v2h-2v-2Zm20-2h2v2h-2v-2Zm2,0h2v2h-2v-2Zm2,0h2v2h-2v-2Zm-4,2h2v2h-2v-2Zm2,0h2v2h-2v-2Zm2,0h2v2h-2v-2Zm-30-2h2v2H96v-2Zm0,2h2v2H96v-2Zm-6-2h2v2H90v-2Zm2,0h2v2H92v-2Zm2,0h2v2H94v-2Zm-4,2h2v2H90v-2Zm2,0h2v2H92v-2Zm2,0h2v2H94v-2Zm40-2h2v2h-2v-2Zm0,2h2v2h-2v-2Zm-6-2h2v2h-2v-2Zm2,0h2v2h-2v-2Zm2,0h2v2h-2v-2Zm-4,2h2v2h-2v-2Zm2,0h2v2h-2v-2Zm2,0h2v2h-2v-2Zm6-2h2v2h-2v-2Zm0,2h2v2h-2v-2Zm-2-2h2v2h-2v-2Zm0,2h2v2h-2v-2Zm-50-2h2v2H86v-2Zm2,0h2v2H88v-2Zm-2,2h2v2H86v-2Zm2,0h2v2H88v-2Zm54-2h2v2h-2v-2Zm0,2h2v2h-2v-2Zm-2-2h2v2h-2v-2Zm0,2h2v2h-2v-2Zm-58-2h2v2H82v-2Zm2,0h2v2H84v-2Zm-2,2h2v2H82v-2Zm2,0h2v2H84v-2Zm20,2h2v2h-2v-2Zm2,0h2v2h-2v-2Zm2,0h2v2h-2v-2Zm2,0h2v2h-2v-2Zm2,0h2v2h-2v-2Zm2,0h2v2h-2v-2Zm2,0h2v2h-2v-2Zm2,0h2v2h-2v-2Zm2,0h2v2h-2v-2Zm-22,0h2v2H98v-2Zm2,0h2v2h-2v-2Zm2,0h2v2h-2v-2Zm20,0h2v2h-2v-2Zm2,0h2v2h-2v-2Zm2,0h2v2h-2v-2Zm-30,0h2v2H96v-2Zm-6,0h2v2H90v-2Zm2,0h2v2H92v-2Zm2,0h2v2H94v-2Zm40,0h2v2h-2v-2Zm-6,0h2v2h-2v-2Zm2,0h2v2h-2v-2Zm2,0h2v2h-2v-2Zm6,0h2v2h-2v-2Zm-2,0h2v2h-2v-2Zm-50,0h2v2H86v-2Zm2,0h2v2H88v-2Zm54,0h2v2h-2v-2Zm-2,0h2v2h-2v-2Zm-58,0h2v2H82v-2Zm2,0h2v2H84v-2Zm62-4h2v2h-2v-2Zm0,2h2v2h-2v-2Zm-2-2h2v2h-2v-2Zm0,2h2v2h-2v-2Zm2,2h2v2h-2v-2Zm-2,0h2v2h-2v-2Zm-64-4h2v2H80v-2Zm0,2h2v2H80v-2Zm-2-2h2v2H78v-2Zm0,2h2v2H78v-2Zm2,2h2v2H80v-2Zm-2,0h2v2H78v-2Zm-2-4h2v2H76v-2Zm0,2h2v2H76v-2Zm0,2h2v2H76v-2Zm72-4h2v2h-2v-2Zm0,2h2v2h-2v-2Zm0,2h2v2h-2v-2Zm-44,2h2v2h-2v-2Zm2,0h2v2h-2v-2Zm2,0h2v2h-2v-2Zm2,0h2v2h-2v-2Zm2,0h2v2h-2v-2Zm2,0h2v2h-2v-2Zm2,0h2v2h-2v-2Zm2,0h2v2h-2v-2Zm2,0h2v2h-2v-2Zm-22,0h2v2H98v-2Zm2,0h2v2h-2v-2Zm2,0h2v2h-2v-2Zm20,0h2v2h-2v-2Zm2,0h2v2h-2v-2Zm2,0h2v2h-2v-2Zm-30,0h2v2H96v-2Zm-6,0h2v2H90v-2Zm2,0h2v2H92v-2Zm2,0h2v2H94v-2Zm40,0h2v2h-2v-2Zm-6,0h2v2h-2v-2Zm2,0h2v2h-2v-2Zm2,0h2v2h-2v-2Zm6,0h2v2h-2v-2Zm-2,0h2v2h-2v-2Zm-50,0h2v2H86v-2Zm2,0h2v2H88v-2Zm54,0h2v2h-2v-2Zm-2,0h2v2h-2v-2Zm-58,0h2v2H82v-2Zm2,0h2v2H84v-2Zm20,2h2v2h-2v-2Zm2,0h2v2h-2v-2Zm2,0h2v2h-2v-2Zm2,0h2v2h-2v-2Zm2,0h2v2h-2v-2Zm2,0h2v2h-2v-2Zm2,0h2v2h-2v-2Zm2,0h2v2h-2v-2Zm2,0h2v2h-2v-2Zm-22,0h2v2H98v-2Zm2,0h2v2h-2v-2Zm2,0h2v2h-2v-2Zm20,0h2v2h-2v-2Zm2,0h2v2h-2v-2Zm2,0h2v2h-2v-2Zm-30,0h2v2H96v-2Zm-6,0h2v2H90v-2Zm2,0h2v2H92v-2Zm2,0h2v2H94v-2Zm40,0h2v2h-2v-2Zm-6,0h2v2h-2v-2Zm2,0h2v2h-2v-2Zm2,0h2v2h-2v-2Zm6,0h2v2h-2v-2Zm-2,0h2v2h-2v-2Zm-50,0h2v2H86v-2Zm2,0h2v2H88v-2Zm54,0h2v2h-2v-2Zm-2,0h2v2h-2v-2Zm-58,0h2v2H82v-2Zm2,0h2v2H84v-2Zm62-2h2v2h-2v-2Zm-2,0h2v2h-2v-2Zm2,2h2v2h-2v-2Zm-2,0h2v2h-2v-2Zm-64-2h2v2H80v-2Zm-2,0h2v2H78v-2Zm2,2h2v2H80v-2Zm-2,0h2v2H78v-2Zm-2-2h2v2H76v-2Zm0,2h2v2H76v-2Zm72-2h2v2h-2v-2Zm0,2h2v2h-2v-2Zm-28,36h2v2h-2v-2Zm-2,0h2v2h-2v-2Zm-2,0h2v2h-2v-2Zm-2,0h2v2h-2v-2Zm-2,0h2v2h-2v-2Zm-2,0h2v2h-2v-2Zm-2,0h2v2h-2v-2Zm-2,0h2v2h-2v-2Zm-2,0h2v2h-2v-2Zm16-2h2v2h-2v-2Zm-2,0h2v2h-2v-2Zm-2,0h2v2h-2v-2Zm-2,0h2v2h-2v-2Zm-2,0h2v2h-2v-2Zm-2,0h2v2h-2v-2Zm-2,0h2v2h-2v-2Zm-2,0h2v2h-2v-2Zm-2,0h2v2h-2v-2Zm16-2h2v2h-2v-2Zm-2,0h2v2h-2v-2Zm-2,0h2v2h-2v-2Zm-2,0h2v2h-2v-2Zm-2,0h2v2h-2v-2Zm-2,0h2v2h-2v-2Zm-2,0h2v2h-2v-2Zm-2,0h2v2h-2v-2Zm-2,0h2v2h-2v-2Zm22,2h2v2h-2v-2Zm-2,0h2v2h-2v-2Zm-2,0h2v2h-2v-2Zm4-2h2v2h-2v-2Zm-2,0h2v2h-2v-2Zm-2,0h2v2h-2v-2Zm-20,2h2v2h-2v-2Zm-2,0h2v2h-2v-2Zm-2,0h2v2H98v-2Zm4-2h2v2h-2v-2Zm-2,0h2v2h-2v-2Zm-2,0h2v2H98v-2Zm22-2h2v2h-2v-2Zm-2,0h2v2h-2v-2Zm-2,0h2v2h-2v-2Zm-2,0h2v2h-2v-2Zm-2,0h2v2h-2v-2Zm-2,0h2v2h-2v-2Zm-2,0h2v2h-2v-2Zm-2,0h2v2h-2v-2Zm-2,0h2v2h-2v-2Zm16-2h2v2h-2v-2Zm-2,0h2v2h-2v-2Zm-2,0h2v2h-2v-2Zm-2,0h2v2h-2v-2Zm-2,0h2v2h-2v-2Zm-2,0h2v2h-2v-2Zm-2,0h2v2h-2v-2Zm-2,0h2v2h-2v-2Zm-2,0h2v2h-2v-2Zm22,2h2v2h-2v-2Zm-2,0h2v2h-2v-2Zm-2,0h2v2h-2v-2Zm4-2h2v2h-2v-2Zm-2,0h2v2h-2v-2Zm-2,0h2v2h-2v-2Zm-20,2h2v2h-2v-2Zm-2,0h2v2h-2v-2Zm-2,0h2v2H98v-2Zm4-2h2v2h-2v-2Zm-2,0h2v2h-2v-2Zm-2,0h2v2H98v-2Zm30,2h2v2h-2v-2Zm0-2h2v2h-2v-2Zm6,2h2v2h-2v-2Zm-2,0h2v2h-2v-2Zm-2,0h2v2h-2v-2Zm4-2h2v2h-2v-2Zm-2,0h2v2h-2v-2Zm-2,0h2v2h-2v-2Zm-40,2h2v2H90v-2Zm0-2h2v2H90v-2Zm6,2h2v2H96v-2Zm-2,0h2v2H94v-2Zm-2,0h2v2H92v-2Zm4-2h2v2H96v-2Zm-2,0h2v2H94v-2Zm-2,0h2v2H92v-2Zm28-2h2v2h-2v-2Zm-2,0h2v2h-2v-2Zm-2,0h2v2h-2v-2Zm-2,0h2v2h-2v-2Zm-2,0h2v2h-2v-2Zm-2,0h2v2h-2v-2Zm-2,0h2v2h-2v-2Zm-2,0h2v2h-2v-2Zm-2,0h2v2h-2v-2Zm16-2h2v2h-2v-2Zm-2,0h2v2h-2v-2Zm-2,0h2v2h-2v-2Zm-2,0h2v2h-2v-2Zm-2,0h2v2h-2v-2Zm-2,0h2v2h-2v-2Zm-2,0h2v2h-2v-2Zm-2,0h2v2h-2v-2Zm-2,0h2v2h-2v-2Zm22,2h2v2h-2v-2Zm-2,0h2v2h-2v-2Zm-2,0h2v2h-2v-2Zm4-2h2v2h-2v-2Zm-2,0h2v2h-2v-2Zm-2,0h2v2h-2v-2Zm-20,2h2v2h-2v-2Zm-2,0h2v2h-2v-2Zm-2,0h2v2H98v-2Zm4-2h2v2h-2v-2Zm-2,0h2v2h-2v-2Zm-2,0h2v2H98v-2Zm30,2h2v2h-2v-2Zm0-2h2v2h-2v-2Zm6,2h2v2h-2v-2Zm-2,0h2v2h-2v-2Zm-2,0h2v2h-2v-2Zm4-2h2v2h-2v-2Zm-2,0h2v2h-2v-2Zm-2,0h2v2h-2v-2Zm-40,2h2v2H90v-2Zm0-2h2v2H90v-2Zm6,2h2v2H96v-2Zm-2,0h2v2H94v-2Zm-2,0h2v2H92v-2Zm4-2h2v2H96v-2Zm-2,0h2v2H94v-2Zm-2,0h2v2H92v-2Zm-6,2h2v2H86v-2Zm0-2h2v2H86v-2Zm2,2h2v2H88v-2Zm0-2h2v2H88v-2Zm50,2h2v2h-2v-2Zm-2,0h2v2h-2v-2Zm2-2h2v2h-2v-2Zm-2,0h2v2h-2v-2Zm-16-2h2v2h-2v-2Zm-2,0h2v2h-2v-2Zm-2,0h2v2h-2v-2Zm-2,0h2v2h-2v-2Zm-2,0h2v2h-2v-2Zm-2,0h2v2h-2v-2Zm-2,0h2v2h-2v-2Zm-2,0h2v2h-2v-2Zm-2,0h2v2h-2v-2Zm16-2h2v2h-2v-2Zm-2,0h2v2h-2v-2Zm-2,0h2v2h-2v-2Zm-2,0h2v2h-2v-2Zm-2,0h2v2h-2v-2Zm-2,0h2v2h-2v-2Zm-2,0h2v2h-2v-2Zm-2,0h2v2h-2v-2Zm-2,0h2v2h-2v-2Zm22,2h2v2h-2v-2Zm-2,0h2v2h-2v-2Zm-2,0h2v2h-2v-2Zm4-2h2v2h-2v-2Zm-2,0h2v2h-2v-2Zm-2,0h2v2h-2v-2Zm-20,2h2v2h-2v-2Zm-2,0h2v2h-2v-2Zm-2,0h2v2H98v-2Zm4-2h2v2h-2v-2Zm-2,0h2v2h-2v-2Zm-2,0h2v2H98v-2Zm30,2h2v2h-2v-2Zm0-2h2v2h-2v-2Zm6,2h2v2h-2v-2Zm-2,0h2v2h-2v-2Zm-2,0h2v2h-2v-2Zm4-2h2v2h-2v-2Zm-2,0h2v2h-2v-2Zm-2,0h2v2h-2v-2Zm-40,2h2v2H90v-2Zm0-2h2v2H90v-2Zm6,2h2v2H96v-2Zm-2,0h2v2H94v-2Zm-2,0h2v2H92v-2Zm4-2h2v2H96v-2Zm-2,0h2v2H94v-2Zm-2,0h2v2H92v-2Zm-6,2h2v2H86v-2Zm0-2h2v2H86v-2Zm2,2h2v2H88v-2Zm0-2h2v2H88v-2Zm50,2h2v2h-2v-2Zm-2,0h2v2h-2v-2Zm2-2h2v2h-2v-2Zm-2,0h2v2h-2v-2Zm-54,2h2v2H82v-2Zm0-2h2v2H82v-2Zm2,2h2v2H84v-2Zm0-2h2v2H84v-2Zm58,2h2v2h-2v-2Zm-2,0h2v2h-2v-2Zm2-2h2v2h-2v-2Zm-2,0h2v2h-2v-2Zm-20-2h2v2h-2v-2Zm-2,0h2v2h-2v-2Zm-2,0h2v2h-2v-2Zm-2,0h2v2h-2v-2Zm-2,0h2v2h-2v-2Zm-2,0h2v2h-2v-2Zm-2,0h2v2h-2v-2Zm-2,0h2v2h-2v-2Zm-2,0h2v2h-2v-2Zm22,0h2v2h-2v-2Zm-2,0h2v2h-2v-2Zm-2,0h2v2h-2v-2Zm-20,0h2v2h-2v-2Zm-2,0h2v2h-2v-2Zm-2,0h2v2H98v-2Zm30,0h2v2h-2v-2Zm6,0h2v2h-2v-2Zm-2,0h2v2h-2v-2Zm-2,0h2v2h-2v-2Zm-40,0h2v2H90v-2Zm6,0h2v2H96v-2Zm-2,0h2v2H94v-2Zm-2,0h2v2H92v-2Zm-6,0h2v2H86v-2Zm2,0h2v2H88v-2Zm50,0h2v2h-2v-2Zm-2,0h2v2h-2v-2Zm-54,0h2v2H82v-2Zm2,0h2v2H84v-2Zm58,0h2v2h-2v-2Zm-2,0h2v2h-2v-2Zm-20-2h2v2h-2v-2Zm-2,0h2v2h-2v-2Zm-2,0h2v2h-2v-2Zm-2,0h2v2h-2v-2Zm-2,0h2v2h-2v-2Zm-2,0h2v2h-2v-2Zm-2,0h2v2h-2v-2Zm-2,0h2v2h-2v-2Zm-2,0h2v2h-2v-2Zm16-2h2v2h-2v-2Zm-2,0h2v2h-2v-2Zm-2,0h2v2h-2v-2Zm-2,0h2v2h-2v-2Zm-2,0h2v2h-2v-2Zm-2,0h2v2h-2v-2Zm-2,0h2v2h-2v-2Zm-2,0h2v2h-2v-2Zm-2,0h2v2h-2v-2Zm22,2h2v2h-2v-2Zm-2,0h2v2h-2v-2Zm-2,0h2v2h-2v-2Zm4-2h2v2h-2v-2Zm-2,0h2v2h-2v-2Zm-2,0h2v2h-2v-2Zm-20,2h2v2h-2v-2Zm-2,0h2v2h-2v-2Zm-2,0h2v2H98v-2Zm4-2h2v2h-2v-2Zm-2,0h2v2h-2v-2Zm-2,0h2v2H98v-2Zm30,2h2v2h-2v-2Zm0-2h2v2h-2v-2Zm6,2h2v2h-2v-2Zm-2,0h2v2h-2v-2Zm-2,0h2v2h-2v-2Zm4-2h2v2h-2v-2Zm-2,0h2v2h-2v-2Zm-2,0h2v2h-2v-2Zm-40,2h2v2H90v-2Zm0-2h2v2H90v-2Zm6,2h2v2H96v-2Zm-2,0h2v2H94v-2Zm-2,0h2v2H92v-2Zm4-2h2v2H96v-2Zm-2,0h2v2H94v-2Zm-2,0h2v2H92v-2Zm-6,2h2v2H86v-2Zm0-2h2v2H86v-2Zm2,2h2v2H88v-2Zm0-2h2v2H88v-2Zm50,2h2v2h-2v-2Zm-2,0h2v2h-2v-2Zm2-2h2v2h-2v-2Zm-2,0h2v2h-2v-2Zm-54,2h2v2H82v-2Zm0-2h2v2H82v-2Zm2,2h2v2H84v-2Zm0-2h2v2H84v-2Zm58,2h2v2h-2v-2Zm-2,0h2v2h-2v-2Zm2-2h2v2h-2v-2Zm-2,0h2v2h-2v-2Zm-20-2h2v2h-2v-2Zm-2,0h2v2h-2v-2Zm-2,0h2v2h-2v-2Zm-2,0h2v2h-2v-2Zm-2,0h2v2h-2v-2Zm-2,0h2v2h-2v-2Zm-2,0h2v2h-2v-2Zm-2,0h2v2h-2v-2Zm-2,0h2v2h-2v-2Zm22,0h2v2h-2v-2Zm-2,0h2v2h-2v-2Zm-2,0h2v2h-2v-2Zm-20,0h2v2h-2v-2Zm-2,0h2v2h-2v-2Zm-2,0h2v2H98v-2Zm30,0h2v2h-2v-2Zm6,0h2v2h-2v-2Zm-2,0h2v2h-2v-2Zm-2,0h2v2h-2v-2Zm-40,0h2v2H90v-2Zm6,0h2v2H96v-2Zm-2,0h2v2H94v-2Zm-2,0h2v2H92v-2Zm-6,0h2v2H86v-2Zm2,0h2v2H88v-2Zm50,0h2v2h-2v-2Zm-2,0h2v2h-2v-2Zm-54,0h2v2H82v-2Zm2,0h2v2H84v-2Zm58,0h2v2h-2v-2Zm-2,0h2v2h-2v-2Zm-62,4h2v2H78v-2Zm0-2h2v2H78v-2Zm2,2h2v2H80v-2Zm0-2h2v2H80v-2Zm-2-2h2v2H78v-2Zm2,0h2v2H80v-2Zm64,4h2v2h-2v-2Zm0-2h2v2h-2v-2Zm2,2h2v2h-2v-2Zm0-2h2v2h-2v-2Zm-2-2h2v2h-2v-2Zm2,0h2v2h-2v-2Zm-26-2h2v2h-2v-2Zm-2,0h2v2h-2v-2Zm-2,0h2v2h-2v-2Zm-2,0h2v2h-2v-2Zm-2,0h2v2h-2v-2Zm-2,0h2v2h-2v-2Zm-2,0h2v2h-2v-2Zm-2,0h2v2h-2v-2Zm-2,0h2v2h-2v-2Zm16-2h2v2h-2v-2Zm-2,0h2v2h-2v-2Zm-2,0h2v2h-2v-2Zm-2,0h2v2h-2v-2Zm-2,0h2v2h-2v-2Zm-2,0h2v2h-2v-2Zm-2,0h2v2h-2v-2Zm-2,0h2v2h-2v-2Zm-2,0h2v2h-2v-2Zm22,2h2v2h-2v-2Zm-2,0h2v2h-2v-2Zm-2,0h2v2h-2v-2Zm4-2h2v2h-2v-2Zm-2,0h2v2h-2v-2Zm-2,0h2v2h-2v-2Zm-20,2h2v2h-2v-2Zm-2,0h2v2h-2v-2Zm-2,0h2v2H98v-2Zm4-2h2v2h-2v-2Zm-2,0h2v2h-2v-2Zm-2,0h2v2H98v-2Zm30,2h2v2h-2v-2Zm0-2h2v2h-2v-2Zm6,2h2v2h-2v-2Zm-2,0h2v2h-2v-2Zm-2,0h2v2h-2v-2Zm4-2h2v2h-2v-2Zm-2,0h2v2h-2v-2Zm-2,0h2v2h-2v-2Zm-40,2h2v2H90v-2Zm0-2h2v2H90v-2Zm6,2h2v2H96v-2Zm-2,0h2v2H94v-2Zm-2,0h2v2H92v-2Zm4-2h2v2H96v-2Zm-2,0h2v2H94v-2Zm-2,0h2v2H92v-2Zm-6,2h2v2H86v-2Zm0-2h2v2H86v-2Zm2,2h2v2H88v-2Zm0-2h2v2H88v-2Zm50,2h2v2h-2v-2Zm-2,0h2v2h-2v-2Zm2-2h2v2h-2v-2Zm-2,0h2v2h-2v-2Zm-54,2h2v2H82v-2Zm0-2h2v2H82v-2Zm2,2h2v2H84v-2Zm0-2h2v2H84v-2Zm58,2h2v2h-2v-2Zm-2,0h2v2h-2v-2Zm2-2h2v2h-2v-2Zm-2,0h2v2h-2v-2Zm-20-2h2v2h-2v-2Zm-2,0h2v2h-2v-2Zm-2,0h2v2h-2v-2Zm-2,0h2v2h-2v-2Zm-2,0h2v2h-2v-2Zm-2,0h2v2h-2v-2Zm-2,0h2v2h-2v-2Zm-2,0h2v2h-2v-2Zm-2,0h2v2h-2v-2Zm22,0h2v2h-2v-2Zm-2,0h2v2h-2v-2Zm-2,0h2v2h-2v-2Zm-20,0h2v2h-2v-2Zm-2,0h2v2h-2v-2Zm-2,0h2v2H98v-2Zm30,0h2v2h-2v-2Zm6,0h2v2h-2v-2Zm-2,0h2v2h-2v-2Zm-2,0h2v2h-2v-2Zm-40,0h2v2H90v-2Zm6,0h2v2H96v-2Zm-2,0h2v2H94v-2Zm-2,0h2v2H92v-2Zm-6,0h2v2H86v-2Zm2,0h2v2H88v-2Zm50,0h2v2h-2v-2Zm-2,0h2v2h-2v-2Zm-54,0h2v2H82v-2Zm2,0h2v2H84v-2Zm58,0h2v2h-2v-2Zm-2,0h2v2h-2v-2Zm-62,4h2v2H78v-2Zm0-2h2v2H78v-2Zm2,2h2v2H80v-2Zm0-2h2v2H80v-2Zm-2-2h2v2H78v-2Zm2,0h2v2H80v-2Zm64,4h2v2h-2v-2Zm0-2h2v2h-2v-2Zm2,2h2v2h-2v-2Zm0-2h2v2h-2v-2Zm-2-2h2v2h-2v-2Zm2,0h2v2h-2v-2Zm2,4h2v2h-2v-2Zm0-2h2v2h-2v-2Zm0-2h2v2h-2v-2Zm-72,4h2v2H76v-2Zm0-2h2v2H76v-2Zm0-2h2v2H76v-2Zm44-2h2v2h-2v-2Zm-2,0h2v2h-2v-2Zm-2,0h2v2h-2v-2Zm-2,0h2v2h-2v-2Zm-2,0h2v2h-2v-2Zm-2,0h2v2h-2v-2Zm-2,0h2v2h-2v-2Zm-2,0h2v2h-2v-2Zm-2,0h2v2h-2v-2Zm22,0h2v2h-2v-2Zm-2,0h2v2h-2v-2Zm-2,0h2v2h-2v-2Zm-20,0h2v2h-2v-2Zm-2,0h2v2h-2v-2Zm-2,0h2v2H98v-2Zm30,0h2v2h-2v-2Zm6,0h2v2h-2v-2Zm-2,0h2v2h-2v-2Zm-2,0h2v2h-2v-2Zm-40,0h2v2H90v-2Zm6,0h2v2H96v-2Zm-2,0h2v2H94v-2Zm-2,0h2v2H92v-2Zm-6,0h2v2H86v-2Zm2,0h2v2H88v-2Zm50,0h2v2h-2v-2Zm-2,0h2v2h-2v-2Zm-54,0h2v2H82v-2Zm2,0h2v2H84v-2Zm58,0h2v2h-2v-2Zm-2,0h2v2h-2v-2Zm-20-2h2v2h-2v-2Zm-2,0h2v2h-2v-2Zm-2,0h2v2h-2v-2Zm-2,0h2v2h-2v-2Zm-2,0h2v2h-2v-2Zm-2,0h2v2h-2v-2Zm-2,0h2v2h-2v-2Zm-2,0h2v2h-2v-2Zm-2,0h2v2h-2v-2Zm22,0h2v2h-2v-2Zm-2,0h2v2h-2v-2Zm-2,0h2v2h-2v-2Zm-20,0h2v2h-2v-2Zm-2,0h2v2h-2v-2Zm-2,0h2v2H98v-2Zm30,0h2v2h-2v-2Zm6,0h2v2h-2v-2Zm-2,0h2v2h-2v-2Zm-2,0h2v2h-2v-2Zm-40,0h2v2H90v-2Zm6,0h2v2H96v-2Zm-2,0h2v2H94v-2Zm-2,0h2v2H92v-2Zm-6,0h2v2H86v-2Zm2,0h2v2H88v-2Zm50,0h2v2h-2v-2Zm-2,0h2v2h-2v-2Zm-54,0h2v2H82v-2Zm2,0h2v2H84v-2Zm58,0h2v2h-2v-2Zm-2,0h2v2h-2v-2Zm-62,2h2v2H78v-2Zm2,0h2v2H80v-2Zm-2-2h2v2H78v-2Zm2,0h2v2H80v-2Zm64,2h2v2h-2v-2Zm2,0h2v2h-2v-2Zm-2-2h2v2h-2v-2Zm2,0h2v2h-2v-2Zm2,2h2v2h-2v-2Zm0-2h2v2h-2v-2Zm-72,2h2v2H76v-2Zm0-2h2v2H76v-2Z" transform="translate(-76 -97)"/>
  <path id="tuki-3" data-name="tuki" class="cls-2" d="M105,100h2v2h-2v-2Zm2,0h2v2h-2v-2Zm2,0h2v2h-2v-2Zm-4,2h2v2h-2v-2Zm2,0h2v2h-2v-2Zm2,0h2v2h-2v-2Zm-4,2h2v2h-2v-2Zm2,0h2v2h-2v-2Zm2,0h2v2h-2v-2Zm2-2h2v2h-2v-2Zm2,0h2v2h-2v-2Zm2,0h2v2h-2v-2Zm-4,2h2v2h-2v-2Zm2,0h2v2h-2v-2Zm2,0h2v2h-2v-2Zm2-2h2v2h-2v-2Zm2,0h2v2h-2v-2Zm2,0h2v2h-2v-2Zm-4,2h2v2h-2v-2Zm2,0h2v2h-2v-2Zm2,0h2v2h-2v-2Zm2-2h2v2h-2v-2Zm0,2h2v2h-2v-2Zm-18,2h2v2h-2v-2Zm2,0h2v2h-2v-2Zm2,0h2v2h-2v-2Zm-4,2h2v2h-2v-2Zm2,0h2v2h-2v-2Zm2,0h2v2h-2v-2Zm2-2h2v2h-2v-2Zm2,0h2v2h-2v-2Zm2,0h2v2h-2v-2Zm-4,2h2v2h-2v-2Zm2,0h2v2h-2v-2Zm2,0h2v2h-2v-2Zm2-2h2v2h-2v-2Zm2,0h2v2h-2v-2Zm2,0h2v2h-2v-2Zm-4,2h2v2h-2v-2Zm2,0h2v2h-2v-2Zm2,0h2v2h-2v-2Zm2-2h2v2h-2v-2Zm0,2h2v2h-2v-2Zm-18,2h2v2h-2v-2Zm2,0h2v2h-2v-2Zm2,0h2v2h-2v-2Zm-4,2h2v2h-2v-2Zm2,0h2v2h-2v-2Zm2,0h2v2h-2v-2Zm2-2h2v2h-2v-2Zm2,0h2v2h-2v-2Zm2,0h2v2h-2v-2Zm-4,2h2v2h-2v-2Zm2,0h2v2h-2v-2Zm2,0h2v2h-2v-2Zm2-2h2v2h-2v-2Zm2,0h2v2h-2v-2Zm2,0h2v2h-2v-2Zm-4,2h2v2h-2v-2Zm2,0h2v2h-2v-2Zm2,0h2v2h-2v-2Zm2-2h2v2h-2v-2Zm0,2h2v2h-2v-2Zm-18,2h2v2h-2v-2Zm2,0h2v2h-2v-2Zm2,0h2v2h-2v-2Zm-4,2h2v2h-2v-2Zm2,0h2v2h-2v-2Zm2,0h2v2h-2v-2Zm2-2h2v2h-2v-2Zm2,0h2v2h-2v-2Zm2,0h2v2h-2v-2Zm-4,2h2v2h-2v-2Zm2,0h2v2h-2v-2Zm2,0h2v2h-2v-2Zm2-2h2v2h-2v-2Zm2,0h2v2h-2v-2Zm2,0h2v2h-2v-2Zm-4,2h2v2h-2v-2Zm2,0h2v2h-2v-2Zm2,0h2v2h-2v-2Zm2-2h2v2h-2v-2Zm0,2h2v2h-2v-2Zm-18,2h2v2h-2v-2Zm2,0h2v2h-2v-2Zm2,0h2v2h-2v-2Zm-4,2h2v2h-2v-2Zm2,0h2v2h-2v-2Zm2,0h2v2h-2v-2Zm2-2h2v2h-2v-2Zm2,0h2v2h-2v-2Zm2,0h2v2h-2v-2Zm-4,2h2v2h-2v-2Zm2,0h2v2h-2v-2Zm2,0h2v2h-2v-2Zm2-2h2v2h-2v-2Zm2,0h2v2h-2v-2Zm2,0h2v2h-2v-2Zm-4,2h2v2h-2v-2Zm2,0h2v2h-2v-2Zm2,0h2v2h-2v-2Zm2-2h2v2h-2v-2Zm0,2h2v2h-2v-2Zm2-14h2v2h-2v-2Zm2,0h2v2h-2v-2Zm-2,2h2v2h-2v-2Zm2,0h2v2h-2v-2Zm2-2h2v2h-2v-2Zm2,0h2v2h-2v-2Zm2,0h2v2h-2v-2Zm-4,2h2v2h-2v-2Zm2,0h2v2h-2v-2Zm2,0h2v2h-2v-2Zm2-2h2v2h-2v-2Zm0,2h2v2h-2v-2Zm-10,2h2v2h-2v-2Zm2,0h2v2h-2v-2Zm-2,2h2v2h-2v-2Zm2,0h2v2h-2v-2Zm2-2h2v2h-2v-2Zm2,0h2v2h-2v-2Zm2,0h2v2h-2v-2Zm-4,2h2v2h-2v-2Zm2,0h2v2h-2v-2Zm2,0h2v2h-2v-2Zm2-2h2v2h-2v-2Zm0,2h2v2h-2v-2Zm-10,2h2v2h-2v-2Zm2,0h2v2h-2v-2Zm-2,2h2v2h-2v-2Zm2,0h2v2h-2v-2Zm2-2h2v2h-2v-2Zm2,0h2v2h-2v-2Zm2,0h2v2h-2v-2Zm-4,2h2v2h-2v-2Zm2,0h2v2h-2v-2Zm2,0h2v2h-2v-2Zm2-2h2v2h-2v-2Zm0,2h2v2h-2v-2Zm-10,2h2v2h-2v-2Zm2,0h2v2h-2v-2Zm-2,2h2v2h-2v-2Zm2,0h2v2h-2v-2Zm2-2h2v2h-2v-2Zm2,0h2v2h-2v-2Zm2,0h2v2h-2v-2Zm-4,2h2v2h-2v-2Zm2,0h2v2h-2v-2Zm2,0h2v2h-2v-2Zm2-2h2v2h-2v-2Zm0,2h2v2h-2v-2Zm2-10h2v2h-2v-2Zm0,2h2v2h-2v-2Zm0,2h2v2h-2v-2Zm0,2h2v2h-2v-2Zm0,2h2v2h-2v-2Zm0,2h2v2h-2v-2Zm2-2h2v2h-2v-2Zm2,0h2v2h-2v-2Zm-2,2h2v2h-2v-2Zm2,0h2v2h-2v-2ZM99,104h2v2H99v-2Zm2,0h2v2h-2v-2Zm2,0h2v2h-2v-2Zm-4,2h2v2H99v-2Zm2,0h2v2h-2v-2Zm2,0h2v2h-2v-2Zm-4,2h2v2H99v-2Zm2,0h2v2h-2v-2Zm2,0h2v2h-2v-2Zm-4,2h2v2H99v-2Zm2,0h2v2h-2v-2Zm2,0h2v2h-2v-2Zm-4,2h2v2H99v-2Zm2,0h2v2h-2v-2Zm2,0h2v2h-2v-2Zm-4,2h2v2H99v-2Zm2,0h2v2h-2v-2Zm2,0h2v2h-2v-2Zm-4,2h2v2H99v-2Zm2,0h2v2h-2v-2Zm2,0h2v2h-2v-2Zm-4,2h2v2H99v-2Zm2,0h2v2h-2v-2Zm2,0h2v2h-2v-2Zm-4,2h2v2H99v-2Zm2,0h2v2h-2v-2Zm2,0h2v2h-2v-2ZM93,106h2v2H93v-2Zm2,0h2v2H95v-2Zm2,0h2v2H97v-2Zm-4,2h2v2H93v-2Zm2,0h2v2H95v-2Zm2,0h2v2H97v-2Zm-4,2h2v2H93v-2Zm2,0h2v2H95v-2Zm2,0h2v2H97v-2Zm-4,2h2v2H93v-2Zm2,0h2v2H95v-2Zm2,0h2v2H97v-2Zm-4,2h2v2H93v-2Zm2,0h2v2H95v-2Zm2,0h2v2H97v-2Zm-4,2h2v2H93v-2Zm2,0h2v2H95v-2Zm2,0h2v2H97v-2Zm-4,2h2v2H93v-2Zm2,0h2v2H95v-2Zm2,0h2v2H97v-2Zm-4,2h2v2H93v-2Zm2,0h2v2H95v-2Zm2,0h2v2H97v-2Zm-8-12h2v2H89v-2Zm2-2h2v2H91v-2Zm-2,4h2v2H89v-2Zm2-2h2v2H91v-2Zm-2,4h2v2H89v-2Zm2-2h2v2H91v-2Zm-2,4h2v2H89v-2Zm2-2h2v2H91v-2Zm-2,4h2v2H89v-2Zm2-2h2v2H91v-2Zm-2,4h2v2H89v-2Zm2-2h2v2H91v-2Zm-2,4h2v2H89v-2Zm2-2h2v2H91v-2Zm0,2h2v2H91v-2Zm-4-8h2v2H87v-2Zm0,2h2v2H87v-2Zm0,2h2v2H87v-2Zm0,2h2v2H87v-2Zm0,2h2v2H87v-2Zm-2-6h2v2H85v-2Zm0,2h2v2H85v-2Zm0,2h2v2H85v-2Zm0,2h2v2H85v-2Zm-2-6h2v2H83v-2Zm0,2h2v2H83v-2Zm0,2h2v2H83v-2Zm0,2h2v2H83v-2Zm22,2h2v2h-2v-2Zm2,0h2v2h-2v-2Zm2,0h2v2h-2v-2Zm-4,2h2v2h-2v-2Zm2,0h2v2h-2v-2Zm2,0h2v2h-2v-2Zm2-2h2v2h-2v-2Zm2,0h2v2h-2v-2Zm2,0h2v2h-2v-2Zm-4,2h2v2h-2v-2Zm2,0h2v2h-2v-2Zm2,0h2v2h-2v-2Zm2-2h2v2h-2v-2Zm2,0h2v2h-2v-2Zm2,0h2v2h-2v-2Zm-4,2h2v2h-2v-2Zm2,0h2v2h-2v-2Zm2,0h2v2h-2v-2Zm2-2h2v2h-2v-2Zm0,2h2v2h-2v-2Zm2-2h2v2h-2v-2Zm2,0h2v2h-2v-2Zm-2,2h2v2h-2v-2Zm2,0h2v2h-2v-2Zm2-2h2v2h-2v-2Zm2,0h2v2h-2v-2Zm2,0h2v2h-2v-2Zm-4,2h2v2h-2v-2Zm2,0h2v2h-2v-2Zm2,0h2v2h-2v-2Zm2-2h2v2h-2v-2Zm0,2h2v2h-2v-2Zm2-2h2v2h-2v-2Zm0,2h2v2h-2v-2Zm2-2h2v2h-2v-2Zm2,0h2v2h-2v-2Zm-2,2h2v2h-2v-2Zm2,0h2v2h-2v-2Zm-42-2h2v2H99v-2Zm2,0h2v2h-2v-2Zm2,0h2v2h-2v-2Zm-4,2h2v2H99v-2Zm2,0h2v2h-2v-2Zm2,0h2v2h-2v-2Zm-10-2h2v2H93v-2Zm2,0h2v2H95v-2Zm2,0h2v2H97v-2Zm-4,2h2v2H93v-2Zm2,0h2v2H95v-2Zm2,0h2v2H97v-2Zm-8-2h2v2H89v-2Zm0,2h2v2H89v-2Zm2-2h2v2H91v-2Zm0,2h2v2H91v-2Zm-4-2h2v2H87v-2Zm0,2h2v2H87v-2Zm-2-2h2v2H85v-2Zm0,2h2v2H85v-2Zm-2-2h2v2H83v-2Zm0,2h2v2H83v-2Zm-2-4h2v2H81v-2Zm0,2h2v2H81v-2Zm0,2h2v2H81v-2Zm24,2h2v2h-2v-2Zm2,0h2v2h-2v-2Zm2,0h2v2h-2v-2Zm2,0h2v2h-2v-2Zm2,0h2v2h-2v-2Zm2,0h2v2h-2v-2Zm2,0h2v2h-2v-2Zm2,0h2v2h-2v-2Zm2,0h2v2h-2v-2Zm2,0h2v2h-2v-2Zm2,0h2v2h-2v-2Zm2,0h2v2h-2v-2Zm2,0h2v2h-2v-2Zm2,0h2v2h-2v-2Zm2,0h2v2h-2v-2Zm2,0h2v2h-2v-2Zm2,0h2v2h-2v-2Zm2,0h2v2h-2v-2Zm2,0h2v2h-2v-2Zm-42,0h2v2H99v-2Zm2,0h2v2h-2v-2Zm2,0h2v2h-2v-2Zm-10,0h2v2H93v-2Zm2,0h2v2H95v-2Zm2,0h2v2H97v-2Zm-8,0h2v2H89v-2Zm2,0h2v2H91v-2Zm-4,0h2v2H87v-2Zm-2,0h2v2H85v-2Zm-2,0h2v2H83v-2Zm22,2h2v2h-2v-2Zm2,0h2v2h-2v-2Zm2,0h2v2h-2v-2Zm-4,2h2v2h-2v-2Zm2,0h2v2h-2v-2Zm2,0h2v2h-2v-2Zm2-2h2v2h-2v-2Zm2,0h2v2h-2v-2Zm2,0h2v2h-2v-2Zm-4,2h2v2h-2v-2Zm2,0h2v2h-2v-2Zm2,0h2v2h-2v-2Zm2-2h2v2h-2v-2Zm2,0h2v2h-2v-2Zm2,0h2v2h-2v-2Zm-4,2h2v2h-2v-2Zm2,0h2v2h-2v-2Zm2,0h2v2h-2v-2Zm2-2h2v2h-2v-2Zm0,2h2v2h-2v-2Zm2-2h2v2h-2v-2Zm2,0h2v2h-2v-2Zm-2,2h2v2h-2v-2Zm2,0h2v2h-2v-2Zm2-2h2v2h-2v-2Zm2,0h2v2h-2v-2Zm2,0h2v2h-2v-2Zm-4,2h2v2h-2v-2Zm2,0h2v2h-2v-2Zm2,0h2v2h-2v-2Zm2-2h2v2h-2v-2Zm0,2h2v2h-2v-2Zm2-2h2v2h-2v-2Zm0,2h2v2h-2v-2Zm2-2h2v2h-2v-2Zm2,0h2v2h-2v-2Zm-2,2h2v2h-2v-2Zm2,0h2v2h-2v-2Zm-42-2h2v2H99v-2Zm2,0h2v2h-2v-2Zm2,0h2v2h-2v-2Zm-4,2h2v2H99v-2Zm2,0h2v2h-2v-2Zm2,0h2v2h-2v-2Zm-10-2h2v2H93v-2Zm2,0h2v2H95v-2Zm2,0h2v2H97v-2Zm-4,2h2v2H93v-2Zm2,0h2v2H95v-2Zm2,0h2v2H97v-2Zm-8-2h2v2H89v-2Zm0,2h2v2H89v-2Zm2-2h2v2H91v-2Zm0,2h2v2H91v-2Zm-4-2h2v2H87v-2Zm0,2h2v2H87v-2Zm-2-2h2v2H85v-2Zm0,2h2v2H85v-2Zm-2-2h2v2H83v-2Zm0,2h2v2H83v-2Zm-2-4h2v2H81v-2Zm0,2h2v2H81v-2Zm0,2h2v2H81v-2Zm24,2h2v2h-2v-2Zm2,0h2v2h-2v-2Zm2,0h2v2h-2v-2Zm2,0h2v2h-2v-2Zm2,0h2v2h-2v-2Zm2,0h2v2h-2v-2Zm2,0h2v2h-2v-2Zm2,0h2v2h-2v-2Zm2,0h2v2h-2v-2Zm2,0h2v2h-2v-2Zm2,0h2v2h-2v-2Zm2,0h2v2h-2v-2Zm2,0h2v2h-2v-2Zm2,0h2v2h-2v-2Zm2,0h2v2h-2v-2Zm2,0h2v2h-2v-2Zm2,0h2v2h-2v-2Zm2,0h2v2h-2v-2Zm2,0h2v2h-2v-2Zm-42,0h2v2H99v-2Zm2,0h2v2h-2v-2Zm2,0h2v2h-2v-2Zm-10,0h2v2H93v-2Zm2,0h2v2H95v-2Zm2,0h2v2H97v-2Zm-8,0h2v2H89v-2Zm2,0h2v2H91v-2Zm-4,0h2v2H87v-2Zm-2,0h2v2H85v-2Zm-2,0h2v2H83v-2Zm22,2h2v2h-2v-2Zm2,0h2v2h-2v-2Zm2,0h2v2h-2v-2Zm-4,2h2v2h-2v-2Zm2,0h2v2h-2v-2Zm2,0h2v2h-2v-2Zm2-2h2v2h-2v-2Zm2,0h2v2h-2v-2Zm2,0h2v2h-2v-2Zm-4,2h2v2h-2v-2Zm2,0h2v2h-2v-2Zm2,0h2v2h-2v-2Zm2-2h2v2h-2v-2Zm2,0h2v2h-2v-2Zm2,0h2v2h-2v-2Zm-4,2h2v2h-2v-2Zm2,0h2v2h-2v-2Zm2,0h2v2h-2v-2Zm2-2h2v2h-2v-2Zm0,2h2v2h-2v-2Zm2-2h2v2h-2v-2Zm2,0h2v2h-2v-2Zm-2,2h2v2h-2v-2Zm2,0h2v2h-2v-2Zm2-2h2v2h-2v-2Zm2,0h2v2h-2v-2Zm2,0h2v2h-2v-2Zm-4,2h2v2h-2v-2Zm2,0h2v2h-2v-2Zm2,0h2v2h-2v-2Zm2-2h2v2h-2v-2Zm0,2h2v2h-2v-2Zm2-2h2v2h-2v-2Zm0,2h2v2h-2v-2Zm2-2h2v2h-2v-2Zm2,0h2v2h-2v-2Zm-2,2h2v2h-2v-2Zm2,0h2v2h-2v-2Zm-42-2h2v2H99v-2Zm2,0h2v2h-2v-2Zm2,0h2v2h-2v-2Zm-4,2h2v2H99v-2Zm2,0h2v2h-2v-2Zm2,0h2v2h-2v-2Zm-10-2h2v2H93v-2Zm2,0h2v2H95v-2Zm2,0h2v2H97v-2Zm-4,2h2v2H93v-2Zm2,0h2v2H95v-2Zm2,0h2v2H97v-2Zm-8-2h2v2H89v-2Zm0,2h2v2H89v-2Zm2-2h2v2H91v-2Zm0,2h2v2H91v-2Zm-4-2h2v2H87v-2Zm0,2h2v2H87v-2Zm-2-2h2v2H85v-2Zm0,2h2v2H85v-2Zm-2-2h2v2H83v-2Zm0,2h2v2H83v-2Zm-2-4h2v2H81v-2Zm0,2h2v2H81v-2Zm0,2h2v2H81v-2Zm24,2h2v2h-2v-2Zm2,0h2v2h-2v-2Zm2,0h2v2h-2v-2Zm2,0h2v2h-2v-2Zm2,0h2v2h-2v-2Zm2,0h2v2h-2v-2Zm2,0h2v2h-2v-2Zm2,0h2v2h-2v-2Zm2,0h2v2h-2v-2Zm2,0h2v2h-2v-2Zm2,0h2v2h-2v-2Zm2,0h2v2h-2v-2Zm2,0h2v2h-2v-2Zm2,0h2v2h-2v-2Zm2,0h2v2h-2v-2Zm2,0h2v2h-2v-2Zm2,0h2v2h-2v-2Zm2,0h2v2h-2v-2Zm2,0h2v2h-2v-2Zm-42,0h2v2H99v-2Zm2,0h2v2h-2v-2Zm2,0h2v2h-2v-2Zm-10,0h2v2H93v-2Zm2,0h2v2H95v-2Zm2,0h2v2H97v-2Zm-8,0h2v2H89v-2Zm2,0h2v2H91v-2Zm-4,0h2v2H87v-2Zm-2,0h2v2H85v-2Zm-2,0h2v2H83v-2Zm22,2h2v2h-2v-2Zm2,0h2v2h-2v-2Zm2,0h2v2h-2v-2Zm-4,2h2v2h-2v-2Zm2,0h2v2h-2v-2Zm2,0h2v2h-2v-2Zm2-2h2v2h-2v-2Zm2,0h2v2h-2v-2Zm2,0h2v2h-2v-2Zm-4,2h2v2h-2v-2Zm2,0h2v2h-2v-2Zm2,0h2v2h-2v-2Zm2-2h2v2h-2v-2Zm2,0h2v2h-2v-2Zm2,0h2v2h-2v-2Zm-4,2h2v2h-2v-2Zm2,0h2v2h-2v-2Zm2,0h2v2h-2v-2Zm2-2h2v2h-2v-2Zm0,2h2v2h-2v-2Zm2-2h2v2h-2v-2Zm2,0h2v2h-2v-2Zm-2,2h2v2h-2v-2Zm2,0h2v2h-2v-2Zm2-2h2v2h-2v-2Zm2,0h2v2h-2v-2Zm2,0h2v2h-2v-2Zm-4,2h2v2h-2v-2Zm2,0h2v2h-2v-2Zm2,0h2v2h-2v-2Zm2-2h2v2h-2v-2Zm0,2h2v2h-2v-2Zm2-2h2v2h-2v-2Zm0,2h2v2h-2v-2Zm2-2h2v2h-2v-2Zm2,0h2v2h-2v-2Zm-2,2h2v2h-2v-2Zm2,0h2v2h-2v-2Zm-42-2h2v2H99v-2Zm2,0h2v2h-2v-2Zm2,0h2v2h-2v-2Zm-4,2h2v2H99v-2Zm2,0h2v2h-2v-2Zm2,0h2v2h-2v-2Zm-10-2h2v2H93v-2Zm2,0h2v2H95v-2Zm2,0h2v2H97v-2Zm-4,2h2v2H93v-2Zm2,0h2v2H95v-2Zm2,0h2v2H97v-2Zm-8-2h2v2H89v-2Zm0,2h2v2H89v-2Zm2-2h2v2H91v-2Zm0,2h2v2H91v-2Zm-4-2h2v2H87v-2Zm0,2h2v2H87v-2Zm-2-2h2v2H85v-2Zm0,2h2v2H85v-2Zm-2-2h2v2H83v-2Zm0,2h2v2H83v-2Zm-2-4h2v2H81v-2Zm0,2h2v2H81v-2Zm0,2h2v2H81v-2Zm62-18h2v2h-2v-2Zm2,0h2v2h-2v-2Zm-2,2h2v2h-2v-2Zm2,0h2v2h-2v-2Zm-2,2h2v2h-2v-2Zm2,0h2v2h-2v-2Zm-2,2h2v2h-2v-2Zm2,0h2v2h-2v-2Zm-2,2h2v2h-2v-2Zm2,0h2v2h-2v-2Zm-2,2h2v2h-2v-2Zm2,0h2v2h-2v-2Zm-2,2h2v2h-2v-2Zm2,0h2v2h-2v-2Zm-2,2h2v2h-2v-2Zm2,0h2v2h-2v-2Zm-2,2h2v2h-2v-2Zm2,0h2v2h-2v-2Zm-2,2h2v2h-2v-2Zm2,0h2v2h-2v-2Zm-40,2h2v2h-2v-2Zm2,0h2v2h-2v-2Zm2,0h2v2h-2v-2Zm-4,2h2v2h-2v-2Zm2,0h2v2h-2v-2Zm2,0h2v2h-2v-2Zm2-2h2v2h-2v-2Zm2,0h2v2h-2v-2Zm2,0h2v2h-2v-2Zm-4,2h2v2h-2v-2Zm2,0h2v2h-2v-2Zm2,0h2v2h-2v-2Zm2-2h2v2h-2v-2Zm2,0h2v2h-2v-2Zm2,0h2v2h-2v-2Zm-4,2h2v2h-2v-2Zm2,0h2v2h-2v-2Zm2,0h2v2h-2v-2Zm2-2h2v2h-2v-2Zm0,2h2v2h-2v-2Zm2-2h2v2h-2v-2Zm2,0h2v2h-2v-2Zm-2,2h2v2h-2v-2Zm2,0h2v2h-2v-2Zm2-2h2v2h-2v-2Zm2,0h2v2h-2v-2Zm2,0h2v2h-2v-2Zm-4,2h2v2h-2v-2Zm2,0h2v2h-2v-2Zm2,0h2v2h-2v-2Zm2-2h2v2h-2v-2Zm0,2h2v2h-2v-2Zm2-2h2v2h-2v-2Zm0,2h2v2h-2v-2Zm2-2h2v2h-2v-2Zm2,0h2v2h-2v-2Zm-2,2h2v2h-2v-2Zm2,0h2v2h-2v-2Zm-42-2h2v2H99v-2Zm2,0h2v2h-2v-2Zm2,0h2v2h-2v-2Zm-4,2h2v2H99v-2Zm2,0h2v2h-2v-2Zm2,0h2v2h-2v-2Zm-10-2h2v2H93v-2Zm2,0h2v2H95v-2Zm2,0h2v2H97v-2Zm-4,2h2v2H93v-2Zm2,0h2v2H95v-2Zm2,0h2v2H97v-2Zm-8-2h2v2H89v-2Zm0,2h2v2H89v-2Zm2-2h2v2H91v-2Zm0,2h2v2H91v-2Zm-4-2h2v2H87v-2Zm0,2h2v2H87v-2Zm-2-2h2v2H85v-2Zm0,2h2v2H85v-2Zm-2-2h2v2H83v-2Zm0,2h2v2H83v-2Zm40,2h2v2h-2v-2Zm2,0h2v2h-2v-2Zm2,0h2v2h-2v-2Zm2,0h2v2h-2v-2Zm2,0h2v2h-2v-2Zm-8,2h2v2h-2v-2Zm2,0h2v2h-2v-2Zm2,0h2v2h-2v-2Zm2,0h2v2h-2v-2Zm2,0h2v2h-2v-2Zm-8,2h2v2h-2v-2Zm2,0h2v2h-2v-2Zm2,0h2v2h-2v-2Zm-8,0h2v2h-2v-2Zm2,0h2v2h-2v-2Zm2,2h2v2h-2v-2Zm-4,0h2v2h-2v-2Zm2,0h2v2h-2v-2Zm2,2h2v2h-2v-2Zm-4,0h2v2h-2v-2Zm2,0h2v2h-2v-2Zm-6-2h2v2h-2v-2Zm2,0h2v2h-2v-2Zm-2,2h2v2h-2v-2Zm2,0h2v2h-2v-2Zm-10-8h2v2h-2v-2Zm2,0h2v2h-2v-2Zm2,0h2v2h-2v-2Zm2,0h2v2h-2v-2Zm2,0h2v2h-2v-2Zm2,0h2v2h-2v-2Zm-10,2h2v2h-2v-2Zm2,0h2v2h-2v-2Zm2,0h2v2h-2v-2Zm-4,2h2v2h-2v-2Zm2,0h2v2h-2v-2Zm-9,3h2v2h-2v-2Zm2,0h2v2h-2v-2Zm-2,2h2v2h-2v-2Zm2,0h2v2h-2v-2Zm-5-9h2v2H97v-2Zm2,0h2v2H99v-2Zm-2,2h2v2H97v-2Zm2,0h2v2H99v-2Zm-9-2h2v2H90v-2Zm2,0h2v2H92v-2Zm-2,2h2v2H90v-2Zm2,0h2v2H92v-2Zm-2,2h2v2H90v-2Zm2,0h2v2H92v-2Zm-6-4h2v2H86v-2Zm2,0h2v2H88v-2Zm-2,2h2v2H86v-2Zm2,0h2v2H88v-2Z" transform="translate(-76 -97)"/>
  <path id="tuki-4" data-name="tuki" class="cls-3" d="M100,108h2v2h-2v-2Zm-2,0h2v2H98v-2Zm-2,0h2v2H96v-2Zm-2,0h2v2H94v-2Zm-2,0h2v2H92v-2Zm0,2h2v2H92v-2Zm2,0h2v2H94v-2Zm2,0h2v2H96v-2Zm2,0h2v2H98v-2Zm2,0h2v2h-2v-2Zm-4,2h2v2H96v-2Zm-2,0h2v2H94v-2Zm-2,0h2v2H92v-2Zm-2,0h2v2H90v-2Zm-2,0h2v2H88v-2Zm0,2h2v2H88v-2Zm0,2h2v2H88v-2Zm0,2h2v2H88v-2Zm0,2h2v2H88v-2Zm-2,0h2v2H86v-2Zm0-2h2v2H86v-2Zm-2,0h2v2H84v-2Zm0,2h2v2H84v-2Zm0,2h2v2H84v-2Zm2,0h2v2H86v-2Zm2,0h2v2H88v-2Zm2-2h2v2H90v-2Zm2,0h2v2H92v-2Zm2,0h2v2H94v-2Zm2,0h2v2H96v-2Zm0-2h2v2H96v-2Zm0-2h2v2H96v-2Zm0-2h2v2H96v-2Zm-2,0h2v2H94v-2Zm0,2h2v2H94v-2Zm0,2h2v2H94v-2Zm-2,0h2v2H92v-2Zm-2,0h2v2H90v-2Zm0,4h2v2H90v-2Zm0,2h2v2H90v-2Zm-2,0h2v2H88v-2Zm-2,0h2v2H86v-2Zm-2,0h2v2H84v-2Zm0,2h2v2H84v-2Zm-2,0h2v2H82v-2Zm0,2h2v2H82v-2Zm2,0h2v2H84v-2Zm2-2h2v2H86v-2Zm0,2h2v2H86v-2Zm0,2h2v2H86v-2Zm-2,0h2v2H84v-2Zm0,2h2v2H84v-2Zm0,2h2v2H84v-2Zm2,0h2v2H86v-2Zm0-2h2v2H86v-2Zm2,2h2v2H88v-2Zm2,0h2v2H90v-2Zm2,0h2v2H92v-2Zm2,0h2v2H94v-2Zm2,0h2v2H96v-2Zm0-2h2v2H96v-2Zm0-2h2v2H96v-2Zm0-2h2v2H96v-2Zm-2,0h2v2H94v-2Zm0,2h2v2H94v-2Zm0,2h2v2H94v-2Zm-2,0h2v2H92v-2Zm4-10h2v2H96v-2Zm0,2h2v2H96v-2Zm2-8h2v2H98v-2Zm0-2h2v2H98v-2Zm2,2h2v2h-2v-2Zm2,0h2v2h-2v-2Zm0-2h2v2h-2v-2Zm0-2h2v2h-2v-2Zm2,0h2v2h-2v-2Zm2,0h2v2h-2v-2Zm2,0h2v2h-2v-2Zm2,0h2v2h-2v-2Zm0,2h2v2h-2v-2Zm-2,0h2v2h-2v-2Zm-2,0h2v2h-2v-2Zm-2,0h2v2h-2v-2Zm0,2h2v2h-2v-2Zm0,2h2v2h-2v-2Zm-2,0h2v2h-2v-2Zm0,2h2v2h-2v-2Zm2,0h2v2h-2v-2Zm2,0h2v2h-2v-2Zm0-2h2v2h-2v-2Zm0-2h2v2h-2v-2Zm2,0h2v2h-2v-2Zm2,0h2v2h-2v-2Zm0,2h2v2h-2v-2Zm-2,0h2v2h-2v-2Zm0,2h2v2h-2v-2Zm2,0h2v2h-2v-2Zm0,2h2v2h-2v-2Zm-2,0h2v2h-2v-2Zm-2,0h2v2h-2v-2Zm0,2h2v2h-2v-2Zm0,2h2v2h-2v-2Zm0,2h2v2h-2v-2Zm2-4h2v2h-2v-2Zm2,0h2v2h-2v-2Zm2-2h2v2h-2v-2Zm0,2h2v2h-2v-2Zm2,0h2v2h-2v-2Zm0,2h2v2h-2v-2Zm-2,0h2v2h-2v-2ZM88,136h2v2H88v-2Zm2,0h2v2H90v-2Zm2,0h2v2H92v-2Zm2,0h2v2H94v-2Zm2,0h2v2H96v-2Zm-8,2h2v2H88v-2Zm2,0h2v2H90v-2Zm2,0h2v2H92v-2Zm2,0h2v2H94v-2Zm2,0h2v2H96v-2Zm-8,2h2v2H88v-2Zm2,0h2v2H90v-2Zm2,0h2v2H92v-2Zm-4,2h2v2H88v-2Zm2,0h2v2H90v-2Zm2,0h2v2H92v-2Zm0,2h2v2H92v-2Zm2,0h2v2H94v-2Zm2,0h2v2H96v-2Zm2-8h2v2H98v-2Zm2,0h2v2h-2v-2Zm2,0h2v2h-2v-2Zm2,0h2v2h-2v-2Zm2,0h2v2h-2v-2Zm-8,2h2v2H98v-2Zm2,0h2v2h-2v-2Zm2,0h2v2h-2v-2Zm2,0h2v2h-2v-2Zm2,0h2v2h-2v-2Zm-4-6h2v2h-2v-2Zm0,2h2v2h-2v-2Zm0-4h2v2h-2v-2Zm-4,10h2v2H98v-2Zm2,0h2v2h-2v-2Zm2,0h2v2h-2v-2Zm2,0h2v2h-2v-2Zm-2,2h2v2h-2v-2Zm2,0h2v2h-2v-2Zm-2,2h2v2h-2v-2Zm18-32h2v2h-2v-2Zm2,0h2v2h-2v-2Zm0,2h2v2h-2v-2Zm-2,0h2v2h-2v-2Zm0,2h2v2h-2v-2Zm2,0h2v2h-2v-2Zm0,2h2v2h-2v-2Zm-2,0h2v2h-2v-2Zm4-6h2v2h-2v-2Zm2,0h2v2h-2v-2Zm0,2h2v2h-2v-2Zm-2,0h2v2h-2v-2Zm0,2h2v2h-2v-2Zm2,0h2v2h-2v-2Zm0,2h2v2h-2v-2Zm-2,0h2v2h-2v-2Zm4-4h2v2h-2v-2Zm0,2h2v2h-2v-2Zm0,2h2v2h-2v-2Zm-6,2h2v2h-2v-2Zm-2,0h2v2h-2v-2Zm6,0h2v2h-2v-2Zm-2,0h2v2h-2v-2Zm4,0h2v2h-2v-2Zm-6,2h2v2h-2v-2Zm-2,0h2v2h-2v-2Zm4,0h2v2h-2v-2Zm-2,2h2v2h-2v-2Zm-2,0h2v2h-2v-2Zm4,0h2v2h-2v-2Zm0,2h2v2h-2v-2Zm0,2h2v2h-2v-2Zm2-2h2v2h-2v-2Zm0,2h2v2h-2v-2Zm2-2h2v2h-2v-2Zm0,2h2v2h-2v-2Zm2-2h2v2h-2v-2Zm0,2h2v2h-2v-2Zm2-2h2v2h-2v-2Zm0,2h2v2h-2v-2Zm2-2h2v2h-2v-2Zm0,2h2v2h-2v-2Zm2-2h2v2h-2v-2Zm0,2h2v2h-2v-2Zm-8,2h2v2h-2v-2Zm2,0h2v2h-2v-2Zm2,0h2v2h-2v-2Zm2,0h2v2h-2v-2Zm2,0h2v2h-2v-2Zm-12,2h2v2h-2v-2Zm2,0h2v2h-2v-2Zm2,0h2v2h-2v-2Zm2,0h2v2h-2v-2Zm2,0h2v2h-2v-2Zm7,2h2v2h-2v-2Zm0,2h2v2h-2v-2Zm2-2h2v2h-2v-2Zm0,2h2v2h-2v-2Z" transform="translate(-76 -97)"/>
  <path id="logo" class="cls-4" d="M92,114h2v2H92v-2Zm-2,0h2v2H90v-2Zm0,2h2v2H90v-2Zm2,0h2v2H92v-2Zm-2,4h2v2H90v-2Zm2,0h2v2H92v-2Zm0,2h2v2H92v-2Zm-2,0h2v2H90v-2Zm0,2h2v2H90v-2Zm2,0h2v2H92v-2Zm-2,2h2v2H90v-2Zm2,0h2v2H92v-2Zm0,2h2v2H92v-2Zm-2,0h2v2H90v-2Zm0,2h2v2H90v-2Zm2,0h2v2H92v-2Zm8-16h2v2h-2v-2Zm-2,0h2v2H98v-2Zm-2,0h2v2H96v-2Zm0,2h2v2H96v-2Zm2,0h2v2H98v-2Zm2,0h2v2h-2v-2Zm6-2h2v2h-2v-2Zm-2,0h2v2h-2v-2Zm-2,0h2v2h-2v-2Zm0,2h2v2h-2v-2Zm2,0h2v2h-2v-2Zm2,0h2v2h-2v-2Zm-10,2h2v2H96v-2Zm2,0h2v2H98v-2Zm2,0h2v2h-2v-2Zm0,2h2v2h-2v-2Zm-2,0h2v2H98v-2Zm-2,0h2v2H96v-2Zm0,2h2v2H96v-2Zm2,0h2v2H98v-2Zm2,0h2v2h-2v-2Zm2-4h2v2h-2v-2Zm2,0h2v2h-2v-2Zm2,0h2v2h-2v-2Zm0,2h2v2h-2v-2Zm-2,0h2v2h-2v-2Zm-2,0h2v2h-2v-2Zm0,2h2v2h-2v-2Zm2,0h2v2h-2v-2Zm2,0h2v2h-2v-2Zm-10,2h2v2H96v-2Zm2,0h2v2H98v-2Zm2,0h2v2h-2v-2Zm2,0h2v2h-2v-2Zm2,0h2v2h-2v-2Zm2,0h2v2h-2v-2Zm-10,4h2v2H96v-2Zm2,0h2v2H98v-2Zm2,0h2v2h-2v-2Zm2,0h2v2h-2v-2Zm2,0h2v2h-2v-2Zm2,0h2v2h-2v-2Zm-10,2h2v2H96v-2Zm2,0h2v2H98v-2Zm2,0h2v2h-2v-2Zm2,0h2v2h-2v-2Zm2,0h2v2h-2v-2Zm2,0h2v2h-2v-2Z" transform="translate(-76 -97)"/>
</svg>
