<svg id="txt_mv" xmlns="http://www.w3.org/2000/svg" width="303.5" height="12.625" viewBox="0 0 303.5 12.625">
  <metadata><?xpacket begin="﻿" id="W5M0MpCehiHzreSzNTczkc9d"?>
<x:xmpmeta xmlns:x="adobe:ns:meta/" x:xmptk="Adobe XMP Core 5.6-c140 79.160451, 2017/05/06-01:08:21        ">
   <rdf:RDF xmlns:rdf="http://www.w3.org/1999/02/22-rdf-syntax-ns#">
      <rdf:Description rdf:about=""/>
   </rdf:RDF>
</x:xmpmeta>
                                                                                                    
                                                                                                    
                                                                                                    
                                                                                                    
                                                                                                    
                                                                                                    
                                                                                                    
                                                                                                    
                                                                                                    
                                                                                                    
                                                                                                    
                                                                                                    
                                                                                                    
                                                                                                    
                                                                                                    
                                                                                                    
                                                                                                    
                                                                                                    
                                                                                                    
                                                                                                    
                           
<?xpacket end="w"?></metadata>
<defs>
    <style>
      .cls-1 {
        fill: #4f4f4f;
        fill-rule: evenodd;
      }
    </style>
  </defs>
  <path id="インターネットにあなたの居場所をつくります_" data-name="インターネットにあなたの居場所をつくります。" class="cls-1" d="M498.27,348.194a37.094,37.094,0,0,1-10.093,6.677l0.5,0.91a58.226,58.226,0,0,0,5.5-3v6.971h1.148v-7.769a30.074,30.074,0,0,0,3.737-3.066Zm14.154,3.85c-0.448,4.227-4.7,6.439-8.581,6.439v1.064c4.466-.028,9.2-2.688,9.645-7.5h-1.064Zm-4.143-2.786h-5.152v1.022h5.152v-1.022Zm11.76-.21a8.5,8.5,0,0,1-3.71,4.689L517,354.619a9.706,9.706,0,0,0,3.906-4.577h5.333a14.378,14.378,0,0,1-1.876,4.605c-0.867-.644-1.735-1.3-2.673-1.875l-0.6.839c0.924,0.588,1.848,1.176,2.73,1.82v0.014a9.4,9.4,0,0,1-4.886,3.192l0.406,1.008a10.508,10.508,0,0,0,5.291-3.542c0.392,0.322.8,0.658,1.218,0.994l0.686-.77q-0.63-.525-1.3-1.008a15.892,15.892,0,0,0,2.408-6.271h-7.6ZM542.2,353.4H530.779v1.063H542.2V353.4Zm9.157-3.08v-1.988h-1.036v1.988h-4.354v0.91h7.349a25.607,25.607,0,0,1-8.091,5.557l0.532,0.84a26.338,26.338,0,0,0,4.592-2.562v4.984h1.078v-5.8a27.134,27.134,0,0,0,4.031-3.779l-0.14-.168Zm5.4,6.229c-1.246-.924-2.548-1.778-3.878-2.59l-0.615.84c1.273,0.8,2.533,1.638,3.765,2.52Zm5-5.543-1.008.182,0.56,3.3,1.078-.168Zm7.587-.028h-1.12c0,4.255-1.036,6.551-5.235,7.993l0.42,0.924c3.961-1.4,5.935-3.934,5.935-8.133V350.98Zm-4.913-.07-1.022.2,0.574,3.3,1.078-.168Zm20.3,4.157c-2.408-1.008-4.829-1.917-7.307-2.771V348.32h-1.12V359.6h1.12v-6.215c2.31,0.825,4.563,1.679,6.775,2.645Zm5.685,4.046a19.3,19.3,0,0,1-.728-5.138,22.049,22.049,0,0,1,.6-5.249l-1.036-.238a27.57,27.57,0,0,0-.6,5.557,18.8,18.8,0,0,0,.756,5.362Zm8.245-1.162s-1.918.07-2.87,0.07c-0.993,0-2.729,0-2.729-1.372l0.014-.434h-1.036v0.56c0,2.128,2.716,2.17,4.255,2.17,0.8,0,2.394-.1,2.394-0.1Zm0.056-8.217h-6.369V350.7h6.369v-0.966Zm7.673,7.643a2.936,2.936,0,0,1-1.792.742,1.342,1.342,0,0,1-1.344-1.372,3.967,3.967,0,0,1,2.478-3.317A20.053,20.053,0,0,0,606.393,357.377Zm2.828-4.479a13.608,13.608,0,0,1-2,3.779,18.572,18.572,0,0,1-.518-3.611A6.722,6.722,0,0,1,609.221,352.9Zm4.311,2.715a3.728,3.728,0,0,0-3.01-3.373l0.252-.84-0.938-.28-0.265.9a7.682,7.682,0,0,0-2.912.14c-0.014-.63-0.014-1.932-0.014-1.932h5.711v-0.868h-5.711l0.028-1.442h-1.008l-0.014,1.442h-2.828v0.868h2.814s0,1.512.042,2.24a4.926,4.926,0,0,0-3.416,4.269,2.272,2.272,0,0,0,2.254,2.338,3.865,3.865,0,0,0,2.156-.756c0.14,0.476.294,0.952,0.476,1.414l0.938-.364c-0.21-.56-0.392-1.12-0.56-1.694a13.03,13.03,0,0,0,2.673-4.563,2.828,2.828,0,0,1,2.31,2.631,3.336,3.336,0,0,1-2.534,3.136l0.378,0.91A4.3,4.3,0,0,0,613.532,355.613Zm10.962,1.736a2.056,2.056,0,0,1-2.183,1.358,1.113,1.113,0,0,1-1.344-.868c0-.784.952-1.064,1.582-1.064A4.894,4.894,0,0,1,624.494,357.349Zm-2.267-7.391h-2.058l0.476-1.666-1.036-.266-0.49,1.932h-2.66v0.91h2.38a59.578,59.578,0,0,1-2.156,5.977l0.966,0.434a59.789,59.789,0,0,0,2.226-6.411h2.352v-0.91Zm5.669,8.511a17.772,17.772,0,0,0-2.254-1.6c0.042-.49.084-0.98,0.084-1.47l-0.014-3.121-1.05-.014,0.014,4.115a6.131,6.131,0,0,0-1.987-.518c-1.26,0-2.674.462-2.674,1.96a2.065,2.065,0,0,0,2.31,1.848,3.053,3.053,0,0,0,3.023-1.862,13.948,13.948,0,0,1,1.876,1.442Zm0.238-8.021h-4.283v0.91h4.283v-0.91Zm10.081-.392h-3.43l0.238-1.82-1.036-.14-0.252,1.96h-2.772v0.91h2.6a82.015,82.015,0,0,1-1.862,8.413l0.994,0.294a54.343,54.343,0,0,0,1.932-8.707h3.584v-0.91Zm3.933,8.455s-1.33.07-1.974,0.07c-0.9,0-2.575.126-2.561-1.106l0.014-.378h-1.008v0.476c0,1.876,2.2,1.932,3.569,1.932h0.924c0.336,0,1.036-.056,1.036-0.056v-0.938Zm-0.182-5.921h-4.9v0.91h4.9v-0.91Zm8.359-2.436c-0.028,1.722-.224,7.559-2.646,7.559-1.246,0-1.652-1.4-1.652-2.436A5.175,5.175,0,0,1,650.325,350.154Zm6.313,3.975a5.176,5.176,0,0,0-5.445-5,6.2,6.2,0,0,0-6.23,6.131c0,1.68.8,3.458,2.73,3.458,3.444,0,3.7-6.2,3.724-8.637,2.281,0.28,4.1,1.54,4.1,4.031,0,2.338-1.428,3.766-3.569,4.438l0.364,0.994A5.639,5.639,0,0,0,656.638,354.129Zm12.4,2.2v2.45h-6.481v-2.45h6.481Zm-9.183-8.021v4.312a16.368,16.368,0,0,1-1.218,6.789l0.84,0.812a14.539,14.539,0,0,0,1.442-6.314h4.368v1.568h-3.78v4.914h1.05v-0.742h6.481v0.742h1.106v-4.914h-3.765v-1.568h4.577v-0.937h-4.577v-1.4H670.4v-3.262H659.859Zm5.432,4.662h-4.368v-1.4h4.368v1.4Zm4.017-2.254h-8.385v-1.526h8.385v1.526Zm14.392,9.561a1.133,1.133,0,0,0,.9-0.378,3.192,3.192,0,0,0,.5-1.372,17.327,17.327,0,0,0,.168-2.758V355.1h-6.019c0.112-.112.224-0.238,0.336-0.364s0.224-.252.35-0.392h5.7v-0.867h-8.791v0.867h1.9a9.166,9.166,0,0,1-2.45,1.848l0.42,0.588c-0.294.126-.546,0.224-0.756,0.308a3.522,3.522,0,0,1-.546.21v-4.9h1.6v-0.9h-1.6v-3.3h-1.064v3.3h-1.5v0.9h1.5v5.263c-0.294.1-.56,0.182-0.812,0.252s-0.5.14-.741,0.2l0.153,0.924c0.742-.21,1.484-0.448,2.2-0.714s1.428-.574,2.128-0.9l-0.14-.658c0.154-.1.336-0.21,0.532-0.35s0.406-.294.644-0.476h1.526a11.358,11.358,0,0,1-.8.882c-0.294.294-.616,0.574-0.966,0.868a11.326,11.326,0,0,1-2.016,1.358l0.574,0.714a11.2,11.2,0,0,0,1.2-.742,14.306,14.306,0,0,0,1.2-.952A13.218,13.218,0,0,0,680.131,357a9.476,9.476,0,0,0,.854-1.064h1.525a11.506,11.506,0,0,1-1.6,2.17,10.017,10.017,0,0,1-2.016,1.722l0.644,0.7a10.744,10.744,0,0,0,2.281-2.044,11.344,11.344,0,0,0,1.694-2.548H684.2v0.042c0,0.644-.014,1.19-0.056,1.624a6.151,6.151,0,0,1-.154,1.022,0.773,0.773,0,0,1-.616.742c-0.182,0-.406,0-0.644-0.014s-0.518-.042-0.812-0.056l0.042,0.91c0.35,0.014.686,0.042,0.98,0.056S683.49,360.275,683.7,360.275Zm1.218-12h-7.279V352.8h7.279v-4.522Zm-1.106,1.876h-5.123v-1.008h5.123v1.008Zm-5.123,1.862v-1.05h5.123v1.05h-5.123Zm14.574-1.218h-5.11v3.555a19.889,19.889,0,0,1-.21,3.22,9.348,9.348,0,0,1-.714,2.268l0.966,0.518a11.39,11.39,0,0,0,1.008-4.8h4.06V350.8Zm-5.81-2.282v0.952H693.6v-0.952h-6.146Zm12.515,3.668h-4.689c0.014-.266.014-0.588,0.028-0.98s0.014-.826.028-1.344c0.867-.1,1.651-0.21,2.365-0.364a14.823,14.823,0,0,0,1.9-.532l-0.28-.966a19.012,19.012,0,0,1-5.011.98c0,1.064-.014,2.016-0.056,2.87s-0.1,1.61-.168,2.267a12.23,12.23,0,0,1-.7,3.108,8.436,8.436,0,0,1-1.344,2.212l0.812,0.658a9.392,9.392,0,0,0,1.638-2.828,16.581,16.581,0,0,0,.728-4.1h2.127V360.3h1.05v-7.139h1.568v-0.98Zm-7.685,2.463H689.2v-2.939h3.08v2.939Zm20.929-1.819a20.819,20.819,0,0,0-3.388.6,2.291,2.291,0,0,0-2.2-1.232,4.2,4.2,0,0,0-2.2.77s1.05-1.61,1.54-2.408h5.459l-0.028-.868h-4.913c0.21-.378.434-0.77,0.644-1.162l-0.952-.462c-0.28.56-.588,1.092-0.868,1.624h-3.584v0.882l3.094-.014a34.949,34.949,0,0,1-3.206,4.8l0.77,0.546c0.966-1.26,2.45-2.883,4.144-2.883a1.343,1.343,0,0,1,1.316.727c-1.47.518-4.018,1.54-4.018,3.43,0,2.254,3.024,2.408,4.662,2.408a18.266,18.266,0,0,0,3.009-.224v-0.938a22.685,22.685,0,0,1-3.065.2c-0.966,0-3.486,0-3.486-1.414,0-1.232,2.114-2.2,3.094-2.534v2.548h1.007v-2.87a18.1,18.1,0,0,1,3.164-.532v-0.993Zm14.574,1.189c0-3.373-3.08-4.339-6.075-4.269a31.833,31.833,0,0,0-5.264.658L716.6,351.4a29.911,29.911,0,0,1,5.222-.644c2.253-.014,4.815.63,4.759,3.331-0.084,3.7-4.507,4.1-7.307,4.228l0.042,0.952c2.632-.154,5.991-0.322,7.643-2.688A4.5,4.5,0,0,0,727.786,354.017Zm12.768,5c-2.044-1.582-4.143-3.094-6.271-4.55a8.334,8.334,0,0,1-.812-0.56,0.366,0.366,0,0,1-.07-0.238,0.465,0.465,0,0,1,.126-0.321,8.817,8.817,0,0,1,1.12-.77c1.75-1.19,3.514-2.394,5.193-3.682l-0.672-.77c-1.959,1.554-4.073,2.87-6.061,4.354a1.6,1.6,0,0,0-.826,1.217,1.18,1.18,0,0,0,.5.938c0.5,0.434,1.078.8,1.624,1.19,1.792,1.316,3.626,2.59,5.347,4.032Zm14.392-10.625h-1.064v1.75c0,2.24.168,6.131-1.441,7.811a4.365,4.365,0,0,1-1.568.9l0.518,0.952a5.335,5.335,0,0,0,1.847-1.176c1.61-1.694,1.708-4.984,1.708-7.195V348.39Zm-7.587.028h-1.036v3.962c0,2.211-.028,2.883,1.834,2.743v-0.9c-0.784.042-.784,0.168-0.8-1.833v-3.976Zm17.7,8.385a2.109,2.109,0,0,1-2.31,1.9c-0.616,0-1.5-.14-1.5-0.938,0-.98,1.344-1.246,2.1-1.246A6.916,6.916,0,0,1,765.055,356.8Zm5.165-7h-4.073v-1.568h-1.022V349.8h-5.376v0.868h5.376v2.156H760.1v0.9h5.026c0,1.428-.014,1.778-0.014,2.114a9.2,9.2,0,0,0-1.764-.2c-1.288,0-3.052.5-3.052,2.086,0,1.372,1.246,1.918,2.436,1.918a3.044,3.044,0,0,0,3.248-2.548,14.792,14.792,0,0,1,3.443,1.89l0.616-.882a14.457,14.457,0,0,0-3.9-1.974c0.014-.8.014-2.408,0.014-2.408h3.723v-0.9h-3.723v-2.156h4.073V349.8Zm10.249,4.423a1.551,1.551,0,0,1-1.484,1.708,1.455,1.455,0,0,1-1.54-1.568,1.549,1.549,0,0,1,1.47-1.735A1.481,1.481,0,0,1,780.469,354.227Zm4.661-4.367h-3.654v-1.638h-1.091v1.638h-7.014v0.868h7.014v1.6a2.692,2.692,0,0,0-1.5-.546,2.348,2.348,0,0,0-2.478,2.463,2.414,2.414,0,0,0,2.534,2.548,1.992,1.992,0,0,0,1.456-.616,4.655,4.655,0,0,1-2.072,2.94l0.686,0.812c2.1-1.6,2.463-2.87,2.463-5.726v-3.471h3.654V349.86Zm2.885,9.841a2.071,2.071,0,0,0,1.526.63,2.018,2.018,0,0,0,1.512-.63,2.148,2.148,0,1,0-3.038-3.038,2.018,2.018,0,0,0-.63,1.512A2.071,2.071,0,0,0,788.015,359.7Zm0.588-2.45a1.347,1.347,0,0,1,.448-0.28,1.274,1.274,0,0,1,.98,0,1.225,1.225,0,0,1,.714.714,1.274,1.274,0,0,1,0,.98,1.347,1.347,0,0,1-.28.448,1.487,1.487,0,0,1-.434.294,1.471,1.471,0,0,1-.98,0,1.383,1.383,0,0,1-.448-0.294,1.155,1.155,0,0,1-.28-0.448,1.274,1.274,0,0,1,0-.98A1.215,1.215,0,0,1,788.6,357.251Z" transform="translate(-488.188 -347.906)"/>
</svg>
